{"glyphs":{"0":{"ha":711,"x_min":52,"x_max":660,"o":"m 52 470 q 145 786 52 637 q 353 935 239 935 q 515 866 444 935 q 623 686 587 798 q 660 454 660 575 q 576 130 660 269 q 442 0 522 37 q 358 -18 401 -18 q 205 48 276 -18 q 93 215 135 115 q 52 407 52 314 l 52 470 m 360 22 q 550 416 550 22 q 543 637 550 581 q 490 819 529 757 q 349 895 441 895 q 163 547 177 895 q 161 427 161 497 q 201 140 161 241 q 360 22 248 22 z "},"1":{"ha":711,"x_min":129,"x_max":570,"o":"m 142 698 q 129 715 138 698 q 153 733 129 718 q 250 814 178 749 q 370 935 323 878 l 408 935 q 419 932 417 935 q 421 922 421 930 l 421 95 q 430 47 421 52 q 565 27 463 27 q 570 22 570 27 l 570 5 q 565 0 570 0 l 157 0 q 151 5 151 0 l 151 22 q 157 27 151 27 q 216 30 191 29 q 269 34 241 31 q 308 43 296 37 q 321 61 319 49 q 323 93 323 73 l 323 815 q 308 804 323 817 q 146 699 220 734 l 142 698 z "},"2":{"ha":711,"x_min":52,"x_max":664,"o":"m 87 653 l 71 651 q 64 655 64 651 q 87 739 64 674 q 138 834 109 804 q 359 935 237 935 q 557 858 482 935 q 631 665 631 781 q 481 408 631 549 q 401 336 433 363 q 258 202 361 302 q 155 92 155 102 l 537 92 q 607 119 587 92 q 638 205 619 136 l 664 205 l 635 22 q 619 0 631 7 l 55 0 q 52 18 52 0 q 83 71 52 35 q 164 156 115 106 q 298 290 213 205 q 513 641 513 509 q 455 787 513 722 q 318 852 396 852 q 180 800 241 852 q 99 665 120 748 q 87 653 96 653 z "},"3":{"ha":711,"x_min":44,"x_max":635,"o":"m 400 564 q 425 565 408 565 q 569 499 503 565 q 635 331 635 433 q 581 151 635 229 q 447 27 527 73 q 291 -18 366 -18 q 66 48 126 -18 q 44 89 51 65 q 100 134 44 134 q 158 101 115 134 q 239 45 201 67 q 324 25 277 24 q 469 111 413 28 q 525 293 525 194 q 476 441 525 391 q 360 492 427 492 q 300 478 324 492 q 273 460 277 465 q 266 454 269 454 q 258 460 262 454 q 253 469 253 465 q 257 478 253 473 q 268 487 262 482 q 280 497 274 492 q 449 728 449 629 q 406 823 449 785 q 315 861 363 861 q 114 720 191 861 q 109 720 113 720 q 96 724 104 720 q 87 730 87 728 q 89 736 87 732 q 99 762 90 740 q 136 820 108 785 q 198 880 164 854 q 329 935 271 935 q 492 892 436 935 q 547 773 547 850 q 465 614 547 697 q 424 586 450 604 q 398 564 398 568 l 398 564 l 400 564 z "},"4":{"ha":711,"x_min":43,"x_max":669,"o":"m 59 269 q 43 281 43 269 q 48 302 43 294 l 469 920 q 492 935 479 935 q 514 933 506 935 q 522 918 522 931 l 522 360 q 525 346 522 349 q 538 343 528 343 l 648 343 q 662 342 655 343 q 669 331 669 340 l 669 285 q 655 269 669 269 l 539 269 q 524 265 526 269 q 522 252 522 262 l 522 -10 q 510 -25 522 -25 l 437 -25 q 423 -9 423 -25 l 423 252 q 420 265 423 262 q 406 269 417 269 l 59 269 m 423 732 q 407 759 423 759 q 387 745 401 759 l 127 357 q 124 348 124 353 q 145 343 124 343 l 406 343 q 420 348 417 343 q 423 361 423 353 l 423 732 z "},"5":{"ha":711,"x_min":71,"x_max":627,"o":"m 180 816 l 169 564 q 170 556 169 555 q 242 585 189 576 q 323 593 295 593 q 454 562 382 593 q 576 467 526 530 q 627 326 627 404 q 573 119 627 195 q 437 13 518 44 q 269 -18 356 -18 q 118 14 182 -18 q 71 66 75 35 q 86 105 71 90 q 123 119 102 119 q 166 103 144 119 q 211 68 189 87 q 257 33 234 49 q 312 17 281 17 q 423 58 375 17 q 494 157 471 99 q 517 264 517 214 q 476 408 517 356 q 384 478 436 460 q 295 496 332 496 q 233 488 258 496 q 190 470 209 480 q 158 452 170 460 q 141 441 145 444 q 133 439 137 439 q 128 450 128 439 l 149 907 l 494 907 q 533 924 526 907 q 538 935 535 929 l 566 935 l 550 821 l 194 821 q 180 816 180 821 z "},"6":{"ha":711,"x_min":54,"x_max":654,"o":"m 611 934 q 616 934 611 934 q 621 924 621 934 q 566 883 621 913 q 496 844 510 853 q 408 779 452 814 q 261 588 263 662 q 274 591 267 588 q 299 602 281 595 q 367 610 318 610 q 471 585 415 610 q 568 518 527 560 q 654 296 654 427 q 566 73 654 164 q 346 -18 477 -18 q 135 90 215 -18 q 54 340 54 197 q 170 651 54 519 q 512 898 271 766 q 570 923 539 913 q 611 934 600 934 m 168 301 q 208 115 168 195 q 351 18 256 18 q 494 104 446 18 q 534 278 534 176 q 427 545 534 478 q 335 570 388 570 q 202 494 241 570 q 168 309 169 429 l 168 301 z "},"7":{"ha":711,"x_min":54,"x_max":665,"o":"m 646 907 q 665 881 665 907 q 653 825 665 854 l 273 -18 l 197 -18 l 197 -3 q 311 251 262 141 q 396 442 359 361 q 541 771 530 744 q 533 798 551 798 l 160 798 q 135 787 146 798 q 119 764 123 776 l 82 659 q 67 647 79 647 q 54 657 54 647 l 95 893 q 106 907 100 907 l 646 907 z "},"8":{"ha":711,"x_min":110,"x_max":600,"o":"m 110 206 q 202 399 110 328 q 248 433 202 399 q 277 461 277 455 q 242 502 277 468 q 171 589 207 535 q 135 703 135 642 q 196 873 135 812 q 352 935 256 935 q 514 876 448 935 q 581 728 581 817 q 547 613 581 667 q 490 554 526 582 q 439 516 454 526 q 425 502 425 505 q 446 481 425 498 q 551 378 518 423 q 600 217 600 310 q 531 53 600 123 q 362 -18 461 -18 q 186 46 263 -18 q 110 206 110 109 m 196 204 q 243 68 196 125 q 356 12 291 12 q 466 61 420 12 q 511 201 511 109 q 431 340 511 261 q 409 364 424 348 q 362 410 394 380 q 313 439 331 439 q 284 427 294 439 q 267 408 275 416 q 196 212 196 331 l 196 204 m 266 641 q 372 541 296 604 q 397 531 383 531 q 416 534 410 531 q 443 558 422 538 q 483 629 463 579 q 503 720 503 680 q 464 854 503 802 q 360 907 426 907 q 256 865 295 907 q 217 763 217 824 q 266 641 217 701 z "},"9":{"ha":711,"x_min":50,"x_max":663,"o":"m 74 -17 q 70 -10 70 -17 q 83 6 70 -3 q 450 293 337 116 q 469 328 469 322 q 463 334 469 334 l 393 317 q 308 309 359 309 q 207 335 257 309 q 121 406 157 362 q 50 616 50 493 q 131 838 50 740 q 348 935 212 935 q 573 831 484 935 q 663 577 663 726 q 552 253 663 395 q 260 33 441 111 q 74 -17 148 -17 m 172 602 q 227 426 172 504 q 368 347 281 347 q 455 361 421 347 q 500 386 488 376 q 536 566 536 415 q 526 707 536 661 q 465 849 507 799 q 344 899 422 899 q 184 740 222 899 q 172 619 172 686 l 172 602 z "}," ":{"ha":373,"x_min":0,"x_max":0,"o":""},"!":{"ha":332,"x_min":88,"x_max":243,"o":"m 88 62 q 111 118 88 95 q 165 140 134 140 q 220 116 197 140 q 243 60 243 92 q 222 5 243 28 q 167 -18 200 -18 q 111 5 134 -18 q 88 62 88 28 m 190 1013 q 218 1012 203 1013 q 235 1002 232 1011 l 235 966 l 185 314 q 165 288 182 288 q 144 314 147 288 l 94 966 l 94 1002 q 104 1011 94 1011 l 165 1013 l 190 1013 z "},"\"":{"ha":566,"x_min":90,"x_max":481,"o":"m 383 554 q 372 657 380 603 q 359 746 372 657 q 339 900 339 878 q 362 939 339 922 q 412 956 385 956 q 459 939 438 956 q 481 900 481 922 q 475 836 481 878 q 463 745 470 794 q 447 645 455 696 q 435 554 439 595 l 383 554 m 135 553 q 111 737 132 597 q 90 899 90 877 q 113 939 90 922 q 162 956 135 956 q 211 939 190 956 q 232 900 232 922 q 227 837 232 879 q 214 745 221 795 q 198 645 206 696 q 186 553 191 594 l 135 553 z "},"#":{"ha":806,"x_min":1,"x_max":800,"o":"m 87 722 l 272 722 l 340 1043 l 427 1043 l 358 722 l 529 722 l 597 1043 l 684 1043 l 615 722 l 800 722 l 781 640 l 597 640 l 549 403 l 736 403 l 717 321 l 530 321 l 458 -24 l 368 -24 l 441 321 l 273 321 l 201 -24 l 111 -24 l 184 321 l 1 321 l 22 403 l 203 403 l 254 640 l 65 640 l 87 722 m 292 403 l 460 403 l 510 640 l 340 640 l 292 403 z "},"$":{"ha":711,"x_min":83,"x_max":654,"o":"m 311 863 q 353 865 328 865 q 409 861 378 865 l 409 964 l 447 964 l 447 854 q 598 774 555 829 q 618 728 614 754 q 604 695 618 708 q 574 682 591 682 q 543 696 557 682 q 515 729 529 710 q 485 770 500 749 q 459 799 469 791 q 447 808 448 806 l 447 469 q 479 452 456 464 q 600 356 547 416 q 654 235 654 295 q 597 73 654 132 q 447 -7 541 14 l 447 -149 l 409 -149 l 409 -14 q 311 -17 351 -22 l 311 -149 l 274 -149 l 274 -10 q 102 91 155 16 q 83 144 84 117 q 97 186 81 172 q 132 200 113 200 q 160 191 150 200 q 191 135 175 178 q 274 31 218 60 l 274 446 q 165 530 195 494 q 109 661 109 595 q 155 781 109 726 q 274 856 201 836 l 274 964 l 311 964 l 311 863 m 311 18 q 409 13 353 5 l 409 366 q 360 394 385 380 q 311 423 336 408 l 311 18 m 409 827 q 345 834 384 834 q 311 832 326 834 l 311 555 q 409 491 355 523 l 409 827 m 566 182 q 494 307 566 250 q 447 342 472 325 l 447 23 q 531 83 499 42 q 566 182 562 125 m 189 707 q 207 648 189 671 q 274 583 224 625 l 274 824 q 189 707 189 798 z "},"%":{"ha":1187,"x_min":57,"x_max":1130,"o":"m 1078 73 q 1017 9 1053 33 q 941 -16 981 -16 q 805 69 863 -16 q 747 265 747 153 q 801 467 747 377 q 932 556 855 556 q 1077 469 1024 556 q 1130 269 1130 382 q 1078 73 1130 155 m 829 260 q 829 203 829 260 q 854 87 829 146 q 941 28 879 28 q 1044 176 1031 28 q 1047 257 1047 219 q 1042 378 1047 340 q 942 511 1025 511 q 878 488 899 511 q 843 419 857 465 q 829 260 829 374 m 923 1004 l 1011 1004 l 264 -37 l 177 -37 l 923 1004 m 388 501 q 327 437 363 462 q 252 413 292 413 q 115 497 174 413 q 57 694 57 582 q 111 895 57 806 q 242 985 165 985 q 387 898 334 985 q 440 697 440 811 q 388 501 440 584 m 139 689 q 139 632 139 689 q 164 516 139 575 q 252 456 189 456 q 354 604 341 456 q 357 686 357 648 q 353 806 357 768 q 252 940 336 940 q 188 917 209 940 q 153 848 167 894 q 139 689 139 802 z "},"&":{"ha":1032,"x_min":16,"x_max":1014,"o":"m 947 65 q 953 53 953 65 q 949 39 953 40 q 790 -21 857 -21 q 677 41 724 -21 q 632 104 654 69 q 595 157 610 138 q 257 -18 405 -18 q 87 63 159 -18 q 16 245 16 144 q 171 475 16 388 q 272 524 218 502 q 176 663 195 599 q 170 726 170 689 q 231 844 170 799 q 369 889 292 889 q 504 844 446 889 q 561 725 561 799 q 433 559 561 637 q 416 549 418 551 q 415 544 415 548 q 423 532 415 539 q 440 516 431 525 q 470 490 450 507 q 508 456 489 472 q 585 367 527 441 q 647 293 644 293 q 657 298 654 293 l 812 533 q 829 577 829 559 q 818 603 829 595 q 792 613 806 610 q 767 619 779 616 q 755 634 755 622 q 762 646 755 646 l 1011 646 q 1014 631 1014 641 q 1010 618 1014 621 q 966 612 1006 616 q 873 565 899 606 l 673 248 l 758 102 q 851 36 796 36 q 909 49 880 36 q 947 65 937 62 m 315 62 q 349 62 315 62 q 441 95 382 62 q 559 176 500 127 q 571 193 571 187 q 570 201 570 199 q 570 204 570 202 q 345 469 478 361 q 327 484 337 475 q 307 492 317 492 q 268 476 295 492 q 174 380 210 442 q 138 267 138 319 q 193 120 138 178 q 315 62 248 62 m 471 722 q 364 848 471 848 q 275 787 296 848 q 269 731 269 768 q 297 650 269 695 q 372 575 325 604 q 443 630 414 583 q 471 722 471 677 z "},"'":{"ha":315,"x_min":87,"x_max":229,"o":"m 132 552 q 108 737 129 599 q 87 899 87 875 q 111 939 87 922 q 159 956 134 956 q 207 939 185 956 q 229 900 229 922 q 224 836 229 878 q 211 744 218 793 q 196 644 203 694 q 183 552 188 593 l 132 552 z "},"(":{"ha":441,"x_min":116,"x_max":425,"o":"m 385 1168 q 396 1175 390 1175 q 413 1159 402 1175 q 425 1135 425 1143 q 420 1120 425 1127 q 203 409 203 787 q 420 -301 203 31 q 425 -316 425 -309 q 413 -339 425 -323 q 396 -355 402 -355 q 385 -349 390 -355 q 133 204 187 -113 q 116 408 116 306 q 184 815 116 617 q 385 1168 252 1013 z "},")":{"ha":441,"x_min":16,"x_max":325,"o":"m 20 1120 q 16 1139 16 1127 q 30 1163 16 1152 q 47 1175 43 1175 q 56 1168 51 1175 q 308 614 256 939 q 325 408 325 511 q 256 4 325 201 q 56 -349 186 -193 q 45 -355 51 -355 q 27 -339 39 -355 q 16 -316 16 -323 q 20 -301 16 -309 q 238 409 238 31 q 20 1120 238 787 z "},"*":{"ha":503,"x_min":27,"x_max":475,"o":"m 466 934 l 475 905 l 321 825 l 397 669 l 374 652 l 251 775 l 126 654 l 101 671 l 180 825 l 27 907 l 35 936 l 206 909 l 236 1081 l 266 1081 l 294 909 l 466 934 z "},"+":{"ha":711,"x_min":60,"x_max":651,"o":"m 60 467 l 314 467 l 314 731 l 400 731 l 400 467 l 651 467 l 651 381 l 400 381 l 400 120 l 314 120 l 314 381 l 60 381 l 60 467 z "},",":{"ha":353,"x_min":82,"x_max":271,"o":"m 271 35 q 152 -175 271 -91 q 111 -195 125 -195 q 101 -176 101 -195 q 116 -156 101 -165 q 137 -140 130 -146 q 205 -28 205 -78 q 198 -4 205 -8 q 164 0 190 0 q 110 20 138 0 q 82 77 82 39 q 100 132 82 115 q 160 160 132 160 q 242 118 213 160 q 271 35 271 77 z "},"-":{"ha":619,"x_min":58,"x_max":562,"o":"m 562 392 l 562 299 l 58 299 l 58 392 l 562 392 z "},".":{"ha":353,"x_min":88,"x_max":264,"o":"m 88 68 q 88 86 88 68 q 114 131 88 104 q 176 158 140 158 q 238 132 212 158 q 264 68 264 106 q 239 6 264 31 q 176 -18 213 -18 q 114 7 140 -18 q 88 68 88 32 z "},"/":{"ha":450,"x_min":3,"x_max":447,"o":"m 359 985 l 447 985 l 91 -18 l 3 -18 l 359 985 z "},":":{"ha":353,"x_min":88,"x_max":264,"o":"m 88 68 q 88 86 88 68 q 114 131 88 104 q 176 158 140 158 q 238 132 212 158 q 264 68 264 106 q 239 6 264 31 q 176 -18 213 -18 q 114 7 140 -18 q 88 68 88 32 m 88 540 q 88 558 88 540 q 114 603 88 576 q 176 630 140 630 q 238 604 212 630 q 264 541 264 578 q 239 478 264 503 q 176 454 213 454 q 114 479 140 454 q 88 540 88 504 z "},";":{"ha":353,"x_min":82,"x_max":271,"o":"m 88 540 q 88 558 88 540 q 114 603 88 576 q 176 630 140 630 q 238 604 212 630 q 264 541 264 578 q 239 478 264 503 q 176 454 213 454 q 114 479 140 454 q 88 540 88 504 m 271 35 q 152 -175 271 -91 q 111 -195 125 -195 q 101 -176 101 -195 q 116 -156 101 -165 q 137 -140 130 -146 q 205 -28 205 -78 q 198 -4 205 -8 q 164 0 190 0 q 110 20 138 0 q 82 77 82 39 q 100 132 82 115 q 160 160 132 160 q 242 118 213 160 q 271 35 271 77 z "},"<":{"ha":711,"x_min":117,"x_max":594,"o":"m 250 425 l 594 219 l 594 115 l 117 398 l 117 447 l 594 726 l 594 625 l 250 425 z "},"=":{"ha":711,"x_min":60,"x_max":650,"o":"m 650 583 l 650 496 l 60 496 l 60 583 l 650 583 m 650 352 l 650 266 l 60 266 l 60 352 l 650 352 z "},">":{"ha":711,"x_min":118,"x_max":593,"o":"m 118 625 l 118 726 l 593 445 l 593 397 l 118 115 l 118 219 l 460 425 l 118 625 z "},"?":{"ha":528,"x_min":61,"x_max":443,"o":"m 197 252 q 182 243 197 243 q 139 307 168 243 q 110 402 111 372 q 117 453 109 433 q 138 489 125 474 q 170 513 152 503 q 209 532 189 524 q 251 547 229 540 q 294 563 273 554 q 376 626 340 582 q 411 715 411 669 q 349 824 411 798 q 134 850 286 850 q 68 878 87 852 q 61 901 61 887 q 176 960 61 960 q 367 885 291 960 q 443 694 443 810 q 345 496 443 578 q 260 445 299 457 q 201 422 220 432 q 157 358 157 399 q 174 304 157 337 q 197 252 191 271 m 104 61 q 104 77 104 61 q 127 116 104 93 q 182 139 150 139 q 236 116 213 139 q 259 61 259 93 q 236 5 259 29 q 182 -18 214 -18 q 126 5 149 -18 q 104 61 104 29 z "},"@":{"ha":1350,"x_min":102,"x_max":1282,"o":"m 850 17 q 708 94 708 17 q 715 168 708 137 q 724 210 723 199 q 719 222 724 222 q 704 215 713 222 q 677 192 694 208 q 619 140 660 176 q 469 43 507 43 q 406 111 425 43 q 392 203 392 159 q 497 470 392 344 q 751 646 602 595 q 901 671 825 671 q 913 652 913 671 l 810 183 q 809 170 810 178 q 808 155 808 163 q 831 93 808 115 q 892 71 854 71 q 1031 135 965 71 q 1136 296 1097 199 q 1176 481 1176 393 q 1057 790 1176 665 q 720 924 937 916 q 432 833 561 920 q 228 606 302 747 q 153 302 153 465 q 196 79 153 181 q 315 -96 239 -22 q 494 -210 391 -169 q 705 -251 598 -251 q 1031 -153 902 -251 q 1230 117 1161 -56 l 1282 117 q 911 -262 1173 -165 q 720 -302 823 -295 q 405 -224 545 -302 q 183 -9 264 -147 q 102 302 102 130 q 183 632 102 477 q 407 881 265 788 q 720 975 549 975 q 1091 833 956 975 q 1226 499 1226 692 q 1171 251 1226 361 q 1028 79 1116 140 q 850 17 941 17 m 804 583 q 778 594 804 594 q 651 559 718 594 q 502 356 534 497 q 491 156 471 215 q 535 118 505 118 q 587 132 566 118 q 630 167 608 145 q 678 217 652 189 q 736 275 703 245 l 804 583 z "},"A":{"ha":988,"x_min":3,"x_max":985,"o":"m 361 5 q 355 0 361 0 l 9 0 q 3 5 3 0 l 3 22 q 12 27 3 27 q 138 126 105 31 l 414 927 q 415 930 415 928 l 408 953 q 410 956 408 956 l 546 956 q 550 955 547 956 q 553 951 552 954 l 840 146 q 856 113 850 127 q 869 85 861 98 q 922 43 885 58 q 979 27 954 27 q 985 21 985 27 l 985 5 q 979 0 985 0 l 564 0 q 559 5 559 0 l 559 22 q 584 28 559 27 q 625 31 609 30 q 720 95 720 41 q 718 104 720 99 l 616 393 q 613 399 615 395 q 585 422 605 422 l 344 422 q 312 400 323 422 q 310 395 310 395 l 208 97 l 208 91 q 227 59 208 73 q 338 27 268 27 l 355 27 q 361 22 361 27 l 361 5 m 562 498 q 574 508 574 498 q 571 520 574 513 l 470 798 q 460 817 463 817 q 449 798 456 817 l 354 520 q 351 506 351 513 q 361 498 351 498 l 562 498 z "},"B":{"ha":944,"x_min":7,"x_max":873,"o":"m 12 0 q 7 5 7 0 l 7 22 q 16 27 7 27 q 87 34 48 27 q 211 119 211 55 l 211 835 q 132 929 204 922 q 83 932 110 932 l 45 932 q 39 937 39 932 l 39 954 q 45 960 39 960 l 75 960 l 191 961 l 433 968 q 821 739 821 968 q 720 578 821 642 q 693 563 705 568 q 681 557 682 558 q 822 445 770 507 q 873 296 873 382 q 698 38 873 111 q 502 0 608 0 l 12 0 m 355 529 q 347 522 347 529 l 347 150 q 392 73 347 102 q 489 43 437 43 q 660 115 589 43 q 730 291 730 186 q 655 463 730 396 q 463 529 579 529 l 355 529 m 345 584 q 361 571 345 571 l 528 571 q 637 619 593 571 q 682 727 682 667 q 621 881 682 833 q 460 929 561 929 q 418 927 430 927 q 393 927 406 927 q 368 926 380 928 q 350 917 355 924 q 345 895 345 910 l 345 584 z "},"C":{"ha":1062,"x_min":71,"x_max":1010,"o":"m 912 26 q 896 23 909 20 q 865 26 882 26 q 815 19 847 26 q 713 -3 783 12 q 587 -18 644 -18 q 337 42 458 -18 q 144 215 216 103 q 71 473 71 326 q 144 740 71 621 q 463 968 250 915 q 598 985 530 985 q 819 954 691 985 q 884 934 857 944 q 917 924 911 924 l 937 929 l 958 929 q 966 918 966 929 l 966 707 q 954 700 966 700 q 940 703 942 700 q 936 710 938 706 q 931 720 934 715 q 927 728 929 724 q 924 734 924 732 q 615 939 822 939 q 323 820 429 939 q 218 506 218 701 q 334 170 218 310 q 648 29 450 29 q 846 94 757 29 q 986 252 935 158 q 994 256 987 256 l 1003 256 q 1010 248 1010 256 q 1006 232 1010 239 l 912 26 z "},"D":{"ha":1128,"x_min":31,"x_max":1067,"o":"m 31 953 q 36 958 31 958 l 51 958 l 269 963 q 354 964 308 964 l 439 964 q 616 956 557 964 q 733 935 675 947 q 855 881 790 923 q 967 779 920 839 q 1067 504 1067 652 q 990 239 1067 356 q 668 16 879 68 q 530 0 601 0 l 36 0 q 31 5 31 0 l 31 24 q 36 30 31 30 l 51 30 q 174 109 174 30 l 174 852 q 145 909 174 890 q 79 928 116 928 l 36 928 q 31 934 31 928 l 31 953 m 323 932 q 307 914 307 932 l 307 85 q 401 33 307 35 q 459 32 429 32 q 799 153 675 32 q 923 476 923 275 q 809 805 923 678 q 508 932 694 932 l 323 932 z "},"E":{"ha":857,"x_min":5,"x_max":798,"o":"m 5 5 l 5 24 q 10 30 5 30 l 25 30 q 83 32 54 32 q 138 39 113 33 q 193 121 193 56 l 193 836 q 114 921 193 903 q 68 929 92 926 l 54 929 q 49 935 49 929 l 49 951 q 54 956 49 956 l 699 956 q 717 952 711 956 q 724 932 722 947 l 736 736 q 726 729 736 729 q 711 735 715 729 q 700 785 707 742 q 677 856 694 827 q 617 892 660 884 l 334 892 q 326 883 326 892 l 326 532 q 332 526 326 526 l 567 526 q 658 631 658 526 q 663 637 658 637 l 680 637 q 685 631 685 637 l 685 341 q 680 336 685 336 l 663 336 q 658 341 658 336 q 600 457 658 441 q 565 461 583 461 l 332 461 q 326 454 326 461 l 326 124 q 372 66 326 73 q 401 64 386 64 l 627 64 q 735 126 696 64 q 769 227 763 170 q 789 246 771 246 q 798 237 798 246 l 775 9 q 766 0 771 0 l 10 0 q 5 5 5 0 z "},"F":{"ha":791,"x_min":58,"x_max":720,"o":"m 582 549 q 673 637 673 549 q 678 643 673 643 l 694 643 q 700 637 700 643 l 700 385 q 694 380 700 380 l 678 380 q 673 385 673 380 q 637 471 673 448 q 583 484 618 484 l 316 484 q 300 466 300 484 l 300 117 q 355 49 300 71 q 425 27 410 27 q 439 22 439 27 l 439 5 q 434 0 439 0 l 64 0 q 58 5 58 0 l 58 22 q 70 27 58 27 q 106 38 81 27 q 149 70 130 49 q 168 122 168 92 l 168 854 q 121 918 168 899 q 67 929 94 929 l 64 929 q 59 935 59 929 l 59 951 q 64 956 59 956 l 704 956 q 716 952 712 955 q 720 941 720 950 l 720 777 q 718 766 720 768 q 709 764 715 764 l 701 764 q 692 801 700 765 q 668 857 684 838 q 605 890 640 887 q 570 892 591 892 l 313 892 q 300 878 300 892 l 300 564 q 316 549 300 549 l 582 549 z "},"G":{"ha":1099,"x_min":78,"x_max":1065,"o":"m 1058 420 q 1065 410 1065 420 q 1058 395 1065 399 q 1020 382 1040 388 q 985 368 1001 377 q 947 302 947 348 l 947 82 q 876 42 947 67 q 760 5 804 17 q 385 16 550 -46 q 117 276 196 89 q 78 462 78 370 q 96 618 78 555 q 330 914 152 810 q 573 982 446 982 q 845 930 701 982 q 875 921 871 921 l 883 921 l 910 928 l 927 928 q 935 920 935 928 l 935 694 q 920 682 935 682 l 917 682 q 899 716 904 683 q 897 726 898 723 q 611 939 829 939 q 332 806 436 939 q 228 492 228 674 q 333 169 228 309 q 621 29 437 29 q 776 58 715 29 q 812 87 800 70 l 812 273 q 777 366 812 336 q 644 395 741 395 q 637 408 637 395 q 644 420 637 420 l 1058 420 z "},"H":{"ha":1161,"x_min":41,"x_max":1120,"o":"m 988 123 q 1115 27 988 31 q 1120 22 1120 27 l 1120 5 q 1115 0 1120 0 l 684 0 q 678 5 678 0 l 678 22 q 712 27 678 27 q 789 42 746 27 q 856 115 856 64 l 856 439 q 854 448 856 446 q 845 450 852 450 l 311 450 q 302 448 304 450 q 300 439 300 446 l 300 109 q 420 27 300 27 q 425 22 425 27 l 425 5 q 420 0 425 0 l 46 0 q 41 5 41 0 l 41 22 q 54 27 41 27 q 168 124 168 27 l 168 848 q 73 932 168 927 q 59 938 59 932 l 59 951 q 64 956 59 956 l 404 956 q 410 951 410 956 l 410 938 q 397 934 410 934 q 300 838 300 934 l 300 525 q 302 516 300 518 q 311 514 304 514 l 845 514 q 854 516 852 514 q 856 525 856 518 l 856 849 q 854 860 854 855 q 852 876 854 865 q 804 914 847 899 q 705 932 760 928 q 700 938 700 932 l 700 951 q 705 956 700 956 l 1096 956 q 1101 951 1101 956 l 1101 938 q 1088 934 1101 934 q 988 838 988 934 l 988 123 z "},"I":{"ha":474,"x_min":61,"x_max":413,"o":"m 171 848 q 77 929 171 929 q 62 935 62 929 l 62 951 q 68 956 62 956 l 408 956 q 413 951 413 956 l 413 935 q 383 929 413 929 q 328 910 353 929 q 303 832 303 891 l 303 109 q 397 27 303 27 q 412 22 412 27 l 412 5 q 406 0 412 0 l 66 0 q 61 5 61 0 l 61 22 q 91 27 61 27 q 146 46 121 27 q 171 124 171 65 l 171 848 z "},"J":{"ha":470,"x_min":-170,"x_max":409,"o":"m 409 935 q 381 929 409 929 q 326 910 353 929 q 299 832 299 890 l 299 -7 q 213 -288 299 -158 q 65 -415 154 -378 q -29 -434 20 -434 q -123 -412 -77 -434 q -170 -363 -170 -391 q -148 -318 -170 -336 q -103 -300 -126 -300 q -65 -305 -80 -300 q -39 -317 -50 -310 q -19 -333 -28 -324 q 4 -353 -11 -341 q 46 -365 20 -365 q 126 -321 98 -365 q 160 -218 153 -277 q 167 -68 167 -159 l 167 848 q 90 926 167 916 q 35 929 66 929 q 30 935 30 929 l 30 951 q 35 956 30 956 l 404 956 q 409 951 409 956 l 409 935 z "},"K":{"ha":1034,"x_min":27,"x_max":1030,"o":"m 436 5 q 431 0 436 0 l 32 0 q 27 5 27 0 l 27 18 q 56 24 27 24 q 126 46 85 25 q 168 109 168 66 l 168 848 q 33 932 168 924 q 27 938 27 932 l 27 951 q 32 956 27 956 l 431 956 q 436 951 436 956 l 436 938 q 408 934 436 934 q 346 918 380 934 q 300 846 300 896 l 300 547 q 312 488 300 488 q 386 525 341 488 q 465 601 431 562 q 535 694 500 640 q 583 768 570 748 q 634 876 634 840 q 603 924 634 912 q 545 932 583 932 l 538 932 q 532 938 532 932 l 532 951 q 538 956 532 956 l 930 956 q 935 951 935 956 l 935 938 q 927 930 935 930 q 800 907 840 927 q 736 863 760 887 q 684 791 712 840 q 511 556 597 644 q 473 510 474 519 q 528 456 476 503 q 802 132 659 336 q 942 36 855 54 q 1015 22 1000 22 q 1030 17 1030 22 l 1030 5 q 1025 0 1030 0 l 581 0 q 576 5 576 0 l 576 18 q 599 26 576 24 q 675 71 675 33 q 539 258 671 109 q 490 317 515 285 q 320 444 387 444 l 307 444 q 300 435 300 444 l 300 117 q 431 22 300 22 q 436 17 436 22 l 436 5 z "},"L":{"ha":840,"x_min":27,"x_max":836,"o":"m 33 0 q 27 5 27 0 l 27 22 q 33 27 27 27 l 49 27 q 151 52 107 27 q 180 83 168 62 q 191 131 191 104 l 191 848 q 137 913 191 890 q 56 929 99 929 l 41 929 q 36 935 36 929 l 36 951 q 41 956 36 956 l 500 956 q 506 951 506 956 l 506 935 q 500 929 506 929 l 471 929 q 348 909 401 929 q 328 891 332 904 q 323 848 323 879 l 323 96 q 336 75 325 85 q 360 64 347 64 l 628 64 q 747 136 688 64 q 785 186 762 155 q 814 222 808 218 q 836 221 836 238 q 833 213 836 217 l 731 12 q 717 0 725 0 l 33 0 z "},"M":{"ha":1308,"x_min":18,"x_max":1280,"o":"m 340 27 q 344 22 344 27 l 344 5 q 340 0 344 0 l 23 0 q 18 5 18 0 l 18 22 q 23 27 18 27 q 144 123 134 27 q 150 215 146 151 q 168 494 153 280 q 182 840 182 708 l 182 865 q 152 911 182 892 q 106 929 121 929 q 92 935 92 929 l 92 951 q 98 956 92 956 l 294 956 q 315 941 307 954 l 633 233 q 638 224 636 228 q 648 221 640 221 q 661 233 656 222 l 975 929 q 1001 956 989 956 l 1198 956 q 1204 951 1204 956 l 1204 935 q 1200 929 1204 929 q 1150 916 1180 929 q 1105 855 1105 895 l 1145 106 q 1182 49 1147 71 q 1274 27 1217 27 q 1280 22 1280 27 l 1280 5 q 1274 0 1280 0 l 889 0 q 884 5 884 0 l 884 22 q 889 27 884 27 q 1010 86 1010 27 l 975 734 q 971 741 974 741 q 966 734 968 741 l 629 5 q 613 0 626 0 q 598 5 600 0 l 266 736 q 258 746 262 746 q 254 731 254 746 q 238 437 254 700 q 222 109 222 174 l 222 81 q 298 31 230 42 q 340 27 318 27 z "},"N":{"ha":1185,"x_min":41,"x_max":1161,"o":"m 46 0 q 41 5 41 0 l 41 22 q 47 27 41 27 l 63 27 q 114 34 100 27 q 164 168 164 58 l 164 873 q 76 927 164 918 q 48 929 56 929 q 41 935 41 929 l 41 951 q 46 956 41 956 l 294 956 l 938 245 q 943 240 941 241 q 947 238 944 238 q 950 244 950 238 l 950 711 q 928 888 950 846 q 838 929 905 929 l 803 929 q 798 935 798 929 l 798 951 q 803 956 798 956 l 1156 956 q 1161 951 1161 956 l 1161 935 q 1141 929 1161 929 q 1075 906 1121 929 q 1029 849 1029 883 l 1029 20 q 1025 -2 1029 5 q 1006 -8 1021 -8 q 983 -2 991 -8 q 966 16 976 4 l 267 791 q 254 798 260 798 q 251 791 251 798 l 251 114 q 349 33 251 52 q 390 27 376 27 q 404 22 404 27 l 404 5 q 399 0 404 0 l 46 0 z "},"O":{"ha":1200,"x_min":75,"x_max":1126,"o":"m 869 58 q 741 2 810 22 q 616 -18 671 -18 q 404 18 505 -18 q 182 166 266 68 q 75 484 75 292 q 146 738 75 623 q 343 918 217 852 q 613 985 469 985 q 873 920 758 985 q 1057 743 987 856 q 1126 499 1126 631 q 1057 250 1126 368 q 869 58 989 132 m 217 506 q 217 450 217 506 q 267 282 217 393 q 410 102 317 172 q 625 32 503 32 q 895 165 798 32 q 983 471 983 285 q 876 793 983 658 q 748 898 823 859 q 595 938 672 938 q 469 921 518 938 q 380 874 420 904 q 309 804 340 845 q 258 716 279 764 q 217 506 217 618 z "},"P":{"ha":821,"x_min":27,"x_max":772,"o":"m 68 0 q 62 14 62 0 l 62 22 q 69 27 62 27 q 89 31 76 27 q 109 37 102 35 q 178 115 178 52 l 178 831 q 155 911 178 894 q 72 928 132 928 l 41 928 q 27 945 27 928 q 36 956 27 954 l 41 956 l 421 966 l 490 966 q 692 879 611 958 q 772 689 772 800 q 693 488 772 578 q 615 423 659 448 q 530 397 572 398 l 326 406 l 321 406 q 311 396 311 406 l 311 117 q 331 62 311 80 q 417 35 351 45 q 446 30 426 33 q 472 27 465 27 q 479 22 479 27 l 479 5 q 473 0 479 0 l 68 0 m 366 932 q 361 932 366 932 q 348 931 357 932 q 325 931 339 931 q 311 920 311 930 l 311 482 l 312 462 q 325 447 314 448 l 394 443 q 570 516 503 443 q 637 700 637 589 q 572 872 637 811 q 399 933 507 933 q 382 933 390 933 q 366 932 374 932 z "},"Q":{"ha":1198,"x_min":75,"x_max":1158,"o":"m 553 -15 q 356 40 446 -5 q 205 151 266 86 q 75 479 75 288 q 225 842 75 700 q 602 983 376 983 q 975 844 827 983 q 1123 486 1123 704 q 859 52 1123 227 q 807 26 853 48 q 762 0 762 3 q 804 -32 762 -3 q 984 -172 846 -60 q 1112 -247 1067 -238 q 1158 -265 1158 -256 q 1136 -286 1158 -282 q 1070 -290 1114 -290 q 901 -240 994 -290 q 681 -79 737 -132 q 582 -18 625 -25 q 553 -15 569 -16 m 314 810 q 241 673 267 751 q 216 521 216 595 q 270 277 218 387 q 416 99 322 167 q 633 32 510 32 q 885 150 785 32 q 985 460 985 269 q 887 783 985 652 q 582 938 778 926 q 314 810 418 938 z "},"R":{"ha":962,"x_min":27,"x_max":954,"o":"m 35 0 q 30 14 30 0 l 30 22 q 35 27 30 27 q 48 28 39 27 q 66 31 57 30 q 84 34 76 33 q 96 37 92 36 q 165 115 165 52 l 165 831 q 118 914 165 890 q 58 929 90 929 l 33 929 q 27 935 27 929 l 27 951 q 35 956 27 956 l 408 966 l 476 966 q 677 879 596 958 q 758 685 758 800 q 662 505 758 569 q 597 469 632 485 l 803 134 q 947 9 857 45 q 954 0 954 7 q 932 -17 954 -17 q 689 99 779 -17 q 650 157 669 125 l 474 432 l 313 439 l 307 439 q 297 430 297 439 l 297 117 q 318 62 297 80 q 391 37 339 43 q 424 31 404 35 q 451 27 444 27 q 458 22 458 27 l 458 5 q 452 0 458 0 l 35 0 m 352 931 q 348 931 352 931 q 335 930 344 930 q 311 929 326 930 q 297 918 297 929 l 297 507 l 298 487 q 311 472 300 473 l 380 468 q 610 604 571 468 q 623 701 623 646 q 556 870 623 808 q 386 932 490 932 q 368 931 376 932 q 352 931 360 931 z "},"S":{"ha":696,"x_min":61,"x_max":635,"o":"m 572 948 q 579 933 579 948 l 597 789 q 600 771 600 775 q 589 768 600 768 q 576 770 578 768 q 570 780 573 773 q 564 794 568 786 q 556 810 560 802 q 511 872 542 842 q 343 944 437 944 q 237 907 287 944 q 186 821 186 871 q 205 734 186 771 q 254 667 224 698 q 324 607 285 635 q 404 549 363 578 q 557 420 512 474 q 635 235 629 338 q 546 51 635 119 q 340 -18 458 -18 q 221 -3 265 -18 q 159 19 176 12 q 135 26 142 26 q 125 25 127 26 l 92 18 q 81 33 83 18 q 61 211 61 201 q 63 225 61 222 q 72 229 64 229 q 106 175 91 229 q 343 22 178 22 q 473 68 419 22 q 527 189 527 115 q 386 408 527 307 q 271 488 346 437 q 151 589 195 538 q 81 765 81 668 q 158 923 81 861 q 334 985 235 985 q 448 967 386 985 q 534 943 510 949 l 572 948 z "},"T":{"ha":1019,"x_min":43,"x_max":975,"o":"m 271 22 q 277 27 271 27 l 296 27 q 402 56 362 27 q 443 122 443 84 l 443 873 q 437 889 443 887 q 423 892 431 890 l 163 892 q 80 795 100 878 q 67 738 69 750 q 60 725 65 725 l 47 725 q 43 728 43 725 l 43 750 l 68 962 q 82 983 73 983 q 102 969 92 983 q 144 956 113 956 l 875 956 q 910 963 904 956 q 922 976 916 970 q 936 983 927 983 q 946 976 944 983 q 950 962 949 969 l 975 750 l 975 728 q 971 725 975 725 l 959 725 q 951 735 954 725 q 920 843 941 803 q 856 892 900 882 l 595 892 q 581 889 587 890 q 575 873 575 887 l 575 122 q 615 56 575 84 q 722 27 656 27 l 742 27 q 747 22 747 27 l 747 5 q 742 0 747 0 l 276 0 q 271 5 271 0 l 271 22 z "},"U":{"ha":1134,"x_min":24,"x_max":1118,"o":"m 389 929 q 275 838 275 929 l 275 353 q 364 133 275 218 q 592 48 453 48 q 829 126 736 48 q 922 341 922 203 l 922 772 q 910 862 922 837 q 779 929 881 929 q 773 935 773 929 l 773 951 q 779 956 773 956 l 1112 956 q 1118 951 1118 956 l 1118 935 q 1103 929 1118 929 q 994 860 1014 929 q 991 838 991 848 l 991 394 q 763 11 991 96 q 610 -18 686 -18 q 210 124 338 -18 q 143 305 143 197 l 143 848 q 73 924 143 905 q 39 929 53 929 q 24 935 24 929 l 24 951 q 29 956 24 956 l 397 956 q 402 951 402 956 l 402 935 q 389 929 402 929 z "},"V":{"ha":1021,"x_min":3,"x_max":1017,"o":"m 1017 935 q 1012 929 1017 929 l 987 929 q 860 788 901 912 q 838 725 849 755 l 571 5 q 556 -15 565 -12 q 532 -18 547 -18 l 500 -18 q 479 -3 484 -18 l 121 863 q 14 928 100 916 q 6 929 9 929 q 3 935 3 929 l 3 951 q 9 956 3 956 l 409 956 q 414 951 414 956 l 414 935 q 409 929 414 929 l 399 929 q 359 924 382 926 q 273 854 273 913 q 282 815 273 836 l 539 190 q 553 191 546 176 l 789 829 q 794 862 794 843 q 779 898 794 880 q 747 918 763 915 q 722 922 731 920 q 694 926 713 923 q 670 929 676 929 q 664 935 664 929 l 664 951 q 669 956 664 956 l 1012 956 q 1017 951 1017 956 l 1017 935 z "},"W":{"ha":1534,"x_min":-5,"x_max":1531,"o":"m 374 929 q 293 867 293 929 q 297 842 293 855 q 305 815 302 829 l 565 190 q 576 183 568 183 q 588 191 583 183 l 738 543 l 606 863 q 504 921 593 893 q 470 929 477 929 q 462 935 462 929 l 462 951 q 467 956 462 956 l 1088 956 q 1094 951 1094 956 l 1094 935 q 1088 929 1094 929 l 1063 929 q 964 865 998 929 q 941 814 953 844 l 852 608 l 1026 190 q 1037 183 1029 183 q 1049 191 1044 183 l 1336 865 q 1344 899 1344 884 q 1266 929 1344 929 l 1224 929 q 1219 935 1219 929 l 1219 951 q 1224 956 1219 956 l 1526 956 q 1531 951 1531 956 l 1531 935 q 1526 929 1531 929 l 1494 929 q 1449 908 1464 929 q 1406 824 1434 888 l 1057 5 q 1042 -15 1050 -11 q 1018 -18 1034 -18 l 986 -18 q 964 -3 970 -18 l 781 440 l 596 5 q 581 -15 589 -11 q 557 -18 572 -18 l 525 -18 q 504 -3 509 -18 l 144 863 q 77 909 134 889 q 8 929 21 929 q -5 935 -5 929 l -5 951 q 0 956 -5 956 l 387 956 q 392 951 392 956 l 392 935 q 387 929 392 929 l 374 929 m 883 897 q 825 928 883 926 q 757 887 766 925 q 754 866 754 878 q 759 842 754 855 q 766 815 763 829 l 809 711 l 875 865 q 883 897 883 884 z "},"X":{"ha":1093,"x_min":3,"x_max":1089,"o":"m 264 68 q 351 31 264 27 q 382 22 382 32 l 382 5 q 377 0 382 0 l 9 0 q 3 5 3 0 l 3 22 q 9 27 3 27 l 35 27 q 213 151 125 38 q 260 207 237 181 l 473 488 l 267 755 q 229 806 247 780 q 82 918 162 899 q 9 929 55 929 q 3 935 3 929 l 3 951 q 9 956 3 956 l 456 956 q 461 951 461 956 l 461 935 q 428 929 461 929 q 374 924 395 929 q 340 888 340 916 q 352 859 340 876 l 541 608 q 545 603 545 604 q 552 602 546 602 q 571 617 557 602 l 754 852 q 767 885 767 867 q 665 929 767 929 q 660 935 660 929 l 660 951 q 665 956 660 956 l 1029 956 q 1035 951 1035 956 l 1035 935 q 1029 929 1035 929 q 814 804 921 929 l 604 530 q 606 525 604 529 q 630 491 608 522 q 787 282 652 461 q 939 87 922 102 q 1027 36 986 43 q 1045 31 1035 32 q 1073 30 1056 31 q 1089 16 1089 28 q 1063 0 1089 0 l 689 0 q 684 5 684 0 l 684 22 q 704 28 684 28 q 778 68 778 26 q 770 92 778 78 l 531 407 q 519 414 526 414 q 508 407 513 414 l 274 98 q 264 68 264 85 z "},"Y":{"ha":1036,"x_min":3,"x_max":1032,"o":"m 357 0 q 334 14 334 0 l 334 20 q 354 34 334 31 q 380 37 374 36 q 452 62 431 42 q 473 122 473 82 l 473 347 q 471 357 473 351 l 194 799 q 65 918 129 903 q 53 921 62 919 q 14 928 44 923 q 3 943 3 930 q 13 956 3 956 l 401 956 q 412 943 412 956 q 401 929 412 929 q 340 920 355 924 q 307 876 307 907 q 315 847 307 860 l 544 481 q 553 467 551 470 q 561 464 555 464 q 578 484 566 464 l 762 795 q 780 830 770 811 q 791 868 791 848 q 723 926 791 918 q 696 934 699 930 q 694 944 694 938 q 706 956 694 956 l 1023 956 q 1032 947 1032 956 q 1029 934 1032 937 q 1021 929 1026 930 q 1010 926 1016 927 q 983 920 1004 925 q 880 845 936 909 q 873 836 874 838 l 606 375 l 606 122 q 626 64 606 85 q 696 37 647 43 q 745 21 745 31 l 745 14 q 722 0 745 0 l 357 0 z "},"Z":{"ha":990,"x_min":52,"x_max":925,"o":"m 64 0 q 52 23 52 0 q 63 58 52 46 l 697 878 q 700 887 700 882 q 686 892 700 892 l 275 892 q 183 853 218 892 q 165 824 171 840 q 152 767 159 807 q 141 724 144 727 q 129 721 138 721 q 116 725 119 721 l 126 933 q 142 956 126 956 l 878 956 q 889 935 889 956 q 880 900 889 913 l 271 111 q 263 100 269 108 q 257 86 257 92 q 288 68 257 68 l 766 68 q 832 95 799 68 q 880 169 865 123 q 900 280 895 215 q 913 290 902 290 q 925 282 925 290 l 925 250 l 911 40 q 910 26 910 33 q 891 0 910 0 l 64 0 z "},"[":{"ha":502,"x_min":139,"x_max":492,"o":"m 476 1174 l 476 1116 l 292 1116 q 243 1066 243 1116 l 243 -124 q 292 -174 243 -174 l 492 -174 l 492 -232 l 139 -232 l 139 1174 l 476 1174 z "},"\\":{"ha":451,"x_min":3,"x_max":448,"o":"m 92 985 l 4 985 l 360 -18 l 448 -18 l 92 985 z "},"]":{"ha":502,"x_min":10,"x_max":363,"o":"m 260 1066 q 211 1116 260 1116 l 25 1116 l 25 1174 l 363 1174 l 363 -232 l 10 -232 l 10 -174 l 211 -174 q 260 -124 260 -174 l 260 1066 z "},"^":{"ha":711,"x_min":52,"x_max":659,"o":"m 359 804 l 152 460 l 52 460 l 337 935 l 380 935 l 659 460 l 559 460 l 359 804 z "},"_":{"ha":688,"x_min":-11,"x_max":699,"o":"m -11 -139 l 699 -139 l 699 -217 l -11 -217 l -11 -139 z "},"`":{"ha":475,"x_min":95,"x_max":342,"o":"m 324 724 q 319 721 321 721 q 315 724 317 721 l 132 871 q 95 928 95 903 q 109 969 95 954 q 146 985 123 985 q 195 951 170 985 l 339 751 q 342 747 342 749 q 339 743 342 746 l 324 724 z "},"a":{"ha":600,"x_min":47,"x_max":583,"o":"m 467 112 q 483 84 467 94 q 522 73 500 73 q 558 84 543 73 q 578 96 572 96 q 583 81 583 96 q 570 56 583 66 q 432 -18 468 -18 q 361 72 389 -18 q 358 78 359 79 q 252 2 274 15 q 141 -8 197 -30 q 60 64 85 14 q 47 119 47 90 q 90 210 47 176 q 253 275 133 244 q 326 303 294 286 q 359 325 357 320 q 361 334 361 330 l 361 464 q 301 572 361 541 q 254 582 281 582 q 198 560 227 582 q 170 498 170 538 l 174 472 q 125 445 170 464 q 73 425 80 426 q 62 451 62 425 q 78 509 62 477 q 122 567 94 541 q 274 629 189 629 q 413 582 359 629 q 467 469 467 534 l 467 112 m 154 132 q 154 115 154 132 q 179 75 154 99 q 236 51 204 51 q 315 78 269 51 q 361 135 361 106 l 361 273 q 357 280 361 280 q 353 279 354 280 l 195 206 q 162 176 171 189 q 154 132 154 164 z "},"b":{"ha":745,"x_min":8,"x_max":671,"o":"m 213 568 q 223 547 213 547 q 309 591 233 547 q 446 629 399 629 q 535 602 492 629 q 608 530 578 574 q 671 310 671 439 q 581 81 671 180 q 344 -18 491 -18 q 168 5 248 -18 q 127 16 144 12 q 109 24 111 20 q 107 35 107 28 l 107 949 q 76 988 107 977 q 47 996 62 993 q 22 1002 31 999 q 11 1007 13 1004 q 8 1017 8 1009 q 18 1030 8 1025 l 191 1112 q 201 1116 199 1116 q 213 1099 213 1116 l 213 568 m 357 546 q 221 503 296 546 q 213 486 213 498 l 213 165 q 267 69 220 104 q 369 35 313 35 q 520 112 467 35 q 573 288 573 189 q 519 467 573 387 q 357 546 465 546 z "},"c":{"ha":633,"x_min":61,"x_max":586,"o":"m 580 547 q 525 500 580 500 q 478 516 497 500 q 448 543 458 532 q 426 564 437 554 q 307 572 377 604 q 199 439 237 541 q 178 328 178 383 q 232 133 178 208 q 398 57 286 57 q 548 132 481 57 q 572 154 568 154 q 581 150 576 154 q 586 138 586 146 q 582 126 586 130 q 321 -18 478 -18 q 134 66 207 -18 q 61 260 61 151 q 159 551 62 463 q 402 629 244 629 q 532 610 500 629 q 576 560 564 590 q 580 547 580 553 z "},"d":{"ha":739,"x_min":58,"x_max":726,"o":"m 466 601 q 481 595 466 601 q 503 590 496 590 q 511 590 509 590 q 515 599 513 591 l 515 949 q 484 988 515 977 q 455 996 471 993 q 430 1002 439 999 q 419 1007 421 1004 q 416 1017 416 1009 q 427 1030 416 1025 l 600 1112 q 610 1116 608 1116 q 621 1099 621 1116 l 621 134 q 638 91 625 104 q 682 78 652 78 l 722 81 q 726 73 726 81 q 715 60 726 65 l 535 -14 q 521 -18 527 -18 q 515 -1 515 -18 l 515 60 q 512 67 515 67 q 456 37 507 67 q 189 9 298 -57 q 72 176 102 62 q 58 290 58 230 q 82 409 58 350 q 151 513 107 469 q 381 611 246 611 q 466 601 436 611 m 160 310 q 160 258 160 310 q 217 130 160 207 q 376 53 274 53 q 468 75 420 53 q 515 109 515 97 l 515 458 q 498 489 515 471 q 354 564 444 564 q 212 488 264 564 q 160 310 160 412 z "},"e":{"ha":631,"x_min":47,"x_max":564,"o":"m 157 357 q 145 308 145 357 q 208 132 145 203 q 362 60 270 60 q 541 140 455 60 q 544 142 542 142 l 547 142 q 555 135 551 142 q 562 127 559 129 q 377 -5 484 31 q 294 -18 340 -18 q 201 7 248 -18 q 119 74 153 33 q 47 289 47 160 q 126 523 47 417 q 341 629 204 629 q 502 541 439 629 q 564 387 564 453 q 550 357 564 357 l 157 357 m 164 422 q 176 410 164 410 l 432 410 q 450 431 450 410 q 406 531 450 479 q 310 582 362 582 q 217 536 259 582 q 164 431 176 490 l 164 422 z "},"f":{"ha":423,"x_min":27,"x_max":623,"o":"m 418 11 q 406 0 418 0 l 34 0 q 27 9 27 1 q 59 26 27 22 q 132 103 132 37 l 132 514 q 124 522 132 522 l 50 522 q 35 527 42 522 q 27 540 27 532 q 35 553 27 549 q 90 572 47 560 q 132 610 132 583 l 132 632 q 238 1008 132 876 q 418 1122 297 1082 q 490 1134 454 1134 q 574 1115 526 1134 q 623 1070 623 1097 q 621 1061 623 1065 q 617 1050 619 1057 l 589 991 q 576 980 584 980 q 547 1001 574 980 q 490 1041 520 1023 q 419 1059 460 1059 q 299 1018 340 1059 q 248 926 258 977 q 238 813 238 875 l 238 616 q 245 610 238 610 l 377 610 q 402 607 396 610 q 413 582 408 603 q 418 544 418 562 q 415 524 418 527 q 401 522 412 522 l 247 522 q 238 515 238 522 l 238 117 q 406 20 238 20 q 418 11 418 18 z "},"g":{"ha":779,"x_min":47,"x_max":773,"o":"m 555 564 q 737 572 555 564 q 758 568 753 572 q 768 545 762 565 q 773 507 773 525 q 770 487 773 490 q 756 484 766 484 l 606 484 q 614 469 610 477 q 627 441 619 460 q 634 383 634 422 q 615 300 634 343 q 558 224 595 257 q 344 149 475 149 q 268 162 309 149 q 241 142 258 151 q 208 123 224 133 q 167 77 167 100 q 358 18 167 20 q 609 6 549 17 q 703 -39 669 -5 q 755 -158 755 -91 q 705 -277 755 -216 q 442 -420 619 -385 q 309 -433 379 -433 q 114 -387 180 -433 q 47 -275 47 -340 q 64 -215 47 -239 q 107 -171 81 -192 q 165 -128 134 -151 q 224 -70 196 -105 q 113 -28 159 -64 q 66 42 66 7 q 85 93 66 77 q 130 122 103 110 q 185 144 156 134 q 236 170 214 154 q 119 253 160 200 q 77 368 77 305 q 162 557 77 484 q 366 630 246 630 q 555 564 485 630 m 187 -144 q 179 -152 187 -144 q 161 -177 171 -159 q 151 -221 151 -195 q 170 -278 151 -248 q 222 -331 189 -307 q 399 -385 296 -385 q 586 -325 502 -385 q 669 -194 669 -265 q 600 -98 669 -122 q 433 -84 568 -87 q 258 -77 298 -81 q 221 -113 240 -97 q 187 -144 203 -128 m 523 383 q 523 431 523 383 q 475 539 523 479 q 349 599 427 599 q 205 503 247 599 q 189 419 189 467 q 229 258 189 322 q 357 180 277 180 q 479 234 436 180 q 523 383 523 288 z "},"h":{"ha":762,"x_min":20,"x_max":742,"o":"m 231 525 q 236 509 231 509 q 243 511 241 509 q 271 543 245 513 q 427 628 348 628 q 578 582 530 628 q 637 386 637 524 l 637 103 q 710 26 637 37 q 742 12 742 22 q 735 0 742 1 l 433 0 q 426 9 426 1 q 458 26 426 22 q 531 103 531 37 l 531 379 q 517 509 531 479 q 404 568 490 568 q 291 523 351 568 q 231 424 231 478 l 231 103 q 304 26 231 37 q 336 12 336 22 q 330 0 336 1 l 27 0 q 20 9 20 1 q 52 26 20 22 q 125 103 125 37 l 125 949 q 94 988 125 977 q 65 996 81 993 q 40 1002 50 999 q 29 1007 31 1004 q 26 1017 26 1009 q 37 1030 26 1025 l 210 1112 q 220 1116 218 1116 q 231 1099 231 1116 l 231 525 z "},"i":{"ha":391,"x_min":41,"x_max":357,"o":"m 47 0 q 41 9 41 1 q 73 26 41 22 q 146 103 146 37 l 146 462 q 115 501 146 490 q 85 509 101 506 q 61 515 70 512 q 49 520 52 517 q 47 530 47 522 q 57 543 47 538 l 230 625 q 240 629 238 629 q 252 612 252 629 l 252 103 q 325 26 252 37 q 357 12 357 22 q 350 0 357 1 l 47 0 m 189 819 q 175 819 189 819 q 139 837 161 819 q 118 886 118 854 q 138 936 118 918 q 187 954 159 954 q 234 932 215 954 q 254 886 254 911 q 235 840 254 861 q 189 819 217 819 z "},"j":{"ha":391,"x_min":-168,"x_max":252,"o":"m 74 -368 q 146 -215 146 -351 l 146 462 q 115 501 146 490 q 85 509 101 506 q 61 515 70 512 q 49 520 52 517 q 47 530 47 522 q 57 543 47 538 l 230 625 q 240 629 238 629 q 252 612 252 629 l 252 -86 q 207 -283 252 -195 q 170 -339 191 -314 q 12 -430 110 -419 q -57 -434 -20 -434 q -129 -407 -93 -434 q -168 -347 -165 -379 q -132 -293 -168 -311 q -111 -288 -120 -288 q -18 -347 -96 -288 q 74 -368 10 -368 m 180 819 q 166 819 180 819 q 130 837 152 819 q 109 886 109 854 q 129 936 109 918 q 178 954 149 954 q 225 932 206 954 q 245 886 245 911 q 227 840 245 861 q 180 819 208 819 z "},"k":{"ha":743,"x_min":30,"x_max":736,"o":"m 249 325 q 241 292 241 325 l 241 103 q 314 26 241 37 q 346 11 346 22 q 339 0 346 0 l 37 0 q 30 9 30 1 q 62 26 30 22 q 135 103 135 37 l 135 949 q 104 988 135 977 q 75 996 90 993 q 50 1002 59 999 q 38 1007 41 1004 q 36 1017 36 1009 q 46 1030 36 1025 l 219 1112 q 229 1116 227 1116 q 241 1099 241 1116 l 241 422 q 255 399 246 403 q 274 396 264 396 q 339 427 294 396 q 420 496 384 458 q 457 549 457 534 q 444 567 457 564 q 415 573 431 571 q 387 578 399 574 q 374 596 374 582 q 401 610 374 610 l 660 610 q 684 595 684 610 q 668 582 684 587 q 608 567 652 577 q 536 536 563 557 l 342 385 q 355 363 342 376 l 633 69 q 689 33 661 41 q 727 22 718 24 q 736 12 736 19 q 726 0 736 0 l 428 0 q 421 8 421 0 q 438 24 421 20 q 489 58 489 33 q 479 78 489 66 q 460 102 469 90 l 250 323 q 250 325 250 324 l 249 325 z "},"l":{"ha":353,"x_min":14,"x_max":330,"o":"m 298 26 q 330 9 330 22 q 323 0 330 1 l 20 0 q 14 9 14 1 q 45 26 14 22 q 119 103 119 37 l 119 949 q 87 988 119 977 q 58 996 74 993 q 34 1002 43 999 q 22 1007 24 1004 q 20 1017 20 1009 q 30 1030 20 1025 l 203 1112 q 213 1116 211 1116 q 224 1099 224 1116 l 224 103 q 298 26 224 37 z "},"m":{"ha":1175,"x_min":28,"x_max":1172,"o":"m 941 214 l 940 357 q 925 479 940 444 q 887 533 910 515 q 825 551 864 551 q 660 490 786 551 q 642 471 643 479 l 642 106 q 715 27 642 37 q 747 12 747 22 q 741 0 747 1 l 438 0 q 431 9 431 1 q 463 27 431 22 q 536 106 536 37 l 536 444 q 405 550 536 550 q 271 493 357 550 q 239 467 250 479 l 239 106 q 313 27 239 37 q 345 12 345 22 q 338 0 345 1 l 35 0 q 28 9 28 1 q 60 27 28 22 q 134 104 134 37 l 134 495 q 102 534 134 524 q 73 542 89 539 q 48 548 58 545 q 37 553 39 551 q 35 563 35 555 q 45 576 35 571 l 218 658 q 228 662 226 662 q 239 646 239 662 l 239 533 q 244 529 240 529 q 267 538 249 529 q 314 565 285 548 q 391 606 343 583 q 492 629 439 629 q 616 555 578 629 q 642 529 630 525 q 677 546 653 534 q 794 602 735 574 q 892 629 853 629 q 1048 343 1048 629 l 1042 145 l 1042 106 q 1095 37 1042 53 q 1138 26 1118 29 q 1165 20 1159 23 q 1172 9 1172 18 q 1165 0 1172 1 l 838 0 q 831 9 831 1 q 863 27 831 22 q 936 111 936 37 q 941 214 941 145 z "},"n":{"ha":789,"x_min":35,"x_max":776,"o":"m 545 214 l 544 357 q 529 479 544 444 q 491 533 514 515 q 429 551 468 551 q 264 490 390 551 q 246 471 247 479 l 246 106 q 319 27 246 37 q 351 12 351 22 q 345 0 351 1 l 42 0 q 35 9 35 1 q 67 27 35 22 q 140 106 140 37 l 140 495 q 109 534 140 524 q 80 542 96 539 q 55 548 64 545 q 44 553 46 551 q 41 563 41 555 q 52 576 41 571 l 224 658 q 235 662 233 662 q 246 646 246 662 l 246 540 q 252 533 248 533 q 281 545 256 533 q 398 602 339 574 q 496 629 457 629 q 652 343 652 629 l 646 145 l 646 106 q 699 37 646 53 q 742 26 722 29 q 769 20 763 23 q 776 9 776 18 q 769 0 776 1 l 442 0 q 435 9 435 1 q 467 27 435 22 q 540 111 540 37 q 545 214 545 145 z "},"o":{"ha":751,"x_min":51,"x_max":700,"o":"m 51 305 q 51 371 51 305 q 145 534 51 438 q 372 630 240 630 q 602 537 505 630 q 700 307 700 444 q 607 76 700 170 q 375 -18 515 -18 q 143 77 235 -18 q 51 305 51 172 m 220 130 q 401 18 286 18 q 537 90 490 18 q 584 264 584 161 q 518 477 584 368 q 340 587 452 587 q 211 516 258 587 q 163 336 163 445 q 220 130 163 227 z "},"p":{"ha":739,"x_min":8,"x_max":665,"o":"m 558 71 q 348 -18 465 -18 q 233 -3 306 -18 q 221 -11 222 -3 q 219 -28 220 -19 l 219 -317 q 278 -385 219 -368 q 326 -395 304 -392 q 355 -401 349 -398 q 361 -411 361 -404 q 355 -420 361 -419 l 15 -420 q 8 -411 8 -419 q 40 -395 8 -399 q 113 -317 113 -384 l 113 496 q 82 535 113 524 q 53 543 68 540 q 28 549 37 546 q 17 554 19 551 q 14 564 14 556 q 24 577 14 572 l 197 660 q 208 663 203 663 q 219 646 219 663 l 219 560 q 227 553 219 553 q 264 572 235 553 q 444 628 351 628 q 563 575 509 628 q 658 382 634 506 q 665 308 665 347 q 652 224 665 268 q 558 71 626 136 m 364 557 q 219 505 272 557 l 219 123 q 231 79 219 90 q 322 39 260 54 q 512 98 444 12 q 560 247 560 159 q 484 502 560 417 q 364 557 437 553 z "},"q":{"ha":743,"x_min":68,"x_max":738,"o":"m 629 634 q 633 630 633 634 l 633 -317 q 706 -395 633 -384 q 738 -409 738 -399 q 731 -420 738 -419 l 368 -420 q 361 -411 361 -419 q 367 -401 361 -404 q 388 -396 374 -398 q 419 -392 401 -395 q 527 -317 527 -376 l 527 68 q 524 72 527 72 q 473 44 521 72 q 386 -1 425 16 q 304 -18 347 -18 q 177 30 229 -18 q 96 150 125 78 q 68 290 68 222 q 163 529 68 429 q 394 629 259 629 q 557 585 477 629 l 562 585 q 590 602 575 585 q 611 626 605 618 q 622 634 618 634 l 629 634 m 170 301 q 170 243 170 301 q 234 121 170 185 q 367 57 298 57 q 495 92 435 57 q 527 117 513 103 l 527 425 q 481 548 527 507 q 379 589 435 589 q 225 504 280 589 q 170 301 170 418 z "},"r":{"ha":507,"x_min":35,"x_max":507,"o":"m 460 486 q 436 495 452 488 q 348 521 380 521 q 281 481 316 521 q 246 410 246 441 l 246 103 q 305 35 246 52 q 353 25 331 28 q 382 20 376 22 q 389 9 389 17 q 382 0 389 1 l 42 0 q 35 9 35 1 q 67 26 35 22 q 140 103 140 37 l 140 462 q 109 501 140 490 q 80 509 96 506 q 55 515 64 512 q 44 520 46 517 q 41 530 41 522 q 52 543 41 538 l 224 625 q 235 629 233 629 q 246 612 246 629 l 246 503 q 250 494 246 494 q 278 526 256 494 q 385 616 342 616 q 457 597 408 616 q 507 566 507 578 q 491 518 507 550 q 460 486 475 486 z "},"s":{"ha":465,"x_min":44,"x_max":414,"o":"m 376 464 q 365 449 376 449 q 348 465 354 449 q 299 545 332 510 q 220 579 267 579 q 136 517 157 579 q 129 473 129 496 q 157 424 129 451 q 251 358 186 396 q 346 294 316 320 q 414 154 414 233 q 355 28 414 75 q 220 -18 297 -18 q 145 -7 178 -18 q 106 4 111 4 q 90 -7 101 4 q 72 -18 79 -18 l 60 -18 q 50 55 56 -18 q 44 142 44 128 q 46 157 44 155 q 54 158 49 158 q 63 155 60 158 q 70 146 67 151 q 74 136 73 141 q 83 115 76 130 q 225 17 129 17 q 294 48 268 17 q 319 119 319 80 q 299 184 319 157 q 249 232 279 210 q 183 274 218 254 q 46 451 46 354 q 109 576 46 524 q 237 629 171 629 q 334 614 302 629 q 371 590 366 600 q 376 526 376 581 l 376 464 z "},"t":{"ha":439,"x_min":31,"x_max":422,"o":"m 212 522 q 208 515 208 522 l 208 141 q 226 77 208 100 q 272 54 244 54 q 320 63 300 54 q 356 83 341 73 q 384 103 372 94 q 406 113 396 113 q 415 108 415 113 q 412 87 415 92 q 255 -18 330 -18 q 141 30 179 -18 q 102 144 102 77 l 102 522 l 52 522 q 32 534 33 522 q 35 549 31 546 q 134 632 71 572 q 153 654 141 640 q 186 695 164 669 q 220 721 208 721 q 231 711 231 721 q 208 623 231 710 q 219 610 208 610 l 392 610 q 422 526 422 610 q 416 522 422 522 l 212 522 z "},"u":{"ha":762,"x_min":27,"x_max":722,"o":"m 511 60 q 503 67 508 71 q 458 44 497 64 q 247 -19 332 -19 q 125 35 162 -19 q 111 85 111 56 l 111 499 q 94 533 109 519 q 50 552 73 551 q 27 566 27 553 q 38 581 27 578 l 193 626 q 209 629 201 629 q 217 617 217 629 l 217 162 q 259 89 217 115 q 367 63 301 63 q 484 103 432 63 q 511 132 500 116 l 511 499 q 494 533 509 519 q 450 552 473 551 q 427 566 427 553 q 438 581 427 578 l 593 626 q 609 629 602 629 q 617 615 617 629 l 617 134 q 634 91 621 104 q 678 78 648 78 l 718 81 q 722 73 722 81 q 711 60 722 65 l 531 -14 q 517 -18 523 -18 q 511 -1 511 -18 l 511 60 z "},"v":{"ha":703,"x_min":0,"x_max":696,"o":"m 688 610 q 696 601 696 608 q 694 590 696 593 q 664 583 692 587 q 624 567 636 578 q 603 540 612 555 q 587 509 594 525 q 574 480 581 493 l 389 1 q 374 -18 381 -18 l 321 -18 q 306 3 314 -18 l 126 489 q 40 577 101 557 q 28 579 35 578 q 0 596 0 582 q 16 610 0 610 l 318 610 q 323 600 323 610 q 316 586 323 589 q 273 582 304 581 q 222 541 222 583 l 226 525 l 363 149 q 391 151 377 114 q 408 195 392 154 q 511 465 500 429 q 522 520 522 502 q 503 558 522 538 q 450 578 483 578 q 416 599 416 578 q 431 610 416 610 l 688 610 z "},"w":{"ha":1114,"x_min":5,"x_max":1093,"o":"m 1086 610 q 1093 601 1093 608 q 1091 590 1093 593 q 1061 583 1089 587 q 1022 567 1034 578 q 1001 540 1010 555 q 985 509 991 525 q 972 480 978 493 l 787 1 q 772 -18 779 -18 l 718 -18 q 703 3 711 -18 l 553 410 l 395 1 q 380 -18 387 -18 l 326 -18 q 311 3 319 -18 l 132 489 q 45 577 106 557 q 34 579 41 578 q 5 596 5 582 q 22 610 5 610 l 323 610 q 329 600 329 610 q 321 586 329 589 q 279 582 309 581 q 230 541 230 583 l 231 525 l 369 149 q 396 151 382 114 q 453 293 397 154 q 524 489 508 432 q 437 577 498 557 q 426 579 433 578 q 397 596 397 582 q 414 610 397 610 l 715 610 q 721 600 721 610 q 713 586 721 589 q 671 582 701 581 q 622 541 622 583 l 623 525 l 761 149 q 788 151 774 114 q 806 195 789 154 q 904 453 889 404 q 920 520 920 502 q 900 558 920 538 q 847 578 880 578 q 814 599 814 578 q 829 610 814 610 l 1086 610 z "},"x":{"ha":690,"x_min":12,"x_max":673,"o":"m 625 610 q 630 600 630 610 q 625 586 630 589 q 541 538 572 572 q 516 510 530 526 l 385 353 q 382 344 382 348 q 441 264 382 336 q 604 62 500 193 q 634 43 612 52 q 665 27 656 33 q 673 12 673 22 q 665 0 673 3 l 397 0 q 391 11 391 0 q 402 23 391 22 q 427 27 413 25 q 463 56 463 33 q 446 90 463 71 l 330 237 q 321 248 324 244 q 309 252 318 252 q 295 245 300 252 q 285 233 290 238 l 178 104 q 164 66 164 88 q 192 32 164 45 q 242 20 220 20 q 247 9 247 20 q 242 0 247 0 l 24 0 q 14 12 14 0 q 51 39 14 22 q 97 66 89 57 l 285 292 q 282 296 284 294 q 275 305 281 298 q 256 329 269 313 q 188 413 243 345 q 71 557 132 481 q 37 577 63 566 q 12 597 12 588 q 28 610 13 610 l 280 610 q 285 602 286 610 q 275 591 285 593 q 252 585 264 589 q 220 551 220 575 q 226 530 220 536 l 331 399 q 342 386 336 393 q 352 379 348 379 q 362 386 357 379 l 462 502 q 479 541 479 522 q 468 569 479 561 q 444 580 457 576 q 420 587 431 584 q 409 601 409 591 q 416 610 409 610 l 625 610 z "},"y":{"ha":734,"x_min":-17,"x_max":717,"o":"m 709 610 q 717 601 717 608 q 715 591 717 593 q 709 587 714 589 q 695 584 704 585 q 666 579 686 583 q 631 551 646 575 q 597 486 615 528 l 279 -304 l 235 -398 q 163 -434 218 -434 q 125 -418 140 -434 q 111 -381 111 -403 q 122 -350 111 -360 q 146 -334 132 -340 q 176 -323 161 -328 q 210 -300 191 -318 q 233 -273 229 -282 q 347 -7 347 -18 q 333 22 347 5 l 109 489 q 23 577 84 557 q 12 579 18 578 q -17 596 -17 582 q -1 610 -17 610 l 301 610 q 307 600 307 610 q 297 586 307 589 q 255 582 288 582 q 203 541 203 582 l 209 525 l 385 149 q 412 151 398 114 q 429 195 413 154 q 532 465 521 429 q 543 520 543 502 q 524 559 543 538 q 471 579 505 579 q 437 599 437 579 q 452 610 437 610 l 709 610 z "},"z":{"ha":621,"x_min":42,"x_max":604,"o":"m 216 86 q 211 79 213 82 q 208 70 208 75 q 212 65 208 65 l 473 65 q 548 119 516 65 q 578 164 570 156 q 595 172 586 172 q 604 164 604 172 l 554 31 q 549 14 553 28 q 535 0 545 0 l 57 0 q 42 14 42 0 q 46 31 42 23 l 387 498 q 399 515 394 508 q 405 530 404 522 q 315 538 406 538 l 176 538 q 98 469 121 538 q 84 426 92 451 q 65 400 77 400 q 58 403 58 400 l 97 629 q 108 637 99 637 q 125 624 117 637 q 145 608 134 610 q 284 602 196 602 q 570 606 372 602 q 576 589 576 604 q 566 566 576 574 l 216 86 z "},"{":{"ha":718,"x_min":140,"x_max":576,"o":"m 568 -193 q 576 -217 576 -193 q 568 -241 576 -241 l 545 -241 q 323 -186 419 -241 q 210 5 210 -122 q 228 131 210 60 q 255 237 246 201 q 264 304 264 273 q 159 450 264 443 q 140 473 140 455 q 159 505 140 505 q 264 616 264 505 q 255 692 264 655 q 228 802 246 730 q 210 929 210 875 q 299 1097 210 1030 q 551 1164 388 1164 q 576 1143 576 1164 q 558 1116 576 1116 q 343 1006 393 1116 q 329 914 329 975 q 341 775 329 853 q 354 655 354 698 q 340 581 354 612 q 311 536 326 551 q 291 515 300 524 q 271 496 281 506 q 261 476 261 486 q 281 446 261 466 q 311 415 301 426 q 354 312 354 363 q 341 178 354 261 q 329 28 329 94 q 450 -167 329 -119 q 568 -193 517 -193 z "},"|":{"ha":292,"x_min":102,"x_max":191,"o":"m 102 1116 l 191 1116 l 191 -24 l 102 -24 l 102 1116 z "},"}":{"ha":721,"x_min":141,"x_max":578,"o":"m 558 505 q 578 473 578 505 q 558 450 578 455 q 454 307 454 443 q 463 237 454 273 q 490 130 471 201 q 508 7 508 58 q 457 -136 508 -82 q 331 -216 407 -190 q 173 -241 255 -241 l 151 -241 q 141 -217 141 -241 q 150 -193 141 -193 q 248 -174 200 -193 q 324 -133 296 -155 q 389 7 389 -79 q 376 178 389 94 q 363 289 363 262 q 402 410 363 365 q 436 446 416 426 q 456 476 456 466 q 446 496 456 486 q 427 515 436 506 q 407 536 418 524 q 378 581 392 551 q 363 654 363 612 q 376 775 363 696 q 389 915 389 854 q 374 1006 389 975 q 159 1116 325 1116 q 141 1143 141 1116 q 166 1164 141 1164 q 325 1144 268 1164 q 420 1096 381 1125 q 508 928 508 1030 q 490 802 508 873 q 463 692 471 730 q 454 616 454 655 q 476 548 454 576 q 558 505 498 519 z "},"~":{"ha":711,"x_min":61,"x_max":650,"o":"m 650 530 q 605 374 650 432 q 498 316 561 316 q 434 330 463 316 q 351 380 404 345 q 226 441 262 441 q 142 319 144 441 l 61 319 q 105 475 61 417 q 212 532 149 532 q 290 519 254 532 q 399 454 326 507 q 420 439 409 448 q 496 408 466 408 q 548 437 526 408 q 570 530 570 467 l 650 530 z "},"":{"ha":373,"x_min":0,"x_max":0,"o":""},"":{"ha":332,"x_min":88,"x_max":243,"o":"m 88 546 q 111 491 88 513 q 165 468 134 468 q 220 492 197 468 q 243 549 243 517 q 222 604 243 581 q 167 627 200 627 q 111 604 134 627 q 88 546 88 581 m 190 -404 q 218 -404 203 -404 q 235 -393 232 -403 l 235 -358 l 185 294 q 165 321 182 321 q 144 294 147 321 l 94 -358 l 94 -393 q 104 -403 94 -403 l 165 -404 l 190 -404 z "},"":{"ha":633,"x_min":60,"x_max":586,"o":"m 268 96 q 400 57 319 57 q 548 132 481 57 q 572 154 568 154 q 581 150 576 154 q 586 138 586 146 q 582 126 586 130 q 321 -18 478 -18 q 233 -3 273 -18 l 147 -243 l 60 -243 l 160 40 q 62 289 61 126 q 143 535 62 451 q 368 628 224 619 l 415 760 l 503 760 l 456 628 q 576 560 549 621 q 580 547 580 553 q 525 500 580 500 q 480 514 498 500 q 452 538 463 528 q 432 558 442 549 l 268 96 m 178 321 q 208 173 178 237 l 353 584 q 298 562 322 578 q 178 321 178 494 z "},"":{"ha":711,"x_min":79,"x_max":687,"o":"m 380 153 q 544 70 463 70 q 631 123 593 70 q 653 161 646 143 q 660 184 660 180 l 687 184 q 643 58 683 115 q 487 -18 588 -18 q 385 26 437 -18 q 353 58 365 43 q 338 73 340 73 q 241 -9 300 15 q 198 -18 220 -18 l 193 -18 q 85 47 109 -18 q 79 91 79 67 q 121 177 79 142 q 219 212 163 212 q 315 187 275 212 q 323 183 321 183 q 326 234 326 198 q 263 422 326 298 l 120 422 q 104 433 104 422 l 104 450 q 120 461 104 461 l 243 461 q 182 607 192 561 q 172 696 172 654 q 191 784 172 738 q 242 863 210 829 q 406 935 311 935 q 574 889 501 935 q 648 778 648 842 q 625 735 648 748 q 606 730 618 730 q 584 736 594 730 q 566 753 574 743 q 552 775 558 763 q 534 807 545 788 q 411 899 481 899 q 297 861 340 899 q 254 773 254 823 q 265 682 254 723 q 294 604 277 641 q 331 532 311 567 q 368 461 351 498 l 496 461 q 512 450 512 461 l 512 433 q 496 422 512 422 l 383 422 q 404 294 404 368 q 380 153 404 221 m 306 112 q 197 174 258 174 q 137 148 163 174 q 112 80 112 121 q 155 19 112 39 q 199 12 169 12 q 261 46 230 12 q 306 112 293 81 z "},"":{"ha":711,"x_min":35,"x_max":676,"o":"m 507 274 q 358 224 441 224 q 208 277 276 224 l 77 148 l 35 190 l 167 321 q 123 464 123 383 q 174 607 123 544 l 41 741 l 84 784 l 218 650 q 361 699 282 699 q 501 653 439 699 l 633 785 l 675 743 l 543 610 q 600 464 600 544 q 549 316 600 385 l 676 189 l 634 146 l 507 274 m 189 462 q 189 427 189 462 q 239 341 189 392 q 360 290 289 290 q 482 340 431 290 q 533 463 533 391 q 482 584 533 534 q 360 633 431 633 q 239 583 288 633 q 189 462 189 532 z "},"":{"ha":1064,"x_min":3,"x_max":1032,"o":"m 212 363 q 188 380 188 363 l 188 404 q 212 421 188 421 l 431 421 l 194 799 q 65 918 129 903 q 53 921 62 919 q 14 928 44 923 q 3 943 3 930 q 13 956 3 956 l 401 956 q 412 943 412 956 q 401 929 412 929 q 340 920 355 924 q 307 876 307 907 q 315 847 307 860 l 544 481 q 553 467 551 470 q 561 464 555 464 q 578 484 566 464 l 762 795 q 780 830 770 811 q 791 868 791 848 q 723 926 791 918 q 696 934 699 930 q 694 944 694 938 q 706 956 694 956 l 1023 956 q 1032 947 1032 956 q 1029 934 1032 937 q 1021 929 1026 930 q 1010 926 1016 927 q 983 920 1004 925 q 880 845 936 909 q 873 836 874 838 l 632 421 l 867 421 q 890 404 890 421 l 890 380 q 867 363 890 363 l 606 363 l 606 258 l 867 258 q 890 241 890 258 l 890 216 q 867 199 890 199 l 606 199 l 606 122 q 626 64 606 85 q 696 37 647 43 q 745 21 745 31 l 745 14 q 722 0 745 0 l 357 0 q 334 14 334 0 l 334 20 q 354 34 334 31 q 380 37 374 36 q 452 62 431 42 q 473 122 473 82 l 473 199 l 212 199 q 188 216 188 199 l 188 241 q 212 258 188 258 l 473 258 l 473 347 q 467 363 473 354 l 212 363 z "},"":{"ha":534,"x_min":229,"x_max":311,"o":"m 311 1116 l 311 607 l 229 607 l 229 1116 l 311 1116 m 311 486 l 311 -24 l 229 -24 l 229 486 l 311 486 z "},"":{"ha":755,"x_min":61,"x_max":667,"o":"m 647 970 q 576 919 647 919 q 542 936 560 919 q 502 975 524 954 q 390 1030 444 1030 q 295 1000 336 1030 q 260 974 280 989 q 233 898 233 928 q 252 825 233 868 q 294 751 271 782 q 354 661 317 710 q 433 556 391 612 q 591 305 538 414 q 667 11 667 149 q 576 -240 667 -127 q 404 -361 511 -321 q 282 -387 350 -382 q 152 -354 223 -387 q 81 -277 81 -321 q 152 -226 81 -226 q 187 -243 169 -226 q 227 -281 205 -260 q 339 -337 286 -337 q 444 -300 391 -337 q 496 -209 496 -264 q 439 -69 496 -154 q 336 82 383 16 q 247 208 288 148 q 106 450 152 342 q 61 682 61 557 q 156 934 61 808 q 323 1060 221 1021 q 414 1080 375 1080 q 610 1025 531 1080 q 647 970 647 1001 m 550 -188 q 602 11 602 -112 q 554 231 602 134 q 451 408 507 328 q 336 572 396 487 q 249 711 277 657 q 178 881 200 780 q 123 672 123 782 q 147 537 123 599 q 218 378 162 471 q 361 159 273 286 q 469 0 449 33 q 549 -188 526 -92 l 550 -188 z "},"":{"ha":475,"x_min":22,"x_max":452,"o":"m 452 841 q 404 760 452 781 q 365 754 389 754 q 316 777 340 754 q 293 832 293 799 q 316 889 293 866 q 373 913 340 913 q 429 890 406 913 q 452 841 452 867 m 102 754 q 45 777 68 754 q 22 832 22 800 q 45 889 22 865 q 102 913 68 913 q 158 889 136 913 q 181 832 181 865 q 158 777 181 800 q 102 754 136 754 z "},"":{"ha":1164,"x_min":61,"x_max":1093,"o":"m 61 490 q 131 749 61 631 q 318 937 200 867 q 577 1006 437 1006 q 836 937 718 1006 q 1024 749 954 867 q 1093 490 1093 631 q 1024 232 1093 350 q 836 44 954 113 q 577 -26 718 -26 q 318 44 437 -26 q 131 232 200 113 q 61 490 61 350 m 142 610 q 126 491 126 553 q 187 265 126 369 q 352 100 248 161 q 576 40 456 40 q 895 172 763 40 q 1011 371 979 256 q 1027 491 1027 429 q 967 715 1027 612 q 803 880 907 819 q 576 941 699 941 q 349 880 456 941 q 142 610 193 789 m 792 205 q 783 203 791 201 q 762 205 774 205 q 729 201 750 205 q 663 186 708 196 q 568 176 618 176 q 456 198 519 176 q 346 263 393 221 q 243 498 243 353 q 343 738 243 643 q 591 832 444 832 q 706 818 650 832 q 776 798 762 804 q 795 792 790 792 l 809 795 l 823 795 q 828 788 828 795 l 828 650 q 820 646 828 646 q 809 652 812 646 q 800 669 805 658 q 604 802 732 802 q 407 723 475 802 q 339 517 339 645 q 415 298 339 390 q 622 207 490 207 q 841 353 753 207 q 846 355 842 355 l 852 355 q 857 350 857 355 q 854 340 857 345 l 792 205 z "},"":{"ha":401,"x_min":29,"x_max":397,"o":"m 317 492 q 328 472 317 480 q 354 465 339 465 q 379 473 369 465 q 393 481 389 481 q 397 471 397 481 q 387 454 397 461 q 293 402 318 402 q 245 464 263 402 q 242 469 243 469 q 170 416 185 425 q 93 409 132 395 q 38 459 55 424 q 29 496 29 476 q 58 559 29 536 q 170 604 88 582 q 220 623 198 611 q 243 638 242 634 q 244 644 244 641 l 244 733 q 203 807 244 786 q 171 814 190 814 q 133 799 152 814 q 113 757 113 784 l 116 739 q 82 720 113 733 q 47 706 52 707 q 39 724 39 706 q 50 764 39 742 q 80 804 61 786 q 185 846 126 846 q 280 814 243 846 q 317 737 317 781 l 317 492 m 102 505 q 102 494 102 505 q 119 466 102 483 q 159 450 137 450 q 212 469 181 450 q 244 508 244 488 l 244 602 q 242 607 244 607 q 239 607 239 607 l 131 556 q 108 536 114 544 q 102 505 102 528 z "},"":{"ha":536,"x_min":46,"x_max":462,"o":"m 269 629 l 142 374 l 271 121 l 237 121 l 46 374 l 237 629 l 269 629 m 460 629 l 333 374 l 462 121 l 429 121 l 237 374 l 429 629 l 460 629 z "},"":{"ha":711,"x_min":60,"x_max":646,"o":"m 646 467 l 646 123 l 559 123 l 559 381 l 60 381 l 60 467 l 646 467 z "},"":{"ha":619,"x_min":58,"x_max":562,"o":"m 562 392 l 562 299 l 58 299 l 58 392 l 562 392 z "},"":{"ha":1154,"x_min":61,"x_max":1093,"o":"m 61 490 q 131 749 61 631 q 318 937 200 867 q 577 1006 437 1006 q 836 937 718 1006 q 1024 749 954 867 q 1093 490 1093 631 q 1024 232 1093 350 q 836 44 954 113 q 577 -26 718 -26 q 318 44 437 -26 q 131 232 200 113 q 61 490 61 350 m 142 610 q 126 491 126 553 q 187 265 126 369 q 352 100 248 161 q 576 40 456 40 q 895 172 763 40 q 1011 371 979 256 q 1027 491 1027 429 q 967 715 1027 612 q 803 880 907 819 q 576 941 699 941 q 349 880 456 941 q 142 610 193 789 m 309 217 q 305 225 305 217 l 305 230 q 309 233 305 233 l 345 239 q 387 286 387 248 l 387 716 q 358 766 387 750 q 323 774 342 774 l 307 774 q 304 778 304 774 l 304 787 q 309 791 304 791 l 532 797 l 573 797 q 694 744 646 791 q 743 627 743 697 q 646 498 743 543 l 769 297 q 856 222 801 244 q 860 217 860 221 q 846 207 860 207 q 701 277 755 207 q 677 311 689 292 l 572 476 l 475 481 l 472 481 q 466 475 466 481 l 466 288 q 496 244 466 255 q 522 239 507 241 l 559 233 q 562 230 562 233 l 562 220 q 559 217 562 217 l 309 217 m 466 522 q 474 500 467 500 l 516 498 q 654 579 630 498 q 661 637 661 605 q 622 739 661 702 q 519 776 582 776 l 509 776 l 488 775 q 466 768 466 775 l 466 522 z "},"":{"ha":474,"x_min":18,"x_max":456,"o":"m 18 897 l 456 897 l 456 809 l 18 809 l 18 897 z "},"":{"ha":711,"x_min":200,"x_max":511,"o":"m 250 779 q 281 704 250 735 q 355 673 312 673 q 430 704 399 673 q 461 779 461 735 q 430 853 461 822 q 355 884 399 884 q 280 853 311 884 q 250 779 250 822 m 200 780 q 245 890 200 844 q 355 935 291 935 q 465 890 420 935 q 511 780 511 844 q 466 670 511 716 q 355 624 420 624 q 245 670 290 624 q 200 780 200 716 z "},"":{"ha":711,"x_min":60,"x_max":651,"o":"m 60 467 l 311 467 l 311 716 l 403 716 l 403 467 l 651 467 l 651 381 l 403 381 l 403 125 l 311 125 l 311 381 l 60 381 l 60 467 m 60 86 l 651 86 l 651 0 l 60 0 l 60 86 z "},"":{"ha":465,"x_min":33,"x_max":435,"o":"m 35 374 q 33 385 33 374 q 52 417 33 397 q 103 468 72 438 q 190 549 135 497 q 288 655 245 601 q 330 758 330 709 q 297 840 330 807 q 211 872 263 872 q 133 846 158 872 q 98 804 107 821 q 83 776 89 787 q 71 758 77 764 q 56 751 64 751 q 47 754 47 751 q 101 880 47 825 q 236 935 155 935 q 365 889 317 935 q 412 773 412 843 q 311 605 412 703 q 226 524 283 577 q 145 443 169 471 l 352 443 q 391 455 382 443 q 403 481 399 468 q 412 511 406 494 l 435 511 l 414 388 q 404 374 410 378 l 35 374 z "},"":{"ha":448,"x_min":31,"x_max":404,"o":"m 348 840 q 275 713 348 777 q 371 662 338 711 q 404 568 404 614 q 332 424 404 484 q 177 363 260 363 q 49 400 95 363 q 31 434 31 414 q 37 465 31 454 q 62 475 43 475 q 95 464 81 475 q 125 439 109 453 q 203 403 168 402 q 292 448 264 405 q 321 550 321 491 q 297 632 321 608 q 242 656 273 656 q 199 650 210 656 q 185 644 189 644 q 163 656 163 644 q 185 677 163 662 q 271 774 254 732 q 279 819 279 793 q 256 861 279 846 q 199 877 232 877 q 75 793 121 877 q 56 795 65 793 q 47 799 47 798 q 48 802 47 800 q 49 806 49 804 q 51 811 50 808 l 58 830 q 118 903 75 871 q 220 935 161 935 q 313 909 279 935 q 348 840 348 884 z "},"":{"ha":475,"x_min":114,"x_max":361,"o":"m 117 743 q 114 747 114 746 q 117 751 114 749 l 261 951 q 309 985 286 985 q 347 969 333 985 q 361 928 361 954 q 323 871 361 903 l 141 724 q 136 722 138 722 q 132 724 134 722 l 117 743 z "},"":{"ha":746,"x_min":105,"x_max":715,"o":"m 505 -1 l 505 64 q 500 66 503 66 l 496 66 q 443 42 494 66 q 349 0 392 18 q 275 -18 306 -18 q 211 -11 244 -18 l 211 -382 q 205 -396 211 -393 l 113 -434 q 106 -432 107 -434 q 105 -420 105 -429 l 105 596 q 106 608 105 606 q 113 610 107 610 l 203 610 q 210 608 209 610 q 211 596 211 606 l 211 149 q 259 77 211 105 q 346 49 307 49 q 419 61 385 49 q 463 79 452 73 q 484 92 473 86 q 505 111 495 98 l 505 596 q 506 608 505 606 q 513 610 507 610 l 603 610 q 610 608 609 610 q 611 596 611 606 l 611 134 q 628 91 614 104 q 672 78 642 78 l 711 81 q 715 73 715 81 q 705 60 715 65 l 525 -14 q 511 -18 517 -18 q 505 -1 505 -18 z "},"":{"ha":753,"x_min":68,"x_max":729,"o":"m 621 -197 q 609 -209 621 -209 l 572 -209 q 563 -204 564 -209 q 561 -185 561 -200 l 561 1028 l 448 1028 l 448 -186 q 447 -204 448 -199 q 437 -209 445 -209 l 399 -209 q 391 -203 392 -209 q 389 -184 389 -197 l 389 566 q 261 580 302 570 q 120 652 172 600 q 68 806 68 704 q 201 1043 68 991 q 422 1078 281 1074 q 568 1080 490 1080 l 712 1080 q 729 1069 729 1080 l 729 1042 q 711 1031 729 1031 l 621 1031 l 621 -197 z "},"":{"ha":353,"x_min":88,"x_max":264,"o":"m 88 458 q 88 476 88 458 q 114 521 88 494 q 176 548 140 548 q 238 522 212 548 q 264 458 264 496 q 238 396 264 421 q 176 372 212 372 q 114 397 140 372 q 88 458 88 422 z "},"":{"ha":475,"x_min":68,"x_max":332,"o":"m 106 -361 q 68 -332 68 -361 q 78 -315 68 -319 q 103 -309 87 -312 q 151 -300 119 -307 q 212 -276 182 -294 q 241 -223 241 -257 q 208 -170 241 -190 q 140 -146 174 -150 l 258 0 l 326 0 l 237 -104 q 309 -150 286 -117 q 332 -207 332 -182 q 106 -361 321 -338 z "},"":{"ha":448,"x_min":73,"x_max":363,"o":"m 102 374 q 99 391 99 374 q 103 407 99 407 q 138 409 124 408 q 171 411 151 410 q 193 427 190 412 q 194 446 194 435 l 194 843 q 155 816 194 844 q 89 781 115 788 q 79 792 85 781 q 73 804 73 802 q 89 815 73 805 q 148 862 104 826 q 224 935 191 898 l 275 935 q 283 928 283 935 l 283 448 q 291 417 283 425 q 327 410 299 410 q 361 408 354 410 q 363 391 363 407 q 359 374 363 374 l 102 374 z "},"":{"ha":516,"x_min":20,"x_max":465,"o":"m 20 817 q 20 863 20 817 q 84 974 20 908 q 239 1040 149 1040 q 397 976 330 1040 q 465 818 465 912 q 401 659 465 724 q 242 595 338 595 q 83 661 146 595 q 20 817 20 726 m 97 838 q 97 801 97 838 q 139 692 97 764 q 260 621 180 621 q 353 669 321 621 q 385 767 385 718 q 340 936 385 862 q 228 1010 294 1010 q 129 962 161 1010 q 97 838 97 913 z "},"":{"ha":536,"x_min":75,"x_max":490,"o":"m 299 629 l 490 374 l 299 121 l 266 121 l 395 374 l 267 629 l 299 629 m 108 629 l 299 374 l 108 121 l 75 121 l 203 374 l 76 629 l 108 629 z "},"":{"ha":1051,"x_min":53,"x_max":993,"o":"m 893 1004 l 981 1004 l 235 -37 l 147 -37 l 893 1004 m 82 374 q 79 391 79 374 q 83 407 79 407 q 118 409 104 408 q 151 411 132 410 q 173 427 170 412 q 174 446 174 435 l 174 843 q 135 816 174 844 q 69 781 96 788 q 59 792 65 781 q 53 804 53 802 q 69 815 53 805 q 128 862 85 826 q 204 935 171 898 l 255 935 q 263 928 263 935 l 263 448 q 271 417 263 425 q 307 410 279 410 q 341 408 334 410 q 343 391 343 407 q 340 374 343 374 l 82 374 m 590 177 q 580 184 580 177 q 581 194 580 192 l 848 568 q 869 576 854 576 q 890 576 869 576 q 913 566 913 576 l 913 229 l 980 229 q 993 221 993 229 l 993 186 q 985 177 993 177 l 913 177 l 913 9 q 907 1 913 1 l 840 1 q 831 10 831 1 l 831 177 l 590 177 m 831 464 l 671 229 l 831 229 l 831 464 z "},"":{"ha":1051,"x_min":39,"x_max":1004,"o":"m 840 1004 l 928 1004 l 182 -37 l 94 -37 l 840 1004 m 604 1 q 602 12 602 1 q 622 44 602 23 q 673 94 642 64 q 760 175 705 123 q 857 281 814 227 q 900 385 900 336 q 866 466 900 433 q 780 498 833 498 q 702 473 728 498 q 668 430 677 447 q 652 402 659 414 q 640 384 646 391 q 626 378 634 378 q 617 380 617 378 q 671 507 617 452 q 806 562 724 562 q 934 515 887 562 q 981 399 981 469 q 881 231 981 329 q 795 151 852 203 q 715 69 739 98 l 922 69 q 961 82 952 69 q 972 107 969 94 q 981 138 976 120 l 1004 138 l 983 14 q 973 1 980 4 l 604 1 m 68 374 q 66 391 66 374 q 70 407 66 407 q 104 409 91 408 q 137 411 118 410 q 159 427 157 412 q 161 446 161 435 l 161 843 q 121 816 161 844 q 56 781 82 788 q 45 792 52 781 q 39 804 39 802 q 55 815 39 805 q 114 862 71 826 q 191 935 157 898 l 241 935 q 250 928 250 935 l 250 448 q 258 417 250 425 q 293 410 266 410 q 328 408 321 410 q 330 391 330 407 q 326 374 330 374 l 68 374 z "},"":{"ha":1051,"x_min":33,"x_max":991,"o":"m 901 1004 l 989 1004 l 243 -37 l 155 -37 l 901 1004 m 350 840 q 277 713 350 777 q 373 662 340 711 q 406 568 406 614 q 334 424 406 484 q 179 363 262 363 q 51 400 97 363 q 33 434 33 414 q 39 465 33 454 q 64 475 45 475 q 97 464 83 475 q 127 439 111 453 q 205 403 170 402 q 294 448 266 405 q 323 550 323 491 q 299 632 323 608 q 244 656 275 656 q 201 650 212 656 q 187 644 191 644 q 165 656 165 644 q 187 677 165 662 q 273 774 256 732 q 281 819 281 793 q 258 861 281 846 q 201 877 234 877 q 77 793 123 877 q 58 795 67 793 q 50 799 50 798 q 50 802 50 800 q 51 806 51 804 q 53 811 52 808 l 60 830 q 120 903 77 871 q 222 935 163 935 q 315 909 281 935 q 350 840 350 884 m 588 177 q 578 184 578 177 q 579 194 578 192 l 846 568 q 867 576 852 576 q 888 576 867 576 q 911 566 911 576 l 911 229 l 978 229 q 991 221 991 229 l 991 186 q 983 177 991 177 l 911 177 l 911 9 q 905 1 911 1 l 838 1 q 829 10 829 1 l 829 177 l 588 177 m 829 464 l 669 229 l 829 229 l 829 464 z "},"":{"ha":528,"x_min":85,"x_max":467,"o":"m 467 -290 q 352 -349 467 -349 q 161 -274 237 -349 q 85 -85 85 -199 q 248 157 85 74 q 286 172 265 165 q 326 189 307 179 q 371 253 371 212 q 351 314 371 278 q 331 356 331 349 q 342 368 331 368 q 367 346 354 368 q 417 225 413 264 l 418 207 q 358 98 418 133 q 298 72 331 82 q 226 45 264 61 q 152 -15 187 29 q 117 -104 117 -58 q 133 -175 117 -149 q 194 -220 149 -201 q 393 -239 239 -239 q 467 -290 467 -247 m 401 606 q 412 594 401 606 q 424 550 424 582 q 401 495 424 519 q 346 472 379 472 q 291 495 313 472 q 269 550 269 519 q 291 606 269 582 q 346 629 314 629 q 401 606 378 629 z "},"":{"ha":988,"x_min":3,"x_max":985,"o":"m 361 5 q 355 0 361 0 l 9 0 q 3 5 3 0 l 3 22 q 12 27 3 27 q 138 126 105 31 l 414 927 q 415 930 415 928 l 408 953 q 410 956 408 956 l 546 956 q 550 955 547 956 q 553 951 552 954 l 840 146 q 856 113 850 127 q 869 85 861 98 q 922 43 885 58 q 979 27 954 27 q 985 21 985 27 l 985 5 q 979 0 985 0 l 564 0 q 559 5 559 0 l 559 22 q 584 28 559 27 q 625 31 609 30 q 720 95 720 41 q 718 104 720 99 l 616 393 q 613 399 615 395 q 585 422 605 422 l 344 422 q 312 400 323 422 q 310 395 310 395 l 208 97 l 208 91 q 227 59 208 73 q 338 27 268 27 l 355 27 q 361 22 361 27 l 361 5 m 562 498 q 574 508 574 498 q 571 520 574 513 l 470 798 q 460 817 463 817 q 449 798 456 817 l 354 520 q 351 506 351 513 q 361 498 351 498 l 562 498 m 557 1061 q 553 1059 555 1059 q 548 1061 551 1059 l 366 1208 q 328 1266 328 1240 q 342 1307 328 1292 q 380 1322 356 1322 q 428 1289 404 1322 l 572 1089 q 575 1085 575 1086 q 572 1081 575 1084 l 557 1061 z "},"":{"ha":988,"x_min":3,"x_max":985,"o":"m 361 5 q 355 0 361 0 l 9 0 q 3 5 3 0 l 3 22 q 12 27 3 27 q 138 126 105 31 l 414 927 q 415 930 415 928 l 408 953 q 410 956 408 956 l 546 956 q 550 955 547 956 q 553 951 552 954 l 840 146 q 856 113 850 127 q 869 85 861 98 q 922 43 885 58 q 979 27 954 27 q 985 21 985 27 l 985 5 q 979 0 985 0 l 564 0 q 559 5 559 0 l 559 22 q 584 28 559 27 q 625 31 609 30 q 720 95 720 41 q 718 104 720 99 l 616 393 q 613 399 615 395 q 585 422 605 422 l 344 422 q 312 400 323 422 q 310 395 310 395 l 208 97 l 208 91 q 227 59 208 73 q 338 27 268 27 l 355 27 q 361 22 361 27 l 361 5 m 562 498 q 574 508 574 498 q 571 520 574 513 l 470 798 q 460 817 463 817 q 449 798 456 817 l 354 520 q 351 506 351 513 q 361 498 351 498 l 562 498 m 463 1082 q 460 1086 460 1084 q 463 1090 460 1087 l 607 1290 q 655 1323 631 1323 q 693 1308 679 1323 q 707 1267 707 1293 q 669 1209 707 1241 l 487 1062 q 481 1060 484 1060 q 477 1062 479 1060 l 463 1082 z "},"":{"ha":988,"x_min":3,"x_max":985,"o":"m 361 5 q 355 0 361 0 l 9 0 q 3 5 3 0 l 3 22 q 12 27 3 27 q 138 126 105 31 l 414 927 q 415 930 415 928 l 408 953 q 410 956 408 956 l 546 956 q 550 955 547 956 q 553 951 552 954 l 840 146 q 856 113 850 127 q 869 85 861 98 q 922 43 885 58 q 979 27 954 27 q 985 21 985 27 l 985 5 q 979 0 985 0 l 564 0 q 559 5 559 0 l 559 22 q 584 28 559 27 q 625 31 609 30 q 720 95 720 41 q 718 104 720 99 l 616 393 q 613 399 615 395 q 585 422 605 422 l 344 422 q 312 400 323 422 q 310 395 310 395 l 208 97 l 208 91 q 227 59 208 73 q 338 27 268 27 l 355 27 q 361 22 361 27 l 361 5 m 562 498 q 574 508 574 498 q 571 520 574 513 l 470 798 q 460 817 463 817 q 449 798 456 817 l 354 520 q 351 506 351 513 q 361 498 351 498 l 562 498 m 496 1213 q 489 1221 494 1215 q 482 1227 484 1227 q 476 1221 481 1227 q 469 1213 471 1215 l 323 1061 q 317 1058 321 1058 q 307 1067 313 1058 q 300 1080 300 1076 q 304 1090 300 1083 l 466 1309 q 474 1318 470 1313 q 482 1322 479 1322 q 500 1308 488 1322 l 668 1090 q 673 1079 673 1082 q 666 1067 673 1076 q 656 1058 659 1058 q 650 1061 653 1058 l 496 1213 z "},"":{"ha":988,"x_min":3,"x_max":985,"o":"m 361 5 q 355 0 361 0 l 9 0 q 3 5 3 0 l 3 22 q 12 27 3 27 q 138 126 105 31 l 414 927 q 415 930 415 928 l 408 953 q 410 956 408 956 l 546 956 q 550 955 547 956 q 553 951 552 954 l 840 146 q 856 113 850 127 q 869 85 861 98 q 922 43 885 58 q 979 27 954 27 q 985 21 985 27 l 985 5 q 979 0 985 0 l 564 0 q 559 5 559 0 l 559 22 q 584 28 559 27 q 625 31 609 30 q 720 95 720 41 q 718 104 720 99 l 616 393 q 613 399 615 395 q 585 422 605 422 l 344 422 q 312 400 323 422 q 310 395 310 395 l 208 97 l 208 91 q 227 59 208 73 q 338 27 268 27 l 355 27 q 361 22 361 27 l 361 5 m 562 498 q 574 508 574 498 q 571 520 574 513 l 470 798 q 460 817 463 817 q 449 798 456 817 l 354 520 q 351 506 351 513 q 361 498 351 498 l 562 498 m 619 1229 q 673 1276 662 1229 q 677 1298 677 1288 q 688 1308 677 1308 l 701 1308 q 710 1269 710 1308 q 680 1190 710 1231 q 605 1149 649 1149 q 516 1173 562 1149 q 402 1220 429 1220 q 355 1197 374 1220 q 335 1142 335 1173 q 324 1134 335 1134 l 310 1134 q 304 1155 304 1134 q 334 1255 304 1210 q 405 1300 363 1300 q 520 1264 448 1300 q 619 1229 592 1229 z "},"":{"ha":988,"x_min":3,"x_max":985,"o":"m 361 5 q 355 0 361 0 l 9 0 q 3 5 3 0 l 3 22 q 12 27 3 27 q 138 126 105 31 l 414 927 q 415 930 415 928 l 408 953 q 410 956 408 956 l 546 956 q 550 955 547 956 q 553 951 552 954 l 840 146 q 856 113 850 127 q 869 85 861 98 q 922 43 885 58 q 979 27 954 27 q 985 21 985 27 l 985 5 q 979 0 985 0 l 564 0 q 559 5 559 0 l 559 22 q 584 28 559 27 q 625 31 609 30 q 720 95 720 41 q 718 104 720 99 l 616 393 q 613 399 615 395 q 585 422 605 422 l 344 422 q 312 400 323 422 q 310 395 310 395 l 208 97 l 208 91 q 227 59 208 73 q 338 27 268 27 l 355 27 q 361 22 361 27 l 361 5 m 562 498 q 574 508 574 498 q 571 520 574 513 l 470 798 q 460 817 463 817 q 449 798 456 817 l 354 520 q 351 506 351 513 q 361 498 351 498 l 562 498 m 709 1228 q 662 1147 709 1168 q 622 1141 647 1141 q 574 1164 597 1141 q 551 1220 551 1186 q 574 1277 551 1253 q 630 1300 597 1300 q 686 1277 663 1300 q 709 1228 709 1254 m 359 1141 q 303 1164 326 1141 q 280 1220 280 1187 q 303 1276 280 1253 q 359 1300 326 1300 q 416 1276 393 1300 q 439 1220 439 1253 q 416 1164 439 1187 q 359 1141 393 1141 z "},"":{"ha":988,"x_min":3,"x_max":985,"o":"m 361 5 q 355 0 361 0 l 9 0 q 3 5 3 0 l 3 22 q 12 27 3 27 q 138 126 105 31 l 414 927 q 415 930 415 928 l 408 953 q 410 956 408 956 l 546 956 q 550 955 547 956 q 553 951 552 954 l 840 146 q 856 113 850 127 q 869 85 861 98 q 922 43 885 58 q 979 27 954 27 q 985 21 985 27 l 985 5 q 979 0 985 0 l 564 0 q 559 5 559 0 l 559 22 q 584 28 559 27 q 625 31 609 30 q 720 95 720 41 q 718 104 720 99 l 616 393 q 613 399 615 395 q 585 422 605 422 l 344 422 q 312 400 323 422 q 310 395 310 395 l 208 97 l 208 91 q 227 59 208 73 q 338 27 268 27 l 355 27 q 361 22 361 27 l 361 5 m 562 498 q 574 508 574 498 q 571 520 574 513 l 470 798 q 460 817 463 817 q 449 798 456 817 l 354 520 q 351 506 351 513 q 361 498 351 498 l 562 498 m 363 1220 q 363 1245 363 1220 q 400 1308 363 1271 q 488 1345 436 1345 q 577 1308 541 1345 q 613 1220 613 1271 q 576 1133 613 1169 q 488 1096 540 1096 q 400 1133 437 1096 q 363 1220 363 1169 m 496 1298 q 417 1250 438 1298 q 411 1212 411 1236 q 433 1166 411 1188 q 487 1143 456 1143 q 542 1165 519 1143 q 566 1220 566 1187 q 543 1275 566 1252 q 496 1298 519 1298 z "},"":{"ha":1309,"x_min":0,"x_max":1249,"o":"m 351 0 l 11 0 q 1 3 3 0 q 0 16 0 7 q 13 30 0 25 q 47 39 25 35 q 80 52 68 43 q 100 72 91 60 q 116 98 109 83 q 171 187 124 112 q 282 366 218 262 q 393 547 346 469 q 546 798 506 730 q 586 885 586 865 q 567 919 586 906 q 522 931 548 931 l 448 931 q 443 935 446 931 q 439 943 439 939 q 452 956 439 956 l 1151 956 q 1168 951 1163 956 q 1175 932 1174 947 l 1187 736 q 1177 729 1187 729 q 1162 735 1167 729 q 1152 785 1158 742 q 1128 856 1145 827 q 1069 892 1112 884 l 786 892 q 777 883 777 892 l 777 532 q 784 525 777 525 l 1019 525 q 1103 631 1103 525 q 1108 636 1103 636 l 1124 636 q 1130 631 1130 636 l 1130 340 q 1124 335 1130 335 l 1108 335 q 1103 340 1103 335 q 1044 456 1103 441 q 1010 460 1028 460 l 784 460 q 777 454 777 460 l 777 124 q 824 66 777 73 q 852 64 838 64 l 1078 64 q 1187 126 1148 64 q 1221 227 1215 170 q 1241 246 1223 246 q 1249 237 1249 246 l 1227 9 q 1217 0 1223 0 l 461 0 q 441 14 441 0 q 467 30 441 28 q 525 33 492 32 q 645 121 645 35 l 645 422 l 428 422 q 395 400 410 422 q 391 395 391 395 l 211 97 q 209 79 209 91 q 263 39 209 54 q 347 28 294 31 q 363 12 363 24 q 351 0 363 0 m 431 509 q 425 494 425 497 q 446 486 425 486 l 645 486 l 645 804 q 637 817 640 817 q 621 811 631 817 q 608 798 611 806 l 431 509 z "},"":{"ha":1062,"x_min":71,"x_max":1010,"o":"m 382 -361 q 345 -332 345 -361 q 355 -315 345 -319 q 380 -309 365 -312 q 428 -300 396 -307 q 489 -276 459 -294 q 518 -223 518 -257 q 484 -170 518 -190 q 416 -146 450 -150 l 524 -13 q 200 142 329 11 q 71 472 71 274 q 144 740 71 621 q 463 968 250 915 q 598 985 530 985 q 819 954 691 985 q 884 934 857 944 q 917 924 911 924 l 937 929 l 958 929 q 966 918 966 929 l 966 707 q 954 700 966 700 q 940 703 942 700 q 936 710 938 706 q 931 720 934 715 q 927 728 929 724 q 924 734 924 732 q 615 939 822 939 q 323 820 429 939 q 218 506 218 701 q 334 170 218 310 q 648 29 450 29 q 846 94 757 29 q 986 252 935 158 q 994 256 987 256 l 1003 256 q 1010 248 1010 256 q 1006 232 1010 239 l 912 26 q 903 21 909 21 q 824 21 866 31 q 713 -3 783 12 q 602 -18 644 -18 l 587 -18 l 513 -104 q 585 -150 562 -117 q 608 -207 608 -182 q 382 -361 597 -338 z "},"":{"ha":857,"x_min":5,"x_max":798,"o":"m 5 5 l 5 24 q 10 30 5 30 l 25 30 q 83 32 54 32 q 138 39 113 33 q 193 121 193 56 l 193 836 q 114 921 193 903 q 68 929 92 926 l 54 929 q 49 935 49 929 l 49 951 q 54 956 49 956 l 699 956 q 717 952 711 956 q 724 932 722 947 l 736 736 q 726 729 736 729 q 711 735 715 729 q 700 785 707 742 q 677 856 694 827 q 617 892 660 884 l 334 892 q 326 883 326 892 l 326 532 q 332 526 326 526 l 567 526 q 658 631 658 526 q 663 637 658 637 l 680 637 q 685 631 685 637 l 685 341 q 680 336 685 336 l 663 336 q 658 341 658 336 q 600 457 658 441 q 565 461 583 461 l 332 461 q 326 454 326 461 l 326 124 q 372 66 326 73 q 401 64 386 64 l 627 64 q 735 126 696 64 q 769 227 763 170 q 789 246 771 246 q 798 237 798 246 l 775 9 q 766 0 771 0 l 10 0 q 5 5 5 0 m 511 1061 q 506 1059 508 1059 q 501 1061 504 1059 l 319 1208 q 281 1266 281 1240 q 295 1307 281 1292 q 333 1322 309 1322 q 381 1289 357 1322 l 526 1089 q 528 1085 528 1086 q 526 1081 528 1084 l 511 1061 z "},"":{"ha":857,"x_min":5,"x_max":798,"o":"m 5 5 l 5 24 q 10 30 5 30 l 25 30 q 83 32 54 32 q 138 39 113 33 q 193 121 193 56 l 193 836 q 114 921 193 903 q 68 929 92 926 l 54 929 q 49 935 49 929 l 49 951 q 54 956 49 956 l 699 956 q 717 952 711 956 q 724 932 722 947 l 736 736 q 726 729 736 729 q 711 735 715 729 q 700 785 707 742 q 677 856 694 827 q 617 892 660 884 l 334 892 q 326 883 326 892 l 326 532 q 332 526 326 526 l 567 526 q 658 631 658 526 q 663 637 658 637 l 680 637 q 685 631 685 637 l 685 341 q 680 336 685 336 l 663 336 q 658 341 658 336 q 600 457 658 441 q 565 461 583 461 l 332 461 q 326 454 326 461 l 326 124 q 372 66 326 73 q 401 64 386 64 l 627 64 q 735 126 696 64 q 769 227 763 170 q 789 246 771 246 q 798 237 798 246 l 775 9 q 766 0 771 0 l 10 0 q 5 5 5 0 m 340 1081 q 338 1085 338 1084 q 340 1089 338 1086 l 485 1289 q 533 1322 509 1322 q 571 1307 557 1322 q 585 1266 585 1292 q 547 1208 585 1240 l 365 1061 q 359 1059 361 1059 q 355 1061 357 1059 l 340 1081 z "},"":{"ha":857,"x_min":5,"x_max":798,"o":"m 5 5 l 5 24 q 10 30 5 30 l 25 30 q 83 32 54 32 q 138 39 113 33 q 193 121 193 56 l 193 836 q 114 921 193 903 q 68 929 92 926 l 54 929 q 49 935 49 929 l 49 951 q 54 956 49 956 l 699 956 q 717 952 711 956 q 724 932 722 947 l 736 736 q 726 729 736 729 q 711 735 715 729 q 700 785 707 742 q 677 856 694 827 q 617 892 660 884 l 334 892 q 326 883 326 892 l 326 532 q 332 526 326 526 l 567 526 q 658 631 658 526 q 663 637 658 637 l 680 637 q 685 631 685 637 l 685 341 q 680 336 685 336 l 663 336 q 658 341 658 336 q 600 457 658 441 q 565 461 583 461 l 332 461 q 326 454 326 461 l 326 124 q 372 66 326 73 q 401 64 386 64 l 627 64 q 735 126 696 64 q 769 227 763 170 q 789 246 771 246 q 798 237 798 246 l 775 9 q 766 0 771 0 l 10 0 q 5 5 5 0 m 445 1229 q 437 1237 443 1231 q 431 1243 432 1243 q 424 1237 429 1243 q 417 1229 419 1231 l 272 1077 q 266 1074 269 1074 q 255 1083 262 1074 q 248 1096 248 1093 q 253 1106 248 1099 l 414 1325 q 423 1334 418 1329 q 431 1339 427 1339 q 448 1324 437 1339 l 616 1106 q 621 1096 621 1099 q 614 1083 621 1093 q 605 1074 608 1074 q 599 1077 602 1074 l 445 1229 z "},"":{"ha":857,"x_min":5,"x_max":798,"o":"m 5 5 l 5 24 q 10 30 5 30 l 25 30 q 83 32 54 32 q 138 39 113 33 q 193 121 193 56 l 193 836 q 114 921 193 903 q 68 929 92 926 l 54 929 q 49 935 49 929 l 49 951 q 54 956 49 956 l 699 956 q 717 952 711 956 q 724 932 722 947 l 736 736 q 726 729 736 729 q 711 735 715 729 q 700 785 707 742 q 677 856 694 827 q 617 892 660 884 l 334 892 q 326 883 326 892 l 326 532 q 332 526 326 526 l 567 526 q 658 631 658 526 q 663 637 658 637 l 680 637 q 685 631 685 637 l 685 341 q 680 336 685 336 l 663 336 q 658 341 658 336 q 600 457 658 441 q 565 461 583 461 l 332 461 q 326 454 326 461 l 326 124 q 372 66 326 73 q 401 64 386 64 l 627 64 q 735 126 696 64 q 769 227 763 170 q 789 246 771 246 q 798 237 798 246 l 775 9 q 766 0 771 0 l 10 0 q 5 5 5 0 m 642 1228 q 594 1147 642 1168 q 554 1141 579 1141 q 506 1164 530 1141 q 483 1220 483 1186 q 506 1277 483 1253 q 563 1300 530 1300 q 618 1277 595 1300 q 642 1228 642 1254 m 292 1141 q 235 1164 258 1141 q 212 1220 212 1187 q 235 1276 212 1253 q 292 1300 258 1300 q 348 1276 326 1300 q 371 1220 371 1253 q 348 1164 371 1187 q 292 1141 326 1141 z "},"":{"ha":474,"x_min":61,"x_max":413,"o":"m 171 848 q 77 929 171 929 q 62 935 62 929 l 62 951 q 68 956 62 956 l 408 956 q 413 951 413 956 l 413 935 q 383 929 413 929 q 328 910 353 929 q 303 832 303 891 l 303 109 q 397 27 303 27 q 412 22 412 27 l 412 5 q 406 0 412 0 l 66 0 q 61 5 61 0 l 61 22 q 91 27 61 27 q 146 46 121 27 q 171 124 171 65 l 171 848 m 338 1061 q 333 1059 335 1059 q 328 1061 331 1059 l 146 1208 q 109 1266 109 1240 q 122 1307 109 1292 q 160 1322 136 1322 q 208 1289 184 1322 l 353 1089 q 355 1085 355 1086 q 353 1081 355 1084 l 338 1061 z "},"":{"ha":474,"x_min":61,"x_max":415,"o":"m 171 848 q 77 929 171 929 q 62 935 62 929 l 62 951 q 68 956 62 956 l 408 956 q 413 951 413 956 l 413 935 q 383 929 413 929 q 328 910 353 929 q 303 832 303 891 l 303 109 q 397 27 303 27 q 412 22 412 27 l 412 5 q 406 0 412 0 l 66 0 q 61 5 61 0 l 61 22 q 91 27 61 27 q 146 46 121 27 q 171 124 171 65 l 171 848 m 171 1081 q 168 1085 168 1084 q 171 1089 168 1086 l 315 1289 q 363 1322 340 1322 q 401 1307 387 1322 q 415 1266 415 1292 q 378 1208 415 1240 l 195 1061 q 190 1059 192 1059 q 186 1061 188 1059 l 171 1081 z "},"":{"ha":474,"x_min":52,"x_max":425,"o":"m 171 848 q 77 929 171 929 q 62 935 62 929 l 62 951 q 68 956 62 956 l 408 956 q 413 951 413 956 l 413 935 q 383 929 413 929 q 328 910 353 929 q 303 832 303 891 l 303 109 q 397 27 303 27 q 412 22 412 27 l 412 5 q 406 0 412 0 l 66 0 q 61 5 61 0 l 61 22 q 91 27 61 27 q 146 46 121 27 q 171 124 171 65 l 171 848 m 248 1213 q 241 1221 246 1215 q 234 1227 235 1227 q 228 1221 233 1227 q 220 1213 222 1215 l 75 1061 q 69 1058 73 1058 q 58 1067 65 1058 q 52 1080 52 1076 q 56 1090 52 1083 l 218 1309 q 226 1318 222 1313 q 234 1322 231 1322 q 252 1308 240 1322 l 420 1090 q 425 1079 425 1082 q 418 1067 425 1076 q 408 1058 411 1058 q 402 1061 405 1058 l 248 1213 z "},"":{"ha":474,"x_min":26,"x_max":455,"o":"m 171 848 q 77 929 171 929 q 62 935 62 929 l 62 951 q 68 956 62 956 l 408 956 q 413 951 413 956 l 413 935 q 383 929 413 929 q 328 910 353 929 q 303 832 303 891 l 303 109 q 397 27 303 27 q 412 22 412 27 l 412 5 q 406 0 412 0 l 66 0 q 61 5 61 0 l 61 22 q 91 27 61 27 q 146 46 121 27 q 171 124 171 65 l 171 848 m 455 1228 q 408 1147 455 1168 q 368 1141 393 1141 q 320 1164 343 1141 q 296 1220 296 1186 q 320 1277 296 1253 q 376 1300 343 1300 q 432 1277 409 1300 q 455 1228 455 1254 m 105 1141 q 48 1164 71 1141 q 26 1220 26 1187 q 48 1276 26 1253 q 105 1300 71 1300 q 162 1276 139 1300 q 184 1220 184 1253 q 162 1164 184 1187 q 105 1141 139 1141 z "},"":{"ha":1128,"x_min":26,"x_max":1069,"o":"m 52 30 q 176 109 176 30 l 176 450 l 41 450 q 26 467 26 450 l 26 492 q 41 509 26 509 l 176 509 l 176 852 q 146 909 176 890 q 81 928 117 928 l 37 928 q 32 934 32 928 l 32 953 q 37 958 32 958 l 52 958 l 270 963 q 355 964 309 964 l 440 964 q 617 956 558 964 q 734 935 677 947 q 856 881 791 923 q 968 779 921 839 q 1069 505 1069 652 q 991 243 1069 358 q 669 22 884 81 q 532 0 602 4 l 37 0 q 32 5 32 0 l 32 24 q 37 30 32 30 l 52 30 m 545 467 q 530 450 545 450 l 308 450 l 308 85 q 402 33 308 35 q 460 32 430 32 q 801 153 677 32 q 924 476 924 275 q 810 805 924 678 q 509 932 696 932 l 325 932 q 308 914 308 932 l 308 509 l 530 509 q 545 492 545 509 l 545 467 z "},"":{"ha":1185,"x_min":41,"x_max":1161,"o":"m 46 0 q 41 5 41 0 l 41 22 q 47 27 41 27 l 63 27 q 114 34 100 27 q 164 168 164 58 l 164 873 q 76 927 164 918 q 48 929 56 929 q 41 935 41 929 l 41 951 q 46 956 41 956 l 294 956 l 938 245 q 943 240 941 241 q 947 238 944 238 q 950 244 950 238 l 950 711 q 928 888 950 846 q 838 929 905 929 l 803 929 q 798 935 798 929 l 798 951 q 803 956 798 956 l 1156 956 q 1161 951 1161 956 l 1161 935 q 1141 929 1161 929 q 1075 906 1121 929 q 1029 849 1029 883 l 1029 20 q 1025 -2 1029 5 q 1006 -8 1021 -8 q 983 -2 991 -8 q 966 16 976 4 l 267 791 q 254 798 260 798 q 251 791 251 798 l 251 114 q 349 33 251 52 q 390 27 376 27 q 404 22 404 27 l 404 5 q 399 0 404 0 l 46 0 m 738 1229 q 792 1276 781 1229 q 795 1298 795 1288 q 806 1308 795 1308 l 819 1308 q 829 1269 829 1308 q 798 1190 829 1231 q 724 1149 768 1149 q 635 1173 680 1149 q 520 1220 548 1220 q 473 1197 493 1220 q 454 1142 454 1173 q 443 1134 454 1134 l 429 1134 q 423 1155 423 1134 q 452 1255 423 1210 q 524 1300 481 1300 q 638 1264 566 1300 q 738 1229 711 1229 z "},"":{"ha":1200,"x_min":75,"x_max":1126,"o":"m 869 58 q 741 2 810 22 q 616 -18 671 -18 q 404 18 505 -18 q 182 166 266 68 q 75 484 75 292 q 146 738 75 623 q 343 918 217 852 q 613 985 469 985 q 873 920 758 985 q 1057 743 987 856 q 1126 499 1126 631 q 1057 250 1126 368 q 869 58 989 132 m 217 506 q 217 450 217 506 q 267 282 217 393 q 410 102 317 172 q 625 32 503 32 q 895 165 798 32 q 983 471 983 285 q 876 793 983 658 q 748 898 823 859 q 595 938 672 938 q 469 921 518 938 q 380 874 420 904 q 309 804 340 845 q 258 716 279 764 q 217 506 217 618 m 663 1078 q 659 1076 661 1076 q 654 1078 656 1076 l 471 1225 q 434 1283 434 1257 q 448 1324 434 1309 q 486 1339 462 1339 q 534 1306 509 1339 l 678 1106 q 681 1102 681 1103 q 678 1098 681 1101 l 663 1078 z "},"":{"ha":1083,"x_min":75,"x_max":1126,"o":"m 869 58 q 741 2 810 22 q 616 -18 671 -18 q 404 18 505 -18 q 182 166 266 68 q 75 484 75 292 q 146 738 75 623 q 343 918 217 852 q 613 985 469 985 q 873 920 758 985 q 1057 743 987 856 q 1126 499 1126 631 q 1057 250 1126 368 q 869 58 989 132 m 217 506 q 217 450 217 506 q 267 282 217 393 q 410 102 317 172 q 625 32 503 32 q 895 165 798 32 q 983 471 983 285 q 876 793 983 658 q 748 898 823 859 q 595 938 672 938 q 469 921 518 938 q 380 874 420 904 q 309 804 340 845 q 258 716 279 764 q 217 506 217 618 m 543 1098 q 541 1102 541 1101 q 543 1106 541 1103 l 688 1306 q 736 1339 712 1339 q 773 1324 760 1339 q 787 1283 787 1309 q 750 1225 787 1257 l 568 1078 q 562 1076 564 1076 q 558 1078 560 1076 l 543 1098 z "},"":{"ha":1200,"x_min":75,"x_max":1126,"o":"m 869 58 q 741 2 810 22 q 616 -18 671 -18 q 404 18 505 -18 q 182 166 266 68 q 75 484 75 292 q 146 738 75 623 q 343 918 217 852 q 613 985 469 985 q 873 920 758 985 q 1057 743 987 856 q 1126 499 1126 631 q 1057 250 1126 368 q 869 58 989 132 m 217 506 q 217 450 217 506 q 267 282 217 393 q 410 102 317 172 q 625 32 503 32 q 895 165 798 32 q 983 471 983 285 q 876 793 983 658 q 748 898 823 859 q 595 938 672 938 q 469 921 518 938 q 380 874 420 904 q 309 804 340 845 q 258 716 279 764 q 217 506 217 618 m 601 1230 q 593 1238 599 1232 q 587 1244 588 1244 q 580 1238 585 1244 q 573 1230 575 1232 l 428 1078 q 421 1075 425 1075 q 411 1084 418 1075 q 404 1097 404 1093 q 409 1107 404 1100 l 570 1326 q 579 1335 574 1330 q 587 1339 583 1339 q 604 1324 593 1339 l 772 1107 q 777 1096 777 1099 q 770 1084 777 1093 q 761 1075 764 1075 q 755 1078 758 1075 l 601 1230 z "},"":{"ha":1200,"x_min":75,"x_max":1126,"o":"m 869 58 q 741 2 810 22 q 616 -18 671 -18 q 404 18 505 -18 q 182 166 266 68 q 75 484 75 292 q 146 738 75 623 q 343 918 217 852 q 613 985 469 985 q 873 920 758 985 q 1057 743 987 856 q 1126 499 1126 631 q 1057 250 1126 368 q 869 58 989 132 m 217 506 q 217 450 217 506 q 267 282 217 393 q 410 102 317 172 q 625 32 503 32 q 895 165 798 32 q 983 471 983 285 q 876 793 983 658 q 748 898 823 859 q 595 938 672 938 q 469 921 518 938 q 380 874 420 904 q 309 804 340 845 q 258 716 279 764 q 217 506 217 618 m 718 1181 q 772 1227 760 1181 q 775 1250 775 1240 q 786 1259 775 1259 l 799 1259 q 808 1221 808 1259 q 778 1142 808 1183 q 704 1101 747 1101 q 614 1125 660 1101 q 500 1172 528 1172 q 453 1148 473 1172 q 433 1094 433 1125 q 422 1086 433 1086 l 408 1086 q 403 1107 403 1086 q 432 1207 403 1162 q 504 1252 461 1252 q 618 1216 546 1252 q 718 1181 690 1181 z "},"":{"ha":1200,"x_min":75,"x_max":1126,"o":"m 869 58 q 741 2 810 22 q 616 -18 671 -18 q 404 18 505 -18 q 182 166 266 68 q 75 484 75 292 q 146 738 75 623 q 343 918 217 852 q 613 985 469 985 q 873 920 758 985 q 1057 743 987 856 q 1126 499 1126 631 q 1057 250 1126 368 q 869 58 989 132 m 217 506 q 217 450 217 506 q 267 282 217 393 q 410 102 317 172 q 625 32 503 32 q 895 165 798 32 q 983 471 983 285 q 876 793 983 658 q 748 898 823 859 q 595 938 672 938 q 469 921 518 938 q 380 874 420 904 q 309 804 340 845 q 258 716 279 764 q 217 506 217 618 m 811 1181 q 764 1101 811 1121 q 724 1095 749 1095 q 676 1117 699 1095 q 652 1173 652 1139 q 676 1230 652 1206 q 732 1253 699 1253 q 788 1230 765 1253 q 811 1181 811 1207 m 461 1095 q 405 1117 427 1095 q 382 1173 382 1140 q 405 1230 382 1206 q 461 1253 427 1253 q 518 1230 495 1253 q 541 1173 541 1206 q 518 1117 541 1140 q 461 1095 495 1095 z "},"":{"ha":711,"x_min":80,"x_max":632,"o":"m 142 698 l 355 484 l 570 699 l 631 640 l 415 424 l 632 207 l 572 147 l 355 364 l 140 149 l 80 209 l 296 424 l 81 637 l 142 698 z "},"":{"ha":1200,"x_min":75,"x_max":1130,"o":"m 947 870 l 1084 1016 l 1130 972 l 993 827 q 1126 498 1126 687 q 1057 251 1126 369 q 866 57 989 132 q 593 -18 744 -18 q 414 7 534 -18 q 365 26 403 9 q 281 77 326 44 l 140 -73 l 94 -30 l 233 117 q 75 485 75 261 q 146 738 75 624 q 343 919 217 852 q 637 985 469 985 q 947 870 806 985 m 875 794 q 576 939 759 939 q 380 875 466 939 q 228 616 262 789 q 217 497 217 564 q 242 349 217 429 q 313 201 267 269 l 875 794 m 353 153 q 632 33 466 33 q 890 159 798 33 q 983 452 983 286 q 911 741 983 618 l 353 153 z "},"":{"ha":1134,"x_min":24,"x_max":1118,"o":"m 389 929 q 275 838 275 929 l 275 353 q 364 133 275 218 q 592 48 453 48 q 829 126 736 48 q 922 341 922 203 l 922 772 q 910 862 922 837 q 779 929 881 929 q 773 935 773 929 l 773 951 q 779 956 773 956 l 1112 956 q 1118 951 1118 956 l 1118 935 q 1103 929 1118 929 q 994 860 1014 929 q 991 838 991 848 l 991 394 q 763 11 991 96 q 610 -18 686 -18 q 210 124 338 -18 q 143 305 143 197 l 143 848 q 73 924 143 905 q 39 929 53 929 q 24 935 24 929 l 24 951 q 29 956 24 956 l 397 956 q 402 951 402 956 l 402 935 q 389 929 402 929 m 670 1061 q 665 1059 667 1059 q 661 1061 663 1059 l 478 1208 q 441 1266 441 1240 q 455 1307 441 1292 q 492 1322 469 1322 q 541 1289 516 1322 l 685 1089 q 688 1085 688 1086 q 685 1081 688 1084 l 670 1061 z "},"":{"ha":1134,"x_min":24,"x_max":1118,"o":"m 389 929 q 275 838 275 929 l 275 353 q 364 133 275 218 q 592 48 453 48 q 829 126 736 48 q 922 341 922 203 l 922 772 q 910 862 922 837 q 779 929 881 929 q 773 935 773 929 l 773 951 q 779 956 773 956 l 1112 956 q 1118 951 1118 956 l 1118 935 q 1103 929 1118 929 q 994 860 1014 929 q 991 838 991 848 l 991 394 q 763 11 991 96 q 610 -18 686 -18 q 210 124 338 -18 q 143 305 143 197 l 143 848 q 73 924 143 905 q 39 929 53 929 q 24 935 24 929 l 24 951 q 29 956 24 956 l 397 956 q 402 951 402 956 l 402 935 q 389 929 402 929 m 551 1081 q 548 1085 548 1084 q 551 1089 548 1086 l 695 1289 q 743 1322 720 1322 q 781 1307 767 1322 q 795 1266 795 1292 q 758 1208 795 1240 l 575 1061 q 570 1059 572 1059 q 566 1061 568 1059 l 551 1081 z "},"":{"ha":1134,"x_min":24,"x_max":1118,"o":"m 389 929 q 275 838 275 929 l 275 353 q 364 133 275 218 q 592 48 453 48 q 829 126 736 48 q 922 341 922 203 l 922 772 q 910 862 922 837 q 779 929 881 929 q 773 935 773 929 l 773 951 q 779 956 773 956 l 1112 956 q 1118 951 1118 956 l 1118 935 q 1103 929 1118 929 q 994 860 1014 929 q 991 838 991 848 l 991 394 q 763 11 991 96 q 610 -18 686 -18 q 210 124 338 -18 q 143 305 143 197 l 143 848 q 73 924 143 905 q 39 929 53 929 q 24 935 24 929 l 24 951 q 29 956 24 956 l 397 956 q 402 951 402 956 l 402 935 q 389 929 402 929 m 601 1213 q 593 1221 599 1215 q 587 1227 588 1227 q 580 1221 585 1227 q 573 1213 575 1215 l 428 1061 q 421 1058 425 1058 q 411 1067 418 1058 q 404 1080 404 1076 q 409 1090 404 1083 l 570 1309 q 579 1318 574 1313 q 587 1322 583 1322 q 604 1308 593 1322 l 772 1090 q 777 1079 777 1082 q 770 1067 777 1076 q 761 1058 764 1058 q 755 1061 758 1058 l 601 1213 z "},"":{"ha":1134,"x_min":24,"x_max":1118,"o":"m 389 929 q 275 838 275 929 l 275 353 q 364 133 275 218 q 592 48 453 48 q 829 126 736 48 q 922 341 922 203 l 922 772 q 910 862 922 837 q 779 929 881 929 q 773 935 773 929 l 773 951 q 779 956 773 956 l 1112 956 q 1118 951 1118 956 l 1118 935 q 1103 929 1118 929 q 994 860 1014 929 q 991 838 991 848 l 991 394 q 763 11 991 96 q 610 -18 686 -18 q 210 124 338 -18 q 143 305 143 197 l 143 848 q 73 924 143 905 q 39 929 53 929 q 24 935 24 929 l 24 951 q 29 956 24 956 l 397 956 q 402 951 402 956 l 402 935 q 389 929 402 929 m 825 1228 q 777 1147 825 1168 q 738 1141 762 1141 q 689 1164 713 1141 q 666 1220 666 1186 q 689 1277 666 1253 q 746 1300 713 1300 q 802 1277 779 1300 q 825 1228 825 1254 m 475 1141 q 418 1164 441 1141 q 395 1220 395 1187 q 418 1276 395 1253 q 475 1300 441 1300 q 531 1276 509 1300 q 554 1220 554 1253 q 531 1164 554 1187 q 475 1141 509 1141 z "},"":{"ha":1061,"x_min":3,"x_max":1032,"o":"m 357 0 q 334 14 334 0 l 334 20 q 354 34 334 31 q 380 37 374 36 q 452 62 431 42 q 473 122 473 82 l 473 347 q 471 357 473 351 l 194 799 q 65 918 129 903 q 53 921 62 919 q 14 928 44 923 q 3 943 3 930 q 13 956 3 956 l 401 956 q 412 943 412 956 q 401 929 412 929 q 340 920 355 924 q 307 876 307 907 q 315 847 307 860 l 544 481 q 553 467 551 470 q 561 464 555 464 q 578 484 566 464 l 762 795 q 780 830 770 811 q 791 868 791 848 q 723 926 791 918 q 696 934 699 930 q 694 944 694 938 q 706 956 694 956 l 1023 956 q 1032 947 1032 956 q 1029 934 1032 937 q 1021 929 1026 930 q 1010 926 1016 927 q 983 920 1004 925 q 880 845 936 909 q 873 836 874 838 l 606 375 l 606 122 q 626 64 606 85 q 696 37 647 43 q 745 21 745 31 l 745 14 q 722 0 745 0 l 357 0 m 503 1081 q 500 1085 500 1084 q 503 1089 500 1086 l 648 1289 q 696 1322 672 1322 q 733 1307 720 1322 q 747 1266 747 1292 q 710 1208 747 1240 l 528 1061 q 522 1059 524 1059 q 518 1061 520 1059 l 503 1081 z "},"":{"ha":787,"x_min":28,"x_max":738,"o":"m 33 0 q 28 5 28 0 l 28 22 q 33 27 28 27 q 115 52 86 27 q 144 115 144 77 l 144 831 q 121 906 144 884 q 45 928 98 928 l 33 928 q 28 935 28 928 l 28 951 q 33 956 28 956 l 385 956 q 391 951 391 956 l 391 935 q 385 928 391 928 l 373 928 q 308 920 324 928 q 276 864 276 905 l 276 787 q 387 790 374 790 l 455 790 q 659 701 579 781 q 738 487 738 620 q 651 306 738 393 q 479 218 564 218 l 475 218 l 292 222 l 286 222 q 276 216 276 222 l 276 117 q 331 45 276 69 q 439 27 374 27 q 444 22 444 27 l 444 5 q 439 0 444 0 l 33 0 m 331 756 q 327 756 331 756 q 314 755 323 755 q 291 754 304 755 q 276 745 278 754 l 276 286 q 290 271 278 272 l 359 267 q 535 340 469 267 q 602 524 602 413 q 537 696 602 635 q 365 757 473 757 q 347 756 355 757 q 331 756 339 756 z "},"":{"ha":827,"x_min":16,"x_max":769,"o":"m 344 11 q 332 0 344 0 l 22 0 q 16 9 16 1 q 47 26 16 22 q 121 103 121 37 l 121 723 q 218 1025 121 920 q 427 1116 302 1116 q 633 1044 553 1116 q 714 869 714 972 q 579 654 714 738 q 480 608 536 627 l 480 605 q 675 510 597 581 q 769 297 769 425 q 669 56 769 145 q 490 -18 584 -18 q 435 -3 456 -18 q 414 33 414 12 q 425 67 414 54 q 453 80 437 80 q 500 62 469 80 q 551 43 532 43 q 618 108 592 43 q 644 264 644 173 q 483 575 644 529 q 370 587 440 587 l 370 612 q 587 760 539 629 q 603 853 603 802 q 551 1014 603 952 q 414 1076 500 1076 q 278 1004 329 1076 q 227 823 227 933 l 227 117 q 249 39 227 58 q 332 20 271 20 q 344 11 344 18 z "},"":{"ha":600,"x_min":47,"x_max":583,"o":"m 467 112 q 483 84 467 94 q 522 73 500 73 q 558 84 543 73 q 578 96 572 96 q 583 81 583 96 q 570 56 583 66 q 432 -18 468 -18 q 361 72 389 -18 q 358 78 359 79 q 252 2 274 15 q 141 -8 197 -30 q 60 64 85 14 q 47 119 47 90 q 90 210 47 176 q 253 275 133 244 q 326 303 294 286 q 359 325 357 320 q 361 334 361 330 l 361 464 q 301 572 361 541 q 254 582 281 582 q 198 560 227 582 q 170 498 170 538 l 174 472 q 125 445 170 464 q 73 425 80 426 q 62 451 62 425 q 78 509 62 477 q 122 567 94 541 q 274 629 189 629 q 413 582 359 629 q 467 469 467 534 l 467 112 m 154 132 q 154 115 154 132 q 179 75 154 99 q 236 51 204 51 q 315 78 269 51 q 361 135 361 106 l 361 273 q 357 280 361 280 q 353 279 354 280 l 195 206 q 162 176 171 189 q 154 132 154 164 m 355 724 q 350 721 352 721 q 345 724 348 721 l 163 871 q 125 928 125 903 q 139 969 125 954 q 177 985 153 985 q 225 951 201 985 l 370 751 q 372 747 372 749 q 370 743 372 746 l 355 724 z "},"":{"ha":600,"x_min":47,"x_max":583,"o":"m 467 112 q 483 84 467 94 q 522 73 500 73 q 558 84 543 73 q 578 96 572 96 q 583 81 583 96 q 570 56 583 66 q 432 -18 468 -18 q 361 72 389 -18 q 358 78 359 79 q 252 2 274 15 q 141 -8 197 -30 q 60 64 85 14 q 47 119 47 90 q 90 210 47 176 q 253 275 133 244 q 326 303 294 286 q 359 325 357 320 q 361 334 361 330 l 361 464 q 301 572 361 541 q 254 582 281 582 q 198 560 227 582 q 170 498 170 538 l 174 472 q 125 445 170 464 q 73 425 80 426 q 62 451 62 425 q 78 509 62 477 q 122 567 94 541 q 274 629 189 629 q 413 582 359 629 q 467 469 467 534 l 467 112 m 154 132 q 154 115 154 132 q 179 75 154 99 q 236 51 204 51 q 315 78 269 51 q 361 135 361 106 l 361 273 q 357 280 361 280 q 353 279 354 280 l 195 206 q 162 176 171 189 q 154 132 154 164 m 214 743 q 211 747 211 746 q 214 751 211 749 l 358 951 q 406 985 382 985 q 444 969 430 985 q 458 928 458 954 q 420 871 458 903 l 238 724 q 233 722 235 722 q 229 724 231 722 l 214 743 z "},"":{"ha":600,"x_min":47,"x_max":583,"o":"m 467 112 q 483 84 467 94 q 522 73 500 73 q 558 84 543 73 q 578 96 572 96 q 583 81 583 96 q 570 56 583 66 q 432 -18 468 -18 q 361 72 389 -18 q 358 78 359 79 q 252 2 274 15 q 141 -8 197 -30 q 60 64 85 14 q 47 119 47 90 q 90 210 47 176 q 253 275 133 244 q 326 303 294 286 q 359 325 357 320 q 361 334 361 330 l 361 464 q 301 572 361 541 q 254 582 281 582 q 198 560 227 582 q 170 498 170 538 l 174 472 q 125 445 170 464 q 73 425 80 426 q 62 451 62 425 q 78 509 62 477 q 122 567 94 541 q 274 629 189 629 q 413 582 359 629 q 467 469 467 534 l 467 112 m 154 132 q 154 115 154 132 q 179 75 154 99 q 236 51 204 51 q 315 78 269 51 q 361 135 361 106 l 361 273 q 357 280 361 280 q 353 279 354 280 l 195 206 q 162 176 171 189 q 154 132 154 164 m 284 876 q 277 884 282 878 q 270 890 271 890 q 263 884 269 890 q 256 876 258 878 l 111 724 q 105 721 109 721 q 94 730 101 721 q 87 743 87 739 q 92 753 87 746 l 254 972 q 262 981 258 976 q 270 985 267 985 q 288 970 276 985 l 456 753 q 460 742 460 745 q 454 730 460 739 q 444 721 447 721 q 438 724 441 721 l 284 876 z "},"":{"ha":604,"x_min":52,"x_max":587,"o":"m 471 112 q 487 84 471 94 q 526 73 504 73 q 562 84 547 73 q 582 96 576 96 q 587 81 587 96 q 574 56 587 66 q 436 -18 472 -18 q 366 72 393 -18 q 362 78 363 79 q 256 2 278 15 q 145 -8 201 -30 q 64 64 89 14 q 52 119 52 90 q 94 210 52 176 q 257 275 137 244 q 330 303 298 286 q 363 325 361 320 q 365 334 365 330 l 365 464 q 305 572 365 541 q 258 582 286 582 q 202 560 231 582 q 174 498 174 538 l 178 472 q 129 445 174 464 q 77 425 84 426 q 66 451 66 425 q 82 509 66 477 q 126 567 98 541 q 278 629 193 629 q 417 582 363 629 q 471 469 471 534 l 471 112 m 158 132 q 158 115 158 132 q 183 75 158 99 q 240 51 208 51 q 319 78 273 51 q 365 135 365 106 l 365 273 q 361 280 365 280 q 357 279 358 280 l 199 206 q 166 176 175 189 q 158 132 158 164 m 400 849 q 454 896 443 849 q 458 918 458 908 q 469 928 458 928 l 481 928 q 491 889 491 928 q 460 810 491 851 q 386 770 430 770 q 297 793 342 770 q 183 840 210 840 q 136 817 155 840 q 116 762 116 793 q 105 754 116 754 l 91 754 q 85 775 85 754 q 115 875 85 830 q 186 920 144 920 q 301 885 229 920 q 400 849 373 849 z "},"":{"ha":612,"x_min":59,"x_max":595,"o":"m 478 112 q 495 84 478 94 q 533 73 511 73 q 569 84 555 73 q 589 96 584 96 q 595 81 595 96 q 581 56 595 66 q 444 -18 479 -18 q 373 72 400 -18 q 370 78 371 79 q 264 2 286 15 q 152 -8 208 -30 q 71 64 96 14 q 59 119 59 90 q 102 210 59 176 q 264 275 144 244 q 337 303 305 286 q 371 325 369 320 q 372 334 372 330 l 372 464 q 313 572 372 541 q 266 582 293 582 q 210 560 238 582 q 182 498 182 538 l 185 472 q 136 445 181 464 q 85 425 92 426 q 74 451 74 425 q 90 509 74 477 q 134 567 105 541 q 286 629 200 629 q 425 582 371 629 q 478 469 478 534 l 478 112 m 165 132 q 165 115 165 132 q 191 75 165 99 q 248 51 216 51 q 326 78 280 51 q 372 135 372 106 l 372 273 q 369 280 372 280 q 364 279 366 280 l 207 206 q 174 176 182 189 q 165 132 165 164 m 496 841 q 448 760 496 781 q 409 754 433 754 q 360 777 384 754 q 337 832 337 799 q 360 889 337 866 q 417 913 384 913 q 473 890 450 913 q 496 841 496 867 m 146 754 q 89 777 112 754 q 66 832 66 800 q 89 889 66 865 q 146 913 112 913 q 202 889 180 913 q 225 832 225 865 q 202 777 225 800 q 146 754 180 754 z "},"":{"ha":600,"x_min":47,"x_max":583,"o":"m 467 112 q 483 84 467 94 q 522 73 500 73 q 558 84 543 73 q 578 96 572 96 q 583 81 583 96 q 570 56 583 66 q 432 -18 468 -18 q 361 72 389 -18 q 358 78 359 79 q 252 2 274 15 q 141 -8 197 -30 q 60 64 85 14 q 47 119 47 90 q 90 210 47 176 q 253 275 133 244 q 326 303 294 286 q 359 325 357 320 q 361 334 361 330 l 361 464 q 301 572 361 541 q 254 582 281 582 q 198 560 227 582 q 170 498 170 538 l 174 472 q 125 445 170 464 q 73 425 80 426 q 62 451 62 425 q 78 509 62 477 q 122 567 94 541 q 274 629 189 629 q 413 582 359 629 q 467 469 467 534 l 467 112 m 154 132 q 154 115 154 132 q 179 75 154 99 q 236 51 204 51 q 315 78 269 51 q 361 135 361 106 l 361 273 q 357 280 361 280 q 353 279 354 280 l 195 206 q 162 176 171 189 q 154 132 154 164 m 161 856 q 161 881 161 856 q 198 944 161 907 q 286 981 234 981 q 375 944 338 981 q 411 856 411 907 q 374 768 411 805 q 286 732 338 732 q 198 768 235 732 q 161 856 161 805 m 294 934 q 215 886 236 934 q 209 848 209 872 q 231 802 209 824 q 285 779 254 779 q 340 801 317 779 q 363 856 363 823 q 340 911 363 888 q 294 934 317 934 z "},"":{"ha":935,"x_min":47,"x_max":887,"o":"m 477 391 q 467 363 467 391 l 467 333 q 623 71 467 125 q 690 58 659 58 q 797 93 750 58 q 836 120 810 98 q 865 142 861 142 l 868 142 q 875 138 872 142 q 882 132 878 134 q 857 97 882 117 q 795 47 840 77 q 626 -18 707 -18 q 448 64 522 -18 q 409 119 425 89 q 258 1 353 60 q 143 -10 201 -33 q 60 62 85 12 q 47 117 47 88 q 90 209 47 175 q 253 274 133 243 q 326 302 294 285 q 359 323 357 319 q 361 332 361 328 l 361 463 q 304 566 361 536 q 201 561 248 597 q 170 497 170 537 l 174 471 q 125 444 170 463 q 73 423 80 425 q 62 450 62 423 q 118 554 62 503 q 217 616 174 605 q 307 627 260 627 q 427 562 372 627 q 450 528 441 547 q 662 629 532 629 q 779 601 734 629 q 868 479 821 578 q 887 415 887 439 q 871 391 887 391 l 477 391 m 485 436 q 497 423 485 423 l 746 423 q 764 444 764 423 q 723 538 764 494 q 631 582 683 582 q 537 542 578 582 q 485 444 496 501 l 485 436 m 154 130 q 154 114 154 130 q 179 74 154 98 q 236 50 204 50 q 315 77 269 50 q 361 134 361 104 l 361 271 q 357 279 361 279 q 353 278 354 279 l 195 205 q 162 175 171 187 q 154 130 154 163 z "},"":{"ha":633,"x_min":61,"x_max":586,"o":"m 195 -361 q 157 -332 157 -361 q 166 -315 157 -319 q 192 -309 176 -312 q 240 -300 208 -307 q 301 -276 271 -294 q 330 -223 330 -257 q 296 -170 330 -190 q 229 -146 262 -150 l 332 -18 l 321 -18 q 134 66 207 -18 q 61 260 61 151 q 159 551 62 463 q 402 629 244 629 q 532 610 500 629 q 576 560 564 590 q 580 547 580 553 q 525 500 580 500 q 478 516 497 500 q 448 543 458 532 q 426 564 437 554 q 298 562 370 610 q 178 318 178 494 q 296 79 178 141 q 384 57 338 57 q 548 132 481 57 q 572 154 568 154 q 581 150 576 154 q 586 138 586 146 q 582 126 586 130 q 411 -5 509 26 l 326 -104 q 397 -150 374 -117 q 420 -207 420 -182 q 195 -361 410 -338 z "},"":{"ha":631,"x_min":47,"x_max":564,"o":"m 157 357 q 145 308 145 357 q 208 132 145 203 q 362 60 270 60 q 541 140 455 60 q 544 142 542 142 l 547 142 q 555 135 551 142 q 562 127 559 129 q 377 -5 484 31 q 294 -18 340 -18 q 201 7 248 -18 q 119 74 153 33 q 47 289 47 160 q 126 523 47 417 q 341 629 204 629 q 502 541 439 629 q 564 387 564 453 q 550 357 564 357 l 157 357 m 164 422 q 176 410 164 410 l 432 410 q 450 431 450 410 q 406 531 450 479 q 310 582 362 582 q 217 536 259 582 q 164 431 176 490 l 164 422 m 377 724 q 372 721 374 721 q 368 724 370 721 l 185 871 q 148 928 148 903 q 162 969 148 954 q 199 985 176 985 q 248 951 223 985 l 392 751 q 395 747 395 749 q 392 743 395 746 l 377 724 z "},"":{"ha":631,"x_min":47,"x_max":564,"o":"m 157 357 q 145 308 145 357 q 208 132 145 203 q 362 60 270 60 q 541 140 455 60 q 544 142 542 142 l 547 142 q 555 135 551 142 q 562 127 559 129 q 377 -5 484 31 q 294 -18 340 -18 q 201 7 248 -18 q 119 74 153 33 q 47 289 47 160 q 126 523 47 417 q 341 629 204 629 q 502 541 439 629 q 564 387 564 453 q 550 357 564 357 l 157 357 m 164 422 q 176 410 164 410 l 432 410 q 450 431 450 410 q 406 531 450 479 q 310 582 362 582 q 217 536 259 582 q 164 431 176 490 l 164 422 m 245 743 q 243 747 243 746 q 245 751 243 749 l 390 951 q 438 985 414 985 q 476 969 462 985 q 490 928 490 954 q 452 871 490 903 l 270 724 q 264 722 267 722 q 260 724 262 722 l 245 743 z "},"":{"ha":631,"x_min":47,"x_max":564,"o":"m 157 357 q 145 308 145 357 q 208 132 145 203 q 362 60 270 60 q 541 140 455 60 q 544 142 542 142 l 547 142 q 555 135 551 142 q 562 127 559 129 q 377 -5 484 31 q 294 -18 340 -18 q 201 7 248 -18 q 119 74 153 33 q 47 289 47 160 q 126 523 47 417 q 341 629 204 629 q 502 541 439 629 q 564 387 564 453 q 550 357 564 357 l 157 357 m 164 422 q 176 410 164 410 l 432 410 q 450 431 450 410 q 406 531 450 479 q 310 582 362 582 q 217 536 259 582 q 164 431 176 490 l 164 422 m 332 876 q 325 884 330 878 q 318 890 319 890 q 312 884 317 890 q 304 876 307 878 l 159 724 q 153 721 157 721 q 142 730 149 721 q 136 743 136 739 q 140 753 136 746 l 302 972 q 310 981 306 976 q 318 985 315 985 q 336 970 324 985 l 504 753 q 509 742 509 745 q 502 730 509 739 q 492 721 495 721 q 486 724 489 721 l 332 876 z "},"":{"ha":631,"x_min":47,"x_max":564,"o":"m 157 357 q 145 308 145 357 q 208 132 145 203 q 362 60 270 60 q 541 140 455 60 q 544 142 542 142 l 547 142 q 555 135 551 142 q 562 127 559 129 q 377 -5 484 31 q 294 -18 340 -18 q 201 7 248 -18 q 119 74 153 33 q 47 289 47 160 q 126 523 47 417 q 341 629 204 629 q 502 541 439 629 q 564 387 564 453 q 550 357 564 357 l 157 357 m 164 422 q 176 410 164 410 l 432 410 q 450 431 450 410 q 406 531 450 479 q 310 582 362 582 q 217 536 259 582 q 164 431 176 490 l 164 422 m 541 841 q 493 760 541 781 q 453 754 478 754 q 405 777 429 754 q 382 832 382 799 q 405 889 382 866 q 461 913 429 913 q 517 890 494 913 q 541 841 541 867 m 191 754 q 134 777 157 754 q 111 832 111 800 q 134 889 111 865 q 191 913 157 913 q 247 889 224 913 q 270 832 270 865 q 247 777 270 800 q 191 754 224 754 z "},"":{"ha":391,"x_min":41,"x_max":397,"o":"m 366 26 q 397 9 397 22 q 391 0 397 1 l 88 0 q 81 9 81 1 q 113 26 81 22 q 186 103 186 37 l 186 462 q 155 501 186 490 q 126 509 142 506 q 101 515 111 512 q 90 520 92 517 q 87 530 87 522 q 98 543 87 538 l 271 625 q 281 629 279 629 q 292 612 292 629 l 292 103 q 366 26 292 37 m 271 724 q 266 721 268 721 q 261 724 264 721 l 79 871 q 41 928 41 903 q 55 969 41 954 q 93 985 69 985 q 141 951 117 985 l 286 751 q 288 747 288 749 q 286 743 288 746 l 271 724 z "},"":{"ha":391,"x_min":41,"x_max":357,"o":"m 325 26 q 357 9 357 22 q 350 0 357 1 l 47 0 q 41 9 41 1 q 73 26 41 22 q 146 103 146 37 l 146 462 q 115 501 146 490 q 85 509 101 506 q 61 515 70 512 q 49 520 52 517 q 47 530 47 522 q 57 543 47 538 l 230 625 q 240 629 238 629 q 252 612 252 629 l 252 103 q 325 26 252 37 m 104 743 q 101 747 101 746 q 104 751 101 749 l 248 951 q 296 985 273 985 q 334 969 320 985 q 348 928 348 954 q 311 871 348 903 l 128 724 q 123 722 125 722 q 119 724 121 722 l 104 743 z "},"":{"ha":412,"x_min":41,"x_max":414,"o":"m 368 26 q 400 9 400 22 q 393 0 400 1 l 91 0 q 84 9 84 1 q 116 26 84 22 q 189 103 189 37 l 189 462 q 158 501 189 490 q 129 509 144 506 q 104 515 113 512 q 93 520 95 517 q 90 530 90 522 q 100 543 90 538 l 273 625 q 283 629 281 629 q 295 612 295 629 l 295 103 q 368 26 295 37 m 237 876 q 230 884 235 878 q 223 890 224 890 q 217 884 222 890 q 210 876 212 878 l 64 724 q 58 721 62 721 q 47 730 54 721 q 41 743 41 739 q 45 753 41 746 l 207 972 q 215 981 211 976 q 223 985 220 985 q 241 970 229 985 l 409 753 q 414 742 414 745 q 407 730 414 739 q 397 721 400 721 q 391 724 394 721 l 237 876 z "},"":{"ha":469,"x_min":41,"x_max":470,"o":"m 397 26 q 429 9 429 22 q 422 0 429 1 l 120 0 q 113 9 113 1 q 145 26 113 22 q 218 103 218 37 l 218 462 q 187 501 218 490 q 158 509 174 506 q 133 515 142 512 q 122 520 124 517 q 119 530 119 522 q 130 543 119 538 l 302 625 q 313 629 311 629 q 324 612 324 629 l 324 103 q 397 26 324 37 m 470 841 q 422 760 470 781 q 383 754 408 754 q 335 777 358 754 q 311 832 311 799 q 335 889 311 866 q 391 913 358 913 q 447 890 424 913 q 470 841 470 867 m 120 754 q 63 777 86 754 q 41 832 41 800 q 63 889 41 865 q 120 913 86 913 q 177 889 154 913 q 199 832 199 865 q 177 777 199 800 q 120 754 154 754 z "},"":{"ha":739,"x_min":51,"x_max":681,"o":"m 218 1116 q 409 945 302 1069 l 567 1069 l 607 1016 l 450 894 q 662 467 609 690 q 681 308 681 385 q 591 73 681 164 q 366 -18 501 -18 q 140 74 230 -18 q 51 296 51 166 q 143 518 51 426 q 359 611 236 611 l 360 611 q 535 560 458 611 q 536 569 536 559 l 536 594 q 498 701 536 630 q 399 853 460 771 l 249 736 l 209 788 l 357 905 q 170 1099 246 1042 q 135 1116 146 1116 l 218 1116 m 160 350 q 160 309 160 350 q 185 192 160 269 q 263 67 210 116 q 397 18 315 18 q 524 91 479 18 q 568 264 568 164 q 504 467 568 365 q 332 569 439 569 q 206 500 252 569 q 160 350 160 431 z "},"":{"ha":789,"x_min":35,"x_max":776,"o":"m 545 214 l 544 357 q 529 479 544 444 q 491 533 514 515 q 429 551 468 551 q 264 490 390 551 q 246 471 247 479 l 246 106 q 319 27 246 37 q 351 12 351 22 q 345 0 351 1 l 42 0 q 35 9 35 1 q 67 27 35 22 q 140 106 140 37 l 140 495 q 109 534 140 524 q 80 542 96 539 q 55 548 64 545 q 44 553 46 551 q 41 563 41 555 q 52 576 41 571 l 224 658 q 235 662 233 662 q 246 646 246 662 l 246 540 q 252 533 248 533 q 281 545 256 533 q 398 602 339 574 q 496 629 457 629 q 652 343 652 629 l 646 145 l 646 106 q 699 37 646 53 q 742 26 722 29 q 769 20 763 23 q 776 9 776 18 q 769 0 776 1 l 442 0 q 435 9 435 1 q 467 27 435 22 q 540 111 540 37 q 545 214 545 145 m 504 849 q 558 896 547 849 q 562 918 562 908 q 572 928 562 928 l 585 928 q 595 889 595 928 q 564 810 595 851 q 490 770 534 770 q 401 793 446 770 q 287 840 314 840 q 239 817 259 840 q 220 762 220 793 q 209 754 220 754 l 195 754 q 189 775 189 754 q 218 875 189 830 q 290 920 248 920 q 405 885 332 920 q 504 849 477 849 z "},"":{"ha":751,"x_min":51,"x_max":700,"o":"m 51 305 q 51 371 51 305 q 145 534 51 438 q 372 630 240 630 q 602 537 505 630 q 700 307 700 444 q 607 76 700 170 q 375 -18 515 -18 q 143 77 235 -18 q 51 305 51 172 m 220 130 q 401 18 286 18 q 537 90 490 18 q 584 264 584 161 q 518 477 584 368 q 340 587 452 587 q 211 516 258 587 q 163 336 163 445 q 220 130 163 227 m 473 724 q 469 721 471 721 q 464 724 467 721 l 281 871 q 244 928 244 903 q 258 969 244 954 q 296 985 272 985 q 344 951 319 985 l 488 751 q 491 747 491 749 q 488 743 491 746 l 473 724 z "},"":{"ha":751,"x_min":51,"x_max":700,"o":"m 51 305 q 51 371 51 305 q 145 534 51 438 q 372 630 240 630 q 602 537 505 630 q 700 307 700 444 q 607 76 700 170 q 375 -18 515 -18 q 143 77 235 -18 q 51 305 51 172 m 220 130 q 401 18 286 18 q 537 90 490 18 q 584 264 584 161 q 518 477 584 368 q 340 587 452 587 q 211 516 258 587 q 163 336 163 445 q 220 130 163 227 m 286 743 q 283 747 283 746 q 286 751 283 749 l 431 951 q 479 985 455 985 q 516 969 503 985 q 530 928 530 954 q 493 871 530 903 l 311 724 q 305 722 307 722 q 301 724 303 722 l 286 743 z "},"":{"ha":751,"x_min":51,"x_max":700,"o":"m 51 305 q 51 371 51 305 q 145 534 51 438 q 372 630 240 630 q 602 537 505 630 q 700 307 700 444 q 607 76 700 170 q 375 -18 515 -18 q 143 77 235 -18 q 51 305 51 172 m 220 130 q 401 18 286 18 q 537 90 490 18 q 584 264 584 161 q 518 477 584 368 q 340 587 452 587 q 211 516 258 587 q 163 336 163 445 q 220 130 163 227 m 389 876 q 382 884 387 878 q 375 890 376 890 q 369 884 374 890 q 361 876 363 878 l 216 724 q 210 721 214 721 q 199 730 206 721 q 193 743 193 739 q 197 753 193 746 l 359 972 q 367 981 363 976 q 375 985 372 985 q 393 970 381 985 l 561 753 q 566 742 566 745 q 559 730 566 739 q 549 721 552 721 q 543 724 546 721 l 389 876 z "},"":{"ha":747,"x_min":51,"x_max":700,"o":"m 51 305 q 51 371 51 305 q 145 534 51 438 q 372 630 240 630 q 602 537 505 630 q 700 307 700 444 q 607 76 700 170 q 375 -18 515 -18 q 143 77 235 -18 q 51 305 51 172 m 220 130 q 401 18 286 18 q 537 90 490 18 q 584 264 584 161 q 518 477 584 368 q 340 587 452 587 q 211 516 258 587 q 163 336 163 445 q 220 130 163 227 m 487 849 q 541 896 530 849 q 545 918 545 908 q 555 928 545 928 l 568 928 q 578 889 578 928 q 547 810 578 851 q 473 770 517 770 q 384 793 429 770 q 270 840 297 840 q 222 817 242 840 q 203 762 203 793 q 192 754 203 754 l 178 754 q 172 775 172 754 q 201 875 172 830 q 273 920 231 920 q 388 885 315 920 q 487 849 460 849 z "},"":{"ha":751,"x_min":51,"x_max":700,"o":"m 51 305 q 51 371 51 305 q 145 534 51 438 q 372 630 240 630 q 602 537 505 630 q 700 307 700 444 q 607 76 700 170 q 375 -18 515 -18 q 143 77 235 -18 q 51 305 51 172 m 220 130 q 401 18 286 18 q 537 90 490 18 q 584 264 584 161 q 518 477 584 368 q 340 587 452 587 q 211 516 258 587 q 163 336 163 445 q 220 130 163 227 m 594 841 q 547 760 594 781 q 507 754 532 754 q 459 777 482 754 q 435 832 435 799 q 459 889 435 866 q 515 913 482 913 q 571 890 548 913 q 594 841 594 867 m 244 754 q 188 777 210 754 q 165 832 165 800 q 188 889 165 865 q 244 913 210 913 q 301 889 278 913 q 323 832 323 865 q 301 777 323 800 q 244 754 278 754 z "},"":{"ha":711,"x_min":60,"x_max":651,"o":"m 60 468 l 651 468 l 651 382 l 60 382 l 60 468 m 365 104 q 284 153 304 104 q 278 192 278 167 q 301 240 278 216 q 356 264 323 264 q 413 240 389 264 q 436 183 436 217 q 412 127 436 150 q 365 104 389 104 m 365 581 q 284 629 304 581 q 278 669 278 644 q 300 717 278 694 q 356 741 323 741 q 413 718 390 741 q 436 661 436 694 q 413 604 436 627 q 365 581 389 581 z "},"":{"ha":783,"x_min":41,"x_max":736,"o":"m 393 -18 q 202 41 285 -18 l 83 -78 l 41 -34 l 156 83 q 70 308 70 178 q 164 534 70 438 q 381 630 259 630 q 596 558 503 630 l 690 652 l 736 610 l 641 515 q 719 298 719 426 q 626 76 719 170 q 393 -18 534 -18 m 530 487 q 369 587 460 587 q 230 516 277 587 q 182 345 182 445 q 224 157 182 245 l 530 487 m 258 102 q 414 18 320 18 q 556 90 509 18 q 603 252 603 161 q 562 431 603 344 l 258 102 z "},"":{"ha":762,"x_min":27,"x_max":722,"o":"m 511 60 q 503 67 508 71 q 458 44 497 64 q 247 -19 332 -19 q 125 35 162 -19 q 111 85 111 56 l 111 499 q 94 533 109 519 q 50 552 73 551 q 27 566 27 553 q 38 581 27 578 l 193 626 q 209 629 201 629 q 217 617 217 629 l 217 162 q 259 89 217 115 q 367 63 301 63 q 484 103 432 63 q 511 132 500 116 l 511 499 q 494 533 509 519 q 450 552 473 551 q 427 566 427 553 q 438 581 427 578 l 593 626 q 609 629 602 629 q 617 615 617 629 l 617 134 q 634 91 621 104 q 678 78 648 78 l 718 81 q 722 73 722 81 q 711 60 722 65 l 531 -14 q 517 -18 523 -18 q 511 -1 511 -18 l 511 60 m 446 724 q 441 721 444 721 q 437 724 439 721 l 254 871 q 217 928 217 903 q 231 969 217 954 q 269 985 245 985 q 317 951 292 985 l 461 751 q 464 747 464 749 q 461 743 464 746 l 446 724 z "},"":{"ha":761,"x_min":27,"x_max":722,"o":"m 511 60 q 503 67 508 71 q 458 44 497 64 q 247 -19 332 -19 q 125 35 162 -19 q 111 85 111 56 l 111 499 q 94 533 109 519 q 50 552 73 551 q 27 566 27 553 q 38 581 27 578 l 193 626 q 209 629 201 629 q 217 617 217 629 l 217 162 q 259 89 217 115 q 367 63 301 63 q 484 103 432 63 q 511 132 500 116 l 511 499 q 494 533 509 519 q 450 552 473 551 q 427 566 427 553 q 438 581 427 578 l 593 626 q 609 629 602 629 q 617 615 617 629 l 617 134 q 634 91 621 104 q 678 78 648 78 l 718 81 q 722 73 722 81 q 711 60 722 65 l 531 -14 q 517 -18 523 -18 q 511 -1 511 -18 l 511 60 m 307 743 q 304 747 304 746 q 307 751 304 749 l 451 951 q 499 985 475 985 q 537 969 523 985 q 551 928 551 954 q 513 871 551 903 l 331 724 q 326 722 328 722 q 321 724 323 722 l 307 743 z "},"":{"ha":761,"x_min":27,"x_max":722,"o":"m 511 60 q 503 67 508 71 q 458 44 497 64 q 247 -19 332 -19 q 125 35 162 -19 q 111 85 111 56 l 111 499 q 94 533 109 519 q 50 552 73 551 q 27 566 27 553 q 38 581 27 578 l 193 626 q 209 629 201 629 q 217 617 217 629 l 217 162 q 259 89 217 115 q 367 63 301 63 q 484 103 432 63 q 511 132 500 116 l 511 499 q 494 533 509 519 q 450 552 473 551 q 427 566 427 553 q 438 581 427 578 l 593 626 q 609 629 602 629 q 617 615 617 629 l 617 134 q 634 91 621 104 q 678 78 648 78 l 718 81 q 722 73 722 81 q 711 60 722 65 l 531 -14 q 517 -18 523 -18 q 511 -1 511 -18 l 511 60 m 352 876 q 345 884 350 878 q 338 890 339 890 q 331 884 336 890 q 324 876 326 878 l 179 724 q 173 721 176 721 q 162 730 169 721 q 155 743 155 739 q 160 753 155 746 l 321 972 q 330 981 326 976 q 338 985 334 985 q 355 970 344 985 l 524 753 q 528 742 528 745 q 522 730 528 739 q 512 721 515 721 q 506 724 509 721 l 352 876 z "},"":{"ha":761,"x_min":27,"x_max":722,"o":"m 511 60 q 503 67 508 71 q 458 44 497 64 q 247 -19 332 -19 q 125 35 162 -19 q 111 85 111 56 l 111 499 q 94 533 109 519 q 50 552 73 551 q 27 566 27 553 q 38 581 27 578 l 193 626 q 209 629 201 629 q 217 617 217 629 l 217 162 q 259 89 217 115 q 367 63 301 63 q 484 103 432 63 q 511 132 500 116 l 511 499 q 494 533 509 519 q 450 552 473 551 q 427 566 427 553 q 438 581 427 578 l 593 626 q 609 629 602 629 q 617 615 617 629 l 617 134 q 634 91 621 104 q 678 78 648 78 l 718 81 q 722 73 722 81 q 711 60 722 65 l 531 -14 q 517 -18 523 -18 q 511 -1 511 -18 l 511 60 m 581 841 q 533 760 581 781 q 493 754 518 754 q 445 777 469 754 q 422 832 422 799 q 445 889 422 866 q 502 913 469 913 q 557 890 534 913 q 581 841 581 867 m 231 754 q 174 777 197 754 q 151 832 151 800 q 174 889 151 865 q 231 913 197 913 q 287 889 264 913 q 310 832 310 865 q 287 777 310 800 q 231 754 264 754 z "},"":{"ha":744,"x_min":-17,"x_max":717,"o":"m 709 610 q 717 601 717 608 q 715 591 717 593 q 709 587 714 589 q 695 584 704 585 q 666 579 686 583 q 631 551 646 575 q 597 486 615 528 l 279 -304 l 235 -398 q 163 -434 218 -434 q 125 -418 140 -434 q 111 -381 111 -403 q 122 -350 111 -360 q 146 -334 132 -340 q 176 -323 161 -328 q 210 -300 191 -318 q 233 -273 229 -282 q 347 -7 347 -18 q 333 22 347 5 l 109 489 q 23 577 84 557 q 12 579 18 578 q -17 596 -17 582 q -1 610 -17 610 l 301 610 q 307 600 307 610 q 297 586 307 589 q 255 582 288 582 q 203 541 203 582 l 209 525 l 385 149 q 412 151 398 114 q 429 195 413 154 q 532 465 521 429 q 543 520 543 502 q 524 559 543 538 q 471 579 505 579 q 437 599 437 579 q 452 610 437 610 l 709 610 m 327 743 q 324 747 324 746 q 327 751 324 749 l 471 951 q 519 985 496 985 q 557 969 543 985 q 571 928 571 954 q 534 871 571 903 l 351 724 q 346 722 348 722 q 342 724 344 722 l 327 743 z "},"":{"ha":739,"x_min":8,"x_max":665,"o":"m 558 71 q 348 -18 465 -18 q 233 -3 306 -18 q 221 -11 222 -3 q 219 -28 220 -19 l 219 -317 q 278 -385 219 -368 q 326 -395 304 -392 q 355 -401 349 -398 q 361 -411 361 -404 q 355 -420 361 -419 l 15 -420 q 8 -411 8 -419 q 40 -395 8 -399 q 113 -317 113 -384 l 113 949 q 82 988 113 977 q 53 996 68 993 q 28 1002 37 999 q 17 1007 19 1004 q 14 1017 14 1009 q 24 1030 14 1025 l 197 1112 q 208 1116 205 1116 q 219 1099 219 1116 l 219 560 q 227 553 219 553 q 264 572 235 553 q 444 628 351 628 q 563 575 509 628 q 658 382 634 506 q 665 308 665 347 q 652 224 665 268 q 558 71 626 136 m 364 557 q 219 505 272 557 l 219 123 q 231 79 219 90 q 322 39 260 54 q 512 98 444 12 q 560 247 560 159 q 484 502 560 417 q 364 557 437 553 z "},"":{"ha":744,"x_min":-17,"x_max":717,"o":"m 709 610 q 717 601 717 608 q 715 591 717 593 q 709 587 714 589 q 695 584 704 585 q 666 579 686 583 q 631 551 646 575 q 597 486 615 528 l 279 -304 l 235 -398 q 163 -434 218 -434 q 125 -418 140 -434 q 111 -381 111 -403 q 122 -350 111 -360 q 146 -334 132 -340 q 176 -323 161 -328 q 210 -300 191 -318 q 233 -273 229 -282 q 347 -7 347 -18 q 333 22 347 5 l 109 489 q 23 577 84 557 q 12 579 18 578 q -17 596 -17 582 q -1 610 -17 610 l 301 610 q 307 600 307 610 q 297 586 307 589 q 255 582 288 582 q 203 541 203 582 l 209 525 l 385 149 q 412 151 398 114 q 429 195 413 154 q 532 465 521 429 q 543 520 543 502 q 524 559 543 538 q 471 579 505 579 q 437 599 437 579 q 452 610 437 610 l 709 610 m 587 841 q 540 760 587 781 q 500 754 525 754 q 452 777 475 754 q 429 832 429 799 q 452 889 429 866 q 508 913 475 913 q 564 890 541 913 q 587 841 587 867 m 237 754 q 181 777 203 754 q 158 832 158 800 q 181 889 158 865 q 237 913 203 913 q 294 889 271 913 q 317 832 317 865 q 294 777 317 800 q 237 754 271 754 z "},"":{"ha":988,"x_min":3,"x_max":985,"o":"m 361 5 q 355 0 361 0 l 9 0 q 3 5 3 0 l 3 22 q 12 27 3 27 q 138 126 105 31 l 414 927 q 415 930 415 928 l 408 953 q 410 956 408 956 l 546 956 q 550 955 547 956 q 553 951 552 954 l 840 146 q 856 113 850 127 q 869 85 861 98 q 922 43 885 58 q 979 27 954 27 q 985 21 985 27 l 985 5 q 979 0 985 0 l 564 0 q 559 5 559 0 l 559 22 q 584 28 559 27 q 625 31 609 30 q 720 95 720 41 q 718 104 720 99 l 616 393 q 613 399 615 395 q 585 422 605 422 l 344 422 q 312 400 323 422 q 310 395 310 395 l 208 97 l 208 91 q 227 59 208 73 q 338 27 268 27 l 355 27 q 361 22 361 27 l 361 5 m 562 498 q 574 508 574 498 q 571 520 574 513 l 470 798 q 460 817 463 817 q 449 798 456 817 l 354 520 q 351 506 351 513 q 361 498 351 498 l 562 498 m 269 1264 l 707 1264 l 707 1177 l 269 1177 l 269 1264 z "},"":{"ha":591,"x_min":47,"x_max":583,"o":"m 467 112 q 483 84 467 94 q 522 73 500 73 q 558 84 543 73 q 578 96 572 96 q 583 81 583 96 q 570 56 583 66 q 432 -18 468 -18 q 361 72 389 -18 q 358 78 359 79 q 252 2 274 15 q 141 -8 197 -30 q 60 64 85 14 q 47 119 47 90 q 90 210 47 176 q 253 275 133 244 q 326 303 294 286 q 359 325 357 320 q 361 334 361 330 l 361 464 q 301 572 361 541 q 254 582 281 582 q 198 560 227 582 q 170 498 170 538 l 174 472 q 125 445 170 464 q 73 425 80 426 q 62 451 62 425 q 78 509 62 477 q 122 567 94 541 q 274 629 189 629 q 413 582 359 629 q 467 469 467 534 l 467 112 m 154 132 q 154 115 154 132 q 179 75 154 99 q 236 51 204 51 q 315 78 269 51 q 361 135 361 106 l 361 273 q 357 280 361 280 q 353 279 354 280 l 195 206 q 162 176 171 189 q 154 132 154 164 m 68 897 l 507 897 l 507 809 l 68 809 l 68 897 z "},"":{"ha":988,"x_min":3,"x_max":985,"o":"m 361 5 q 355 0 361 0 l 9 0 q 3 5 3 0 l 3 22 q 12 27 3 27 q 138 126 105 31 l 414 927 q 415 930 415 928 l 408 953 q 410 956 408 956 l 546 956 q 550 955 547 956 q 553 951 552 954 l 840 146 q 856 113 850 127 q 869 85 861 98 q 922 43 885 58 q 979 27 954 27 q 985 21 985 27 l 985 5 q 979 0 985 0 l 564 0 q 559 5 559 0 l 559 22 q 584 28 559 27 q 625 31 609 30 q 720 95 720 41 q 718 104 720 99 l 616 393 q 613 399 615 395 q 585 422 605 422 l 344 422 q 312 400 323 422 q 310 395 310 395 l 208 97 l 208 91 q 227 59 208 73 q 338 27 268 27 l 355 27 q 361 22 361 27 l 361 5 m 562 498 q 574 508 574 498 q 571 520 574 513 l 470 798 q 460 817 463 817 q 449 798 456 817 l 354 520 q 351 506 351 513 q 361 498 351 498 l 562 498 m 486 1111 q 449 1111 486 1111 q 358 1175 412 1111 q 304 1322 304 1239 l 326 1322 q 379 1229 326 1266 q 486 1192 433 1192 q 594 1237 540 1192 q 649 1322 649 1282 l 671 1322 q 616 1178 671 1244 q 486 1111 560 1111 z "},"":{"ha":591,"x_min":47,"x_max":583,"o":"m 467 112 q 483 84 467 94 q 522 73 500 73 q 558 84 543 73 q 578 96 572 96 q 583 81 583 96 q 570 56 583 66 q 432 -18 468 -18 q 361 72 389 -18 q 358 78 359 79 q 252 2 274 15 q 141 -8 197 -30 q 60 64 85 14 q 47 119 47 90 q 90 210 47 176 q 253 275 133 244 q 326 303 294 286 q 359 325 357 320 q 361 334 361 330 l 361 464 q 301 572 361 541 q 254 582 281 582 q 198 560 227 582 q 170 498 170 538 l 174 472 q 125 445 170 464 q 73 425 80 426 q 62 451 62 425 q 78 509 62 477 q 122 567 94 541 q 274 629 189 629 q 413 582 359 629 q 467 469 467 534 l 467 112 m 154 132 q 154 115 154 132 q 179 75 154 99 q 236 51 204 51 q 315 78 269 51 q 361 135 361 106 l 361 273 q 357 280 361 280 q 353 279 354 280 l 195 206 q 162 176 171 189 q 154 132 154 164 m 285 743 q 248 743 285 743 q 157 807 211 743 q 103 955 103 871 l 124 955 q 178 861 124 899 q 285 824 231 824 q 393 869 338 824 q 448 955 448 914 l 470 955 q 414 810 470 877 q 285 743 359 743 z "},"":{"ha":988,"x_min":3,"x_max":985,"o":"m 361 5 q 355 0 361 0 l 9 0 q 3 5 3 0 l 3 22 q 12 27 3 27 q 138 126 105 31 l 414 927 q 415 930 415 928 l 408 953 q 410 956 408 956 l 546 956 q 550 955 547 956 q 553 951 552 954 l 840 146 q 856 113 850 127 q 869 85 861 98 q 922 43 885 58 q 979 27 954 27 q 985 21 985 27 l 985 5 q 979 0 985 0 l 564 0 q 559 5 559 0 l 559 22 q 584 28 559 27 q 625 31 609 30 q 720 95 720 41 q 718 104 720 99 l 616 393 q 613 399 615 395 q 585 422 605 422 l 344 422 q 312 400 323 422 q 310 395 310 395 l 208 97 l 208 91 q 227 59 208 73 q 338 27 268 27 l 355 27 q 361 22 361 27 l 361 5 m 562 498 q 574 508 574 498 q 571 520 574 513 l 470 798 q 460 817 463 817 q 449 798 456 817 l 354 520 q 351 506 351 513 q 361 498 351 498 l 562 498 m 934 -304 q 956 -321 956 -304 q 855 -361 956 -361 q 715 -296 755 -361 q 699 -235 699 -271 q 742 -105 699 -171 q 840 0 784 -40 l 896 0 q 866 -33 895 -1 q 791 -208 791 -117 q 819 -280 791 -253 q 893 -307 848 -307 l 934 -304 z "},"":{"ha":591,"x_min":47,"x_max":583,"o":"m 467 112 q 483 84 467 94 q 522 73 500 73 q 558 84 543 73 q 578 96 572 96 q 583 81 583 96 q 570 56 583 66 q 432 -18 468 -18 q 361 72 389 -18 q 358 78 359 79 q 252 2 274 15 q 141 -8 197 -30 q 60 64 85 14 q 47 119 47 90 q 90 210 47 176 q 253 275 133 244 q 326 303 294 286 q 359 325 357 320 q 361 334 361 330 l 361 464 q 301 572 361 541 q 254 582 281 582 q 198 560 227 582 q 170 498 170 538 l 174 472 q 125 445 170 464 q 73 425 80 426 q 62 451 62 425 q 78 509 62 477 q 122 567 94 541 q 274 629 189 629 q 413 582 359 629 q 467 469 467 534 l 467 112 m 154 132 q 154 115 154 132 q 179 75 154 99 q 236 51 204 51 q 315 78 269 51 q 361 135 361 106 l 361 273 q 357 280 361 280 q 353 279 354 280 l 195 206 q 162 176 171 189 q 154 132 154 164 m 513 -304 q 535 -321 535 -304 q 435 -361 535 -361 q 294 -296 334 -361 q 279 -235 279 -271 q 321 -105 279 -171 q 420 0 363 -40 l 475 0 q 446 -33 474 -1 q 370 -208 370 -117 q 399 -280 370 -253 q 473 -307 427 -307 l 513 -304 z "},"":{"ha":1062,"x_min":71,"x_max":1010,"o":"m 912 26 q 896 23 909 20 q 865 26 882 26 q 815 19 847 26 q 713 -3 783 12 q 587 -18 644 -18 q 337 42 458 -18 q 144 215 216 103 q 71 473 71 326 q 144 740 71 621 q 463 968 250 915 q 598 985 530 985 q 819 954 691 985 q 884 934 857 944 q 917 924 911 924 l 937 929 l 958 929 q 966 918 966 929 l 966 707 q 954 700 966 700 q 940 703 942 700 q 936 710 938 706 q 931 720 934 715 q 927 728 929 724 q 924 734 924 732 q 615 939 822 939 q 323 820 429 939 q 218 506 218 701 q 334 170 218 310 q 648 29 450 29 q 846 94 757 29 q 986 252 935 158 q 994 256 987 256 l 1003 256 q 1010 248 1010 256 q 1006 232 1010 239 l 912 26 m 490 1081 q 487 1085 487 1084 q 490 1089 487 1086 l 634 1289 q 682 1322 659 1322 q 720 1307 706 1322 q 734 1266 734 1292 q 696 1208 734 1240 l 514 1061 q 509 1059 511 1059 q 505 1061 507 1059 l 490 1081 z "},"":{"ha":633,"x_min":61,"x_max":586,"o":"m 580 547 q 525 500 580 500 q 478 516 497 500 q 448 543 458 532 q 426 564 437 554 q 307 572 377 604 q 199 439 237 541 q 178 328 178 383 q 232 133 178 208 q 398 57 286 57 q 548 132 481 57 q 572 154 568 154 q 581 150 576 154 q 586 138 586 146 q 582 126 586 130 q 321 -18 478 -18 q 134 66 207 -18 q 61 260 61 151 q 159 551 62 463 q 402 629 244 629 q 532 610 500 629 q 576 560 564 590 q 580 547 580 553 m 279 743 q 277 747 277 746 q 279 751 277 749 l 424 951 q 472 985 448 985 q 510 969 496 985 q 524 928 524 954 q 486 871 524 903 l 304 724 q 298 722 300 722 q 294 724 296 722 l 279 743 z "},"":{"ha":1062,"x_min":71,"x_max":1010,"o":"m 912 26 q 896 23 909 20 q 865 26 882 26 q 815 19 847 26 q 713 -3 783 12 q 587 -18 644 -18 q 337 42 458 -18 q 144 215 216 103 q 71 473 71 326 q 144 740 71 621 q 463 968 250 915 q 598 985 530 985 q 819 954 691 985 q 884 934 857 944 q 917 924 911 924 l 937 929 l 958 929 q 966 918 966 929 l 966 707 q 954 700 966 700 q 940 703 942 700 q 936 710 938 706 q 931 720 934 715 q 927 728 929 724 q 924 734 924 732 q 615 939 822 939 q 323 820 429 939 q 218 506 218 701 q 334 170 218 310 q 648 29 450 29 q 846 94 757 29 q 986 252 935 158 q 994 256 987 256 l 1003 256 q 1010 248 1010 256 q 1006 232 1010 239 l 912 26 m 601 1213 q 593 1221 599 1215 q 587 1227 588 1227 q 580 1221 585 1227 q 573 1213 575 1215 l 428 1061 q 421 1058 425 1058 q 411 1067 418 1058 q 404 1080 404 1076 q 409 1090 404 1083 l 570 1309 q 579 1318 574 1313 q 587 1322 583 1322 q 604 1308 593 1322 l 772 1090 q 777 1079 777 1082 q 770 1067 777 1076 q 761 1058 764 1058 q 755 1061 758 1058 l 601 1213 z "},"":{"ha":633,"x_min":61,"x_max":586,"o":"m 580 547 q 525 500 580 500 q 478 516 497 500 q 448 543 458 532 q 426 564 437 554 q 307 572 377 604 q 199 439 237 541 q 178 328 178 383 q 232 133 178 208 q 398 57 286 57 q 548 132 481 57 q 572 154 568 154 q 581 150 576 154 q 586 138 586 146 q 582 126 586 130 q 321 -18 478 -18 q 134 66 207 -18 q 61 260 61 151 q 159 551 62 463 q 402 629 244 629 q 532 610 500 629 q 576 560 564 590 q 580 547 580 553 m 363 876 q 356 884 361 878 q 349 890 351 890 q 343 884 348 890 q 336 876 338 878 l 191 724 q 184 721 188 721 q 174 730 180 721 q 167 743 167 739 q 172 753 167 746 l 333 972 q 341 981 337 976 q 349 985 346 985 q 367 970 355 985 l 535 753 q 540 742 540 745 q 533 730 540 739 q 523 721 526 721 q 517 724 520 721 l 363 876 z "},"":{"ha":1062,"x_min":71,"x_max":1010,"o":"m 912 26 q 896 23 909 20 q 865 26 882 26 q 815 19 847 26 q 713 -3 783 12 q 587 -18 644 -18 q 337 42 458 -18 q 144 215 216 103 q 71 473 71 326 q 144 740 71 621 q 463 968 250 915 q 598 985 530 985 q 819 954 691 985 q 884 934 857 944 q 917 924 911 924 l 937 929 l 958 929 q 966 918 966 929 l 966 707 q 954 700 966 700 q 940 703 942 700 q 936 710 938 706 q 931 720 934 715 q 927 728 929 724 q 924 734 924 732 q 615 939 822 939 q 323 820 429 939 q 218 506 218 701 q 334 170 218 310 q 648 29 450 29 q 846 94 757 29 q 986 252 935 158 q 994 256 987 256 l 1003 256 q 1010 248 1010 256 q 1006 232 1010 239 l 912 26 m 669 1228 q 621 1147 669 1168 q 582 1141 607 1141 q 534 1164 557 1141 q 511 1220 511 1186 q 534 1277 511 1253 q 590 1300 557 1300 q 646 1277 623 1300 q 669 1228 669 1254 z "},"":{"ha":633,"x_min":61,"x_max":586,"o":"m 580 547 q 525 500 580 500 q 478 516 497 500 q 448 543 458 532 q 426 564 437 554 q 307 572 377 604 q 199 439 237 541 q 178 328 178 383 q 232 133 178 208 q 398 57 286 57 q 548 132 481 57 q 572 154 568 154 q 581 150 576 154 q 586 138 586 146 q 582 126 586 130 q 321 -18 478 -18 q 134 66 207 -18 q 61 260 61 151 q 159 551 62 463 q 402 629 244 629 q 532 610 500 629 q 576 560 564 590 q 580 547 580 553 m 412 841 q 363 760 412 781 q 325 754 349 754 q 276 777 300 754 q 253 832 253 799 q 276 889 253 866 q 333 913 300 913 q 389 890 366 913 q 412 841 412 867 z "},"":{"ha":1062,"x_min":71,"x_max":1010,"o":"m 912 26 q 896 23 909 20 q 865 26 882 26 q 815 19 847 26 q 713 -3 783 12 q 587 -18 644 -18 q 337 42 458 -18 q 144 215 216 103 q 71 473 71 326 q 144 740 71 621 q 463 968 250 915 q 598 985 530 985 q 819 954 691 985 q 884 934 857 944 q 917 924 911 924 l 937 929 l 958 929 q 966 918 966 929 l 966 707 q 954 700 966 700 q 940 703 942 700 q 936 710 938 706 q 931 720 934 715 q 927 728 929 724 q 924 734 924 732 q 615 939 822 939 q 323 820 429 939 q 218 506 218 701 q 334 170 218 310 q 648 29 450 29 q 846 94 757 29 q 986 252 935 158 q 994 256 987 256 l 1003 256 q 1010 248 1010 256 q 1006 232 1010 239 l 912 26 m 755 1320 q 761 1322 758 1322 q 770 1313 764 1322 q 777 1301 777 1304 q 772 1291 777 1297 l 604 1073 q 587 1058 593 1058 q 570 1073 581 1058 l 409 1291 q 404 1301 404 1297 q 411 1313 404 1304 q 421 1322 418 1322 q 428 1320 425 1322 l 573 1168 q 580 1160 575 1166 q 587 1154 585 1154 q 593 1160 588 1154 q 601 1168 599 1166 l 755 1320 z "},"":{"ha":633,"x_min":61,"x_max":586,"o":"m 580 547 q 525 500 580 500 q 478 516 497 500 q 448 543 458 532 q 426 564 437 554 q 307 572 377 604 q 199 439 237 541 q 178 328 178 383 q 232 133 178 208 q 398 57 286 57 q 548 132 481 57 q 572 154 568 154 q 581 150 576 154 q 586 138 586 146 q 582 126 586 130 q 321 -18 478 -18 q 134 66 207 -18 q 61 260 61 151 q 159 551 62 463 q 402 629 244 629 q 532 610 500 629 q 576 560 564 590 q 580 547 580 553 m 519 983 q 525 985 522 985 q 535 976 528 985 q 542 964 542 967 q 537 954 542 960 l 369 736 q 351 721 357 721 q 334 736 345 721 l 174 954 q 169 964 169 960 q 176 976 169 967 q 186 985 182 985 q 193 983 190 985 l 338 831 q 345 823 340 829 q 351 817 350 817 q 358 823 353 817 q 366 831 363 829 l 519 983 z "},"":{"ha":1128,"x_min":31,"x_max":1067,"o":"m 31 953 q 36 958 31 958 l 51 958 l 269 963 q 354 964 308 964 l 439 964 q 616 956 557 964 q 733 935 675 947 q 855 881 790 923 q 967 779 920 839 q 1067 504 1067 652 q 990 239 1067 356 q 668 16 879 68 q 530 0 601 0 l 36 0 q 31 5 31 0 l 31 24 q 36 30 31 30 l 51 30 q 174 109 174 30 l 174 852 q 145 909 174 890 q 79 928 116 928 l 36 928 q 31 934 31 928 l 31 953 m 323 932 q 307 914 307 932 l 307 85 q 401 33 307 35 q 459 32 429 32 q 799 153 675 32 q 923 476 923 275 q 809 805 923 678 q 508 932 694 932 l 323 932 m 653 1320 q 659 1322 656 1322 q 669 1313 662 1322 q 675 1301 675 1304 q 671 1291 675 1297 l 503 1073 q 485 1058 491 1058 q 468 1073 479 1058 l 307 1291 q 302 1301 302 1297 q 309 1313 302 1304 q 320 1322 316 1322 q 326 1320 323 1322 l 471 1168 q 478 1160 473 1166 q 485 1154 484 1154 q 492 1160 486 1154 q 499 1168 497 1166 l 653 1320 z "},"":{"ha":901,"x_min":58,"x_max":894,"o":"m 466 601 q 481 595 466 601 q 503 590 496 590 q 511 590 509 590 q 515 599 513 591 l 515 949 q 484 988 515 977 q 455 996 471 993 q 430 1002 439 999 q 419 1007 421 1004 q 416 1017 416 1009 q 427 1030 416 1025 l 600 1112 q 610 1116 608 1116 q 621 1099 621 1116 l 621 134 q 638 91 625 104 q 682 78 652 78 l 722 81 q 726 73 726 81 q 715 60 726 65 l 535 -14 q 521 -18 527 -18 q 515 -1 515 -18 l 515 60 q 512 67 515 67 q 456 37 507 67 q 189 9 298 -57 q 72 176 102 62 q 58 290 58 230 q 82 409 58 350 q 151 513 107 469 q 381 611 246 611 q 466 601 436 611 m 160 310 q 160 258 160 310 q 217 130 160 207 q 376 53 274 53 q 468 75 420 53 q 515 109 515 97 l 515 458 q 498 489 515 471 q 354 564 444 564 q 212 488 264 564 q 160 310 160 412 m 894 1001 q 775 791 894 875 q 734 771 748 771 q 724 783 724 771 q 728 800 724 795 q 738 809 732 805 q 748 817 743 813 q 761 826 753 820 q 829 938 829 888 q 804 967 829 967 q 713 1010 736 967 q 705 1053 705 1025 q 730 1103 705 1081 q 783 1126 755 1126 q 865 1084 836 1126 q 894 1001 894 1042 z "},"":{"ha":739,"x_min":58,"x_max":726,"o":"m 466 601 q 481 595 466 601 q 503 590 496 590 q 511 590 509 590 q 515 599 513 591 l 515 776 l 313 776 q 296 793 296 776 l 296 817 q 313 834 296 834 l 515 834 l 515 949 q 484 988 515 977 q 455 996 471 993 q 430 1002 439 999 q 419 1007 421 1004 q 416 1017 416 1009 q 427 1030 416 1025 l 600 1112 q 610 1116 608 1116 q 621 1099 621 1116 l 621 834 l 703 834 q 720 817 720 834 l 720 793 q 703 776 720 776 l 621 776 l 621 134 q 638 91 625 104 q 682 78 652 78 l 722 81 q 726 73 726 81 q 715 60 726 65 l 535 -14 q 521 -18 527 -18 q 515 -1 515 -18 l 515 60 q 512 67 515 67 q 456 37 507 67 q 189 9 298 -57 q 72 176 102 62 q 58 290 58 230 q 82 409 58 350 q 151 513 107 469 q 381 611 246 611 q 466 601 436 611 m 160 310 q 160 258 160 310 q 217 130 160 207 q 376 53 274 53 q 468 75 420 53 q 515 109 515 97 l 515 458 q 498 489 515 471 q 354 564 444 564 q 212 488 264 564 q 160 310 160 412 z "},"":{"ha":857,"x_min":5,"x_max":798,"o":"m 5 5 l 5 24 q 10 30 5 30 l 25 30 q 83 32 54 32 q 138 39 113 33 q 193 121 193 56 l 193 836 q 114 921 193 903 q 68 929 92 926 l 54 929 q 49 935 49 929 l 49 951 q 54 956 49 956 l 699 956 q 717 952 711 956 q 724 932 722 947 l 736 736 q 726 729 736 729 q 711 735 715 729 q 700 785 707 742 q 677 856 694 827 q 617 892 660 884 l 334 892 q 326 883 326 892 l 326 532 q 332 526 326 526 l 567 526 q 658 631 658 526 q 663 637 658 637 l 680 637 q 685 631 685 637 l 685 341 q 680 336 685 336 l 663 336 q 658 341 658 336 q 600 457 658 441 q 565 461 583 461 l 332 461 q 326 454 326 461 l 326 124 q 372 66 326 73 q 401 64 386 64 l 627 64 q 735 126 696 64 q 769 227 763 170 q 789 246 771 246 q 798 237 798 246 l 775 9 q 766 0 771 0 l 10 0 q 5 5 5 0 m 201 1264 l 640 1264 l 640 1177 l 201 1177 l 201 1264 z "},"":{"ha":631,"x_min":47,"x_max":564,"o":"m 157 357 q 145 308 145 357 q 208 132 145 203 q 362 60 270 60 q 541 140 455 60 q 544 142 542 142 l 547 142 q 555 135 551 142 q 562 127 559 129 q 377 -5 484 31 q 294 -18 340 -18 q 201 7 248 -18 q 119 74 153 33 q 47 289 47 160 q 126 523 47 417 q 341 629 204 629 q 502 541 439 629 q 564 387 564 453 q 550 357 564 357 l 157 357 m 164 422 q 176 410 164 410 l 432 410 q 450 431 450 410 q 406 531 450 479 q 310 582 362 582 q 217 536 259 582 q 164 431 176 490 l 164 422 m 106 897 l 545 897 l 545 809 l 106 809 l 106 897 z "},"":{"ha":857,"x_min":5,"x_max":798,"o":"m 5 5 l 5 24 q 10 30 5 30 l 25 30 q 83 32 54 32 q 138 39 113 33 q 193 121 193 56 l 193 836 q 114 921 193 903 q 68 929 92 926 l 54 929 q 49 935 49 929 l 49 951 q 54 956 49 956 l 699 956 q 717 952 711 956 q 724 932 722 947 l 736 736 q 726 729 736 729 q 711 735 715 729 q 700 785 707 742 q 677 856 694 827 q 617 892 660 884 l 334 892 q 326 883 326 892 l 326 532 q 332 526 326 526 l 567 526 q 658 631 658 526 q 663 637 658 637 l 680 637 q 685 631 685 637 l 685 341 q 680 336 685 336 l 663 336 q 658 341 658 336 q 600 457 658 441 q 565 461 583 461 l 332 461 q 326 454 326 461 l 326 124 q 372 66 326 73 q 401 64 386 64 l 627 64 q 735 126 696 64 q 769 227 763 170 q 789 246 771 246 q 798 237 798 246 l 775 9 q 766 0 771 0 l 10 0 q 5 5 5 0 m 418 1111 q 381 1111 418 1111 q 291 1175 345 1111 q 237 1322 237 1239 l 258 1322 q 311 1229 258 1266 q 418 1192 365 1192 q 527 1237 472 1192 q 581 1322 581 1282 l 604 1322 q 548 1178 604 1244 q 418 1111 492 1111 z "},"":{"ha":631,"x_min":47,"x_max":564,"o":"m 157 357 q 145 308 145 357 q 208 132 145 203 q 362 60 270 60 q 541 140 455 60 q 544 142 542 142 l 547 142 q 555 135 551 142 q 562 127 559 129 q 377 -5 484 31 q 294 -18 340 -18 q 201 7 248 -18 q 119 74 153 33 q 47 289 47 160 q 126 523 47 417 q 341 629 204 629 q 502 541 439 629 q 564 387 564 453 q 550 357 564 357 l 157 357 m 164 422 q 176 410 164 410 l 432 410 q 450 431 450 410 q 406 531 450 479 q 310 582 362 582 q 217 536 259 582 q 164 431 176 490 l 164 422 m 337 743 q 300 743 337 743 q 209 807 263 743 q 155 955 155 871 l 176 955 q 230 861 176 899 q 337 824 283 824 q 445 869 391 824 q 500 955 500 914 l 522 955 q 467 810 522 877 q 337 743 411 743 z "},"":{"ha":857,"x_min":5,"x_max":798,"o":"m 5 5 l 5 24 q 10 30 5 30 l 25 30 q 83 32 54 32 q 138 39 113 33 q 193 121 193 56 l 193 836 q 114 921 193 903 q 68 929 92 926 l 54 929 q 49 935 49 929 l 49 951 q 54 956 49 956 l 699 956 q 717 952 711 956 q 724 932 722 947 l 736 736 q 726 729 736 729 q 711 735 715 729 q 700 785 707 742 q 677 856 694 827 q 617 892 660 884 l 334 892 q 326 883 326 892 l 326 532 q 332 526 326 526 l 567 526 q 658 631 658 526 q 663 637 658 637 l 680 637 q 685 631 685 637 l 685 341 q 680 336 685 336 l 663 336 q 658 341 658 336 q 600 457 658 441 q 565 461 583 461 l 332 461 q 326 454 326 461 l 326 124 q 372 66 326 73 q 401 64 386 64 l 627 64 q 735 126 696 64 q 769 227 763 170 q 789 246 771 246 q 798 237 798 246 l 775 9 q 766 0 771 0 l 10 0 q 5 5 5 0 m 479 1228 q 431 1147 479 1168 q 392 1141 417 1141 q 344 1164 368 1141 q 321 1220 321 1186 q 344 1277 321 1253 q 400 1300 368 1300 q 456 1277 433 1300 q 479 1228 479 1254 z "},"":{"ha":622,"x_min":47,"x_max":564,"o":"m 157 357 q 145 308 145 357 q 208 132 145 203 q 362 60 270 60 q 541 140 455 60 q 544 142 542 142 l 547 142 q 555 135 551 142 q 562 127 559 129 q 377 -5 484 31 q 294 -18 340 -18 q 201 7 248 -18 q 119 74 153 33 q 47 289 47 160 q 126 523 47 417 q 341 629 204 629 q 502 541 439 629 q 564 387 564 453 q 550 357 564 357 l 157 357 m 164 422 q 176 410 164 410 l 432 410 q 450 431 450 410 q 406 531 450 479 q 310 582 362 582 q 217 536 259 582 q 164 431 176 490 l 164 422 m 418 841 q 370 760 418 781 q 331 754 356 754 q 283 777 307 754 q 260 832 260 799 q 283 889 260 866 q 339 913 307 913 q 395 890 372 913 q 418 841 418 867 z "},"":{"ha":857,"x_min":5,"x_max":798,"o":"m 5 5 l 5 24 q 10 30 5 30 l 25 30 q 83 32 54 32 q 138 39 113 33 q 193 121 193 56 l 193 836 q 114 921 193 903 q 68 929 92 926 l 54 929 q 49 935 49 929 l 49 951 q 54 956 49 956 l 699 956 q 717 952 711 956 q 724 932 722 947 l 736 736 q 726 729 736 729 q 711 735 715 729 q 700 785 707 742 q 677 856 694 827 q 617 892 660 884 l 334 892 q 326 883 326 892 l 326 532 q 332 526 326 526 l 567 526 q 658 631 658 526 q 663 637 658 637 l 680 637 q 685 631 685 637 l 685 341 q 680 336 685 336 l 663 336 q 658 341 658 336 q 600 457 658 441 q 565 461 583 461 l 332 461 q 326 454 326 461 l 326 124 q 372 66 326 73 q 401 64 386 64 l 627 64 q 735 126 696 64 q 769 227 763 170 q 789 246 771 246 q 798 237 798 246 l 775 9 q 766 0 771 0 l 10 0 q 5 5 5 0 m 730 -304 q 752 -321 752 -304 q 652 -361 752 -361 q 511 -296 551 -361 q 496 -235 496 -271 q 538 -105 496 -171 q 637 0 581 -40 l 692 0 q 663 -33 691 -1 q 587 -208 587 -117 q 616 -280 587 -253 q 690 -307 644 -307 l 730 -304 z "},"":{"ha":631,"x_min":47,"x_max":564,"o":"m 157 357 q 145 308 145 357 q 208 132 145 203 q 362 60 270 60 q 541 140 455 60 q 544 142 542 142 l 547 142 q 555 135 551 142 q 562 127 559 129 q 377 -5 484 31 q 294 -18 340 -18 q 201 7 248 -18 q 119 74 153 33 q 47 289 47 160 q 126 523 47 417 q 341 629 204 629 q 502 541 439 629 q 564 387 564 453 q 550 357 564 357 l 157 357 m 164 422 q 176 410 164 410 l 432 410 q 450 431 450 410 q 406 531 450 479 q 310 582 362 582 q 217 536 259 582 q 164 431 176 490 l 164 422 m 432 -304 q 454 -321 454 -304 q 353 -361 454 -361 q 213 -296 253 -361 q 197 -235 197 -271 q 240 -105 197 -171 q 338 0 282 -40 l 394 0 q 364 -33 393 -1 q 289 -208 289 -117 q 317 -280 289 -253 q 391 -307 346 -307 l 432 -304 z "},"":{"ha":857,"x_min":5,"x_max":798,"o":"m 5 5 l 5 24 q 10 30 5 30 l 25 30 q 83 32 54 32 q 138 39 113 33 q 193 121 193 56 l 193 836 q 114 921 193 903 q 68 929 92 926 l 54 929 q 49 935 49 929 l 49 951 q 54 956 49 956 l 699 956 q 717 952 711 956 q 724 932 722 947 l 736 736 q 726 729 736 729 q 711 735 715 729 q 700 785 707 742 q 677 856 694 827 q 617 892 660 884 l 334 892 q 326 883 326 892 l 326 532 q 332 526 326 526 l 567 526 q 658 631 658 526 q 663 637 658 637 l 680 637 q 685 631 685 637 l 685 341 q 680 336 685 336 l 663 336 q 658 341 658 336 q 600 457 658 441 q 565 461 583 461 l 332 461 q 326 454 326 461 l 326 124 q 372 66 326 73 q 401 64 386 64 l 627 64 q 735 126 696 64 q 769 227 763 170 q 789 246 771 246 q 798 237 798 246 l 775 9 q 766 0 771 0 l 10 0 q 5 5 5 0 m 612 1320 q 618 1322 615 1322 q 628 1313 621 1322 q 635 1301 635 1304 q 630 1291 635 1297 l 462 1073 q 444 1058 450 1058 q 427 1073 438 1058 l 267 1291 q 262 1301 262 1297 q 269 1313 262 1304 q 279 1322 275 1322 q 286 1320 283 1322 l 431 1168 q 438 1160 433 1166 q 444 1154 443 1154 q 451 1160 446 1154 q 458 1168 456 1166 l 612 1320 z "},"":{"ha":631,"x_min":47,"x_max":564,"o":"m 157 357 q 145 308 145 357 q 208 132 145 203 q 362 60 270 60 q 541 140 455 60 q 544 142 542 142 l 547 142 q 555 135 551 142 q 562 127 559 129 q 377 -5 484 31 q 294 -18 340 -18 q 201 7 248 -18 q 119 74 153 33 q 47 289 47 160 q 126 523 47 417 q 341 629 204 629 q 502 541 439 629 q 564 387 564 453 q 550 357 564 357 l 157 357 m 164 422 q 176 410 164 410 l 432 410 q 450 431 450 410 q 406 531 450 479 q 310 582 362 582 q 217 536 259 582 q 164 431 176 490 l 164 422 m 490 983 q 496 985 493 985 q 506 976 499 985 q 513 964 513 967 q 508 954 513 960 l 340 736 q 322 721 328 721 q 305 736 316 721 l 144 954 q 140 964 140 960 q 146 976 140 967 q 157 985 153 985 q 163 983 161 985 l 309 831 q 316 823 311 829 q 322 817 321 817 q 329 823 323 817 q 336 831 334 829 l 490 983 z "},"":{"ha":1099,"x_min":78,"x_max":1065,"o":"m 1058 420 q 1065 410 1065 420 q 1058 395 1065 399 q 1020 382 1040 388 q 985 368 1001 377 q 947 302 947 348 l 947 82 q 876 42 947 67 q 760 5 804 17 q 385 16 550 -46 q 117 276 196 89 q 78 462 78 370 q 96 618 78 555 q 330 914 152 810 q 573 982 446 982 q 845 930 701 982 q 875 921 871 921 l 883 921 l 910 928 l 927 928 q 935 920 935 928 l 935 694 q 920 682 935 682 l 917 682 q 899 716 904 683 q 897 726 898 723 q 611 939 829 939 q 332 806 436 939 q 228 492 228 674 q 333 169 228 309 q 621 29 437 29 q 776 58 715 29 q 812 87 800 70 l 812 273 q 777 366 812 336 q 644 395 741 395 q 637 408 637 395 q 644 420 637 420 l 1058 420 m 601 1213 q 593 1221 599 1215 q 587 1227 588 1227 q 580 1221 585 1227 q 573 1213 575 1215 l 428 1061 q 421 1058 425 1058 q 411 1067 418 1058 q 404 1080 404 1076 q 409 1090 404 1083 l 570 1309 q 579 1318 574 1313 q 587 1322 583 1322 q 604 1308 593 1322 l 772 1090 q 777 1079 777 1082 q 770 1067 777 1076 q 761 1058 764 1058 q 755 1061 758 1058 l 601 1213 z "},"":{"ha":779,"x_min":47,"x_max":773,"o":"m 555 564 q 737 572 555 564 q 758 568 753 572 q 768 545 762 565 q 773 507 773 525 q 770 487 773 490 q 756 484 766 484 l 606 484 q 614 469 610 477 q 627 441 619 460 q 634 383 634 422 q 615 300 634 343 q 558 224 595 257 q 344 149 475 149 q 268 162 309 149 q 241 142 258 151 q 208 123 224 133 q 167 77 167 100 q 358 18 167 20 q 609 6 549 17 q 703 -39 669 -5 q 755 -158 755 -91 q 705 -277 755 -216 q 442 -420 619 -385 q 309 -433 379 -433 q 114 -387 180 -433 q 47 -275 47 -340 q 64 -215 47 -239 q 107 -171 81 -192 q 165 -128 134 -151 q 224 -70 196 -105 q 113 -28 159 -64 q 66 42 66 7 q 85 93 66 77 q 130 122 103 110 q 185 144 156 134 q 236 170 214 154 q 119 253 160 200 q 77 368 77 305 q 162 557 77 484 q 366 630 246 630 q 555 564 485 630 m 187 -144 q 179 -152 187 -144 q 161 -177 171 -159 q 151 -221 151 -195 q 170 -278 151 -248 q 222 -331 189 -307 q 399 -385 296 -385 q 586 -325 502 -385 q 669 -194 669 -265 q 600 -98 669 -122 q 433 -84 568 -87 q 258 -77 298 -81 q 221 -113 240 -97 q 187 -144 203 -128 m 523 383 q 523 431 523 383 q 475 539 523 479 q 349 599 427 599 q 205 503 247 599 q 189 419 189 467 q 229 258 189 322 q 357 180 277 180 q 479 234 436 180 q 523 383 523 288 m 370 876 q 363 884 368 878 q 356 890 357 890 q 350 884 355 890 q 342 876 345 878 l 197 724 q 191 721 195 721 q 180 730 187 721 q 174 743 174 739 q 178 753 174 746 l 340 972 q 348 981 344 976 q 356 985 353 985 q 374 970 362 985 l 542 753 q 547 742 547 745 q 540 730 547 739 q 530 721 533 721 q 524 724 527 721 l 370 876 z "},"":{"ha":1099,"x_min":78,"x_max":1065,"o":"m 1058 420 q 1065 410 1065 420 q 1058 395 1065 399 q 1020 382 1040 388 q 985 368 1001 377 q 947 302 947 348 l 947 82 q 876 42 947 67 q 760 5 804 17 q 385 16 550 -46 q 117 276 196 89 q 78 462 78 370 q 96 618 78 555 q 330 914 152 810 q 573 982 446 982 q 845 930 701 982 q 875 921 871 921 l 883 921 l 910 928 l 927 928 q 935 920 935 928 l 935 694 q 920 682 935 682 l 917 682 q 899 716 904 683 q 897 726 898 723 q 611 939 829 939 q 332 806 436 939 q 228 492 228 674 q 333 169 228 309 q 621 29 437 29 q 776 58 715 29 q 812 87 800 70 l 812 273 q 777 366 812 336 q 644 395 741 395 q 637 408 637 395 q 644 420 637 420 l 1058 420 m 574 1112 q 537 1112 574 1112 q 447 1176 500 1112 q 393 1323 393 1240 l 414 1323 q 467 1230 414 1267 q 574 1192 521 1192 q 683 1237 628 1192 q 737 1323 737 1282 l 760 1323 q 704 1178 760 1245 q 574 1112 648 1112 z "},"":{"ha":779,"x_min":47,"x_max":773,"o":"m 555 564 q 737 572 555 564 q 758 568 753 572 q 768 545 762 565 q 773 507 773 525 q 770 487 773 490 q 756 484 766 484 l 606 484 q 614 469 610 477 q 627 441 619 460 q 634 383 634 422 q 615 300 634 343 q 558 224 595 257 q 344 149 475 149 q 268 162 309 149 q 241 142 258 151 q 208 123 224 133 q 167 77 167 100 q 358 18 167 20 q 609 6 549 17 q 703 -39 669 -5 q 755 -158 755 -91 q 705 -277 755 -216 q 442 -420 619 -385 q 309 -433 379 -433 q 114 -387 180 -433 q 47 -275 47 -340 q 64 -215 47 -239 q 107 -171 81 -192 q 165 -128 134 -151 q 224 -70 196 -105 q 113 -28 159 -64 q 66 42 66 7 q 85 93 66 77 q 130 122 103 110 q 185 144 156 134 q 236 170 214 154 q 119 253 160 200 q 77 368 77 305 q 162 557 77 484 q 366 630 246 630 q 555 564 485 630 m 187 -144 q 179 -152 187 -144 q 161 -177 171 -159 q 151 -221 151 -195 q 170 -278 151 -248 q 222 -331 189 -307 q 399 -385 296 -385 q 586 -325 502 -385 q 669 -194 669 -265 q 600 -98 669 -122 q 433 -84 568 -87 q 258 -77 298 -81 q 221 -113 240 -97 q 187 -144 203 -128 m 523 383 q 523 431 523 383 q 475 539 523 479 q 349 599 427 599 q 205 503 247 599 q 189 419 189 467 q 229 258 189 322 q 357 180 277 180 q 479 234 436 180 q 523 383 523 288 m 385 743 q 348 743 385 743 q 257 807 311 743 q 203 955 203 871 l 224 955 q 278 861 224 899 q 385 824 332 824 q 493 869 439 824 q 548 955 548 914 l 570 955 q 515 810 570 877 q 385 743 459 743 z "},"":{"ha":1099,"x_min":78,"x_max":1065,"o":"m 1058 420 q 1065 410 1065 420 q 1058 395 1065 399 q 1020 382 1040 388 q 985 368 1001 377 q 947 302 947 348 l 947 82 q 876 42 947 67 q 760 5 804 17 q 385 16 550 -46 q 117 276 196 89 q 78 462 78 370 q 96 618 78 555 q 330 914 152 810 q 573 982 446 982 q 845 930 701 982 q 875 921 871 921 l 883 921 l 910 928 l 927 928 q 935 920 935 928 l 935 694 q 920 682 935 682 l 917 682 q 899 716 904 683 q 897 726 898 723 q 611 939 829 939 q 332 806 436 939 q 228 492 228 674 q 333 169 228 309 q 621 29 437 29 q 776 58 715 29 q 812 87 800 70 l 812 273 q 777 366 812 336 q 644 395 741 395 q 637 408 637 395 q 644 420 637 420 l 1058 420 m 642 1228 q 594 1147 642 1168 q 555 1141 580 1141 q 507 1164 530 1141 q 484 1220 484 1186 q 507 1277 484 1253 q 563 1300 530 1300 q 619 1277 596 1300 q 642 1228 642 1254 z "},"":{"ha":779,"x_min":47,"x_max":773,"o":"m 555 564 q 737 572 555 564 q 758 568 753 572 q 768 545 762 565 q 773 507 773 525 q 770 487 773 490 q 756 484 766 484 l 606 484 q 614 469 610 477 q 627 441 619 460 q 634 383 634 422 q 615 300 634 343 q 558 224 595 257 q 344 149 475 149 q 268 162 309 149 q 241 142 258 151 q 208 123 224 133 q 167 77 167 100 q 358 18 167 20 q 609 6 549 17 q 703 -39 669 -5 q 755 -158 755 -91 q 705 -277 755 -216 q 442 -420 619 -385 q 309 -433 379 -433 q 114 -387 180 -433 q 47 -275 47 -340 q 64 -215 47 -239 q 107 -171 81 -192 q 165 -128 134 -151 q 224 -70 196 -105 q 113 -28 159 -64 q 66 42 66 7 q 85 93 66 77 q 130 122 103 110 q 185 144 156 134 q 236 170 214 154 q 119 253 160 200 q 77 368 77 305 q 162 557 77 484 q 366 630 246 630 q 555 564 485 630 m 187 -144 q 179 -152 187 -144 q 161 -177 171 -159 q 151 -221 151 -195 q 170 -278 151 -248 q 222 -331 189 -307 q 399 -385 296 -385 q 586 -325 502 -385 q 669 -194 669 -265 q 600 -98 669 -122 q 433 -84 568 -87 q 258 -77 298 -81 q 221 -113 240 -97 q 187 -144 203 -128 m 523 383 q 523 431 523 383 q 475 539 523 479 q 349 599 427 599 q 205 503 247 599 q 189 419 189 467 q 229 258 189 322 q 357 180 277 180 q 479 234 436 180 q 523 383 523 288 m 432 841 q 384 760 432 781 q 345 754 370 754 q 297 777 320 754 q 273 832 273 799 q 297 889 273 866 q 353 913 320 913 q 409 890 386 913 q 432 841 432 867 z "},"":{"ha":1099,"x_min":78,"x_max":1065,"o":"m 1058 420 q 1065 410 1065 420 q 1058 395 1065 399 q 1020 382 1040 388 q 985 368 1001 377 q 947 302 947 348 l 947 82 q 876 42 947 67 q 760 5 804 17 q 385 16 550 -46 q 117 276 196 89 q 78 462 78 370 q 96 618 78 555 q 330 914 152 810 q 573 982 446 982 q 845 930 701 982 q 875 921 871 921 l 883 921 l 910 928 l 927 928 q 935 920 935 928 l 935 694 q 920 682 935 682 l 917 682 q 899 716 904 683 q 897 726 898 723 q 611 939 829 939 q 332 806 436 939 q 228 492 228 674 q 333 169 228 309 q 621 29 437 29 q 776 58 715 29 q 812 87 800 70 l 812 273 q 777 366 812 336 q 644 395 741 395 q 637 408 637 395 q 644 420 637 420 l 1058 420 m 684 -204 q 566 -415 684 -330 q 525 -434 538 -434 q 515 -416 515 -434 q 529 -395 515 -405 q 551 -378 544 -385 q 619 -267 619 -317 q 611 -243 619 -248 q 578 -239 604 -239 q 524 -220 552 -239 q 496 -162 496 -200 q 514 -108 496 -124 q 574 -79 545 -79 q 655 -121 627 -79 q 684 -204 684 -163 z "},"":{"ha":779,"x_min":47,"x_max":773,"o":"m 555 564 q 737 572 555 564 q 758 568 753 572 q 768 545 762 565 q 773 507 773 525 q 770 487 773 490 q 756 484 766 484 l 606 484 q 614 469 610 477 q 627 441 619 460 q 634 383 634 422 q 615 300 634 343 q 558 224 595 257 q 344 149 475 149 q 268 162 309 149 q 241 142 258 151 q 208 123 224 133 q 167 77 167 100 q 358 18 167 20 q 609 6 549 17 q 703 -39 669 -5 q 755 -158 755 -91 q 705 -277 755 -216 q 442 -420 619 -385 q 309 -433 379 -433 q 114 -387 180 -433 q 47 -275 47 -340 q 64 -215 47 -239 q 107 -171 81 -192 q 165 -128 134 -151 q 224 -70 196 -105 q 113 -28 159 -64 q 66 42 66 7 q 85 93 66 77 q 130 122 103 110 q 185 144 156 134 q 236 170 214 154 q 119 253 160 200 q 77 368 77 305 q 162 557 77 484 q 366 630 246 630 q 555 564 485 630 m 187 -144 q 179 -152 187 -144 q 161 -177 171 -159 q 151 -221 151 -195 q 170 -278 151 -248 q 222 -331 189 -307 q 399 -385 296 -385 q 586 -325 502 -385 q 669 -194 669 -265 q 600 -98 669 -122 q 433 -84 568 -87 q 258 -77 298 -81 q 221 -113 240 -97 q 187 -144 203 -128 m 523 383 q 523 431 523 383 q 475 539 523 479 q 349 599 427 599 q 205 503 247 599 q 189 419 189 467 q 229 258 189 322 q 357 180 277 180 q 479 234 436 180 q 523 383 523 288 m 278 886 q 397 1096 278 1012 q 438 1116 424 1116 q 448 1104 448 1116 q 444 1087 448 1092 q 434 1078 439 1082 q 424 1070 429 1074 q 411 1061 418 1067 q 343 949 343 999 q 368 920 343 920 q 458 877 436 920 q 467 833 467 861 q 442 783 467 806 q 389 761 417 761 q 307 803 336 761 q 278 886 278 844 z "},"":{"ha":1161,"x_min":41,"x_max":1120,"o":"m 988 123 q 1115 27 988 31 q 1120 22 1120 27 l 1120 5 q 1115 0 1120 0 l 684 0 q 678 5 678 0 l 678 22 q 712 27 678 27 q 789 42 746 27 q 856 115 856 64 l 856 439 q 854 448 856 446 q 845 450 852 450 l 311 450 q 302 448 304 450 q 300 439 300 446 l 300 109 q 420 27 300 27 q 425 22 425 27 l 425 5 q 420 0 425 0 l 46 0 q 41 5 41 0 l 41 22 q 54 27 41 27 q 168 124 168 27 l 168 848 q 73 932 168 927 q 59 938 59 932 l 59 951 q 64 956 59 956 l 404 956 q 410 951 410 956 l 410 938 q 397 934 410 934 q 300 838 300 934 l 300 525 q 302 516 300 518 q 311 514 304 514 l 845 514 q 854 516 852 514 q 856 525 856 518 l 856 849 q 854 860 854 855 q 852 876 854 865 q 804 914 847 899 q 705 932 760 928 q 700 938 700 932 l 700 951 q 705 956 700 956 l 1096 956 q 1101 951 1101 956 l 1101 938 q 1088 934 1101 934 q 988 838 988 934 l 988 123 m 595 1213 q 587 1221 593 1215 q 581 1227 582 1227 q 574 1221 579 1227 q 567 1213 569 1215 l 422 1061 q 415 1058 419 1058 q 405 1067 412 1058 q 398 1080 398 1076 q 403 1090 398 1083 l 564 1309 q 573 1318 568 1313 q 581 1322 577 1322 q 598 1308 587 1322 l 766 1090 q 771 1079 771 1082 q 764 1067 771 1076 q 754 1058 758 1058 q 749 1061 751 1058 l 595 1213 z "},"":{"ha":762,"x_min":20,"x_max":742,"o":"m 383 1291 q 375 1284 382 1291 q 359 1269 369 1278 q 331 1244 349 1260 q 288 1206 313 1229 q 218 1147 222 1147 q 208 1155 214 1147 q 201 1166 201 1162 q 205 1174 201 1169 l 367 1360 q 375 1367 371 1363 q 383 1371 380 1371 q 401 1359 389 1371 l 569 1174 q 574 1165 574 1168 q 567 1155 574 1162 q 557 1147 560 1147 q 551 1149 554 1147 l 383 1291 m 231 525 q 236 509 231 509 q 243 511 241 509 q 271 543 245 513 q 427 628 348 628 q 578 582 530 628 q 637 386 637 524 l 637 103 q 710 26 637 37 q 742 12 742 22 q 735 0 742 1 l 433 0 q 426 9 426 1 q 458 26 426 22 q 531 103 531 37 l 531 379 q 517 509 531 479 q 404 568 490 568 q 291 523 351 568 q 231 424 231 478 l 231 103 q 304 26 231 37 q 336 12 336 22 q 330 0 336 1 l 27 0 q 20 9 20 1 q 52 26 20 22 q 125 103 125 37 l 125 949 q 94 988 125 977 q 65 996 81 993 q 40 1002 50 999 q 29 1007 31 1004 q 26 1017 26 1009 q 37 1030 26 1025 l 210 1112 q 220 1116 218 1116 q 231 1099 231 1116 l 231 525 z "},"":{"ha":1161,"x_min":41,"x_max":1120,"o":"m 988 123 q 1115 27 988 31 q 1120 22 1120 27 l 1120 5 q 1115 0 1120 0 l 684 0 q 678 5 678 0 l 678 22 q 712 27 678 27 q 789 42 746 27 q 856 115 856 64 l 856 439 q 854 448 856 446 q 845 450 852 450 l 311 450 q 302 448 304 450 q 300 439 300 446 l 300 109 q 420 27 300 27 q 425 22 425 27 l 425 5 q 420 0 425 0 l 46 0 q 41 5 41 0 l 41 22 q 54 27 41 27 q 168 124 168 27 l 168 713 l 81 713 q 52 730 52 713 l 52 755 q 81 772 52 772 l 168 772 l 168 848 q 73 932 168 927 q 59 938 59 932 l 59 951 q 64 956 59 956 l 404 956 q 410 951 410 956 l 410 938 q 397 934 410 934 q 300 838 300 934 l 300 772 l 856 772 l 856 849 q 854 860 854 855 q 852 876 854 865 q 804 914 847 899 q 705 932 760 928 q 700 938 700 932 l 700 951 q 705 956 700 956 l 1096 956 q 1101 951 1101 956 l 1101 938 q 1088 934 1101 934 q 988 838 988 934 l 988 772 l 1074 772 q 1101 755 1101 772 l 1101 730 q 1074 713 1101 713 l 988 713 l 988 123 m 300 525 q 302 516 300 518 q 311 514 304 514 l 845 514 q 854 516 852 514 q 856 525 856 518 l 856 713 l 300 713 l 300 525 z "},"":{"ha":762,"x_min":20,"x_max":742,"o":"m 231 525 q 236 509 231 509 q 243 511 241 509 q 271 543 245 513 q 427 628 348 628 q 578 582 530 628 q 637 386 637 524 l 637 103 q 710 26 637 37 q 742 12 742 22 q 735 0 742 1 l 433 0 q 426 9 426 1 q 458 26 426 22 q 531 103 531 37 l 531 379 q 517 509 531 479 q 404 568 490 568 q 291 523 351 568 q 231 424 231 478 l 231 103 q 304 26 231 37 q 336 12 336 22 q 330 0 336 1 l 27 0 q 20 9 20 1 q 52 26 20 22 q 125 103 125 37 l 125 776 l 50 776 q 33 793 33 776 l 33 817 q 50 834 33 834 l 125 834 l 125 949 q 94 988 125 977 q 65 996 81 993 q 40 1002 50 999 q 29 1007 31 1004 q 26 1017 26 1009 q 37 1030 26 1025 l 210 1112 q 220 1116 218 1116 q 231 1099 231 1116 l 231 834 l 439 834 q 456 817 456 834 l 456 793 q 439 776 456 776 l 231 776 l 231 525 z "},"":{"ha":474,"x_min":37,"x_max":442,"o":"m 171 848 q 77 929 171 929 q 62 935 62 929 l 62 951 q 68 956 62 956 l 408 956 q 413 951 413 956 l 413 935 q 383 929 413 929 q 328 910 353 929 q 303 832 303 891 l 303 109 q 397 27 303 27 q 412 22 412 27 l 412 5 q 406 0 412 0 l 66 0 q 61 5 61 0 l 61 22 q 91 27 61 27 q 146 46 121 27 q 171 124 171 65 l 171 848 m 351 1229 q 406 1276 394 1229 q 409 1298 409 1288 q 420 1308 409 1308 l 433 1308 q 442 1269 442 1308 q 412 1190 442 1231 q 337 1149 381 1149 q 248 1173 294 1149 q 134 1220 161 1220 q 87 1197 106 1220 q 67 1142 67 1173 q 56 1134 67 1134 l 42 1134 q 37 1155 37 1134 q 66 1255 37 1210 q 137 1300 95 1300 q 252 1264 180 1300 q 351 1229 324 1229 z "},"":{"ha":391,"x_min":-3,"x_max":402,"o":"m 311 849 q 366 896 354 849 q 369 918 369 908 q 380 928 369 928 l 393 928 q 402 889 402 928 q 372 810 402 851 q 297 770 341 770 q 208 793 254 770 q 94 840 121 840 q 47 817 66 840 q 27 762 27 793 q 16 754 27 754 l 2 754 q -3 775 -3 754 q 26 875 -3 830 q 97 920 55 920 q 212 885 140 920 q 311 849 284 849 m 325 26 q 357 9 357 22 q 350 0 357 1 l 47 0 q 41 9 41 1 q 73 26 41 22 q 146 103 146 37 l 146 462 q 115 501 146 490 q 85 509 101 506 q 61 515 70 512 q 49 520 52 517 q 47 530 47 522 q 57 543 47 538 l 230 625 q 240 629 238 629 q 252 612 252 629 l 252 103 q 325 26 252 37 z "},"":{"ha":474,"x_min":18,"x_max":456,"o":"m 171 848 q 77 929 171 929 q 62 935 62 929 l 62 951 q 68 956 62 956 l 408 956 q 413 951 413 956 l 413 935 q 383 929 413 929 q 328 910 353 929 q 303 832 303 891 l 303 109 q 397 27 303 27 q 412 22 412 27 l 412 5 q 406 0 412 0 l 66 0 q 61 5 61 0 l 61 22 q 91 27 61 27 q 146 46 121 27 q 171 124 171 65 l 171 848 m 18 1264 l 456 1264 l 456 1177 l 18 1177 l 18 1264 z "},"":{"ha":409,"x_min":-31,"x_max":408,"o":"m 336 26 q 368 9 368 22 q 361 0 368 1 l 59 0 q 52 9 52 1 q 84 26 52 22 q 157 103 157 37 l 157 462 q 126 501 157 490 q 97 509 113 506 q 72 515 81 512 q 61 520 63 517 q 58 530 58 522 q 68 543 58 538 l 241 625 q 252 629 250 629 q 263 612 263 629 l 263 103 q 336 26 263 37 m -31 897 l 408 897 l 408 809 l -31 809 l -31 897 z "},"":{"ha":474,"x_min":54,"x_max":420,"o":"m 171 848 q 77 929 171 929 q 62 935 62 929 l 62 951 q 68 956 62 956 l 408 956 q 413 951 413 956 l 413 935 q 383 929 413 929 q 328 910 353 929 q 303 832 303 891 l 303 109 q 397 27 303 27 q 412 22 412 27 l 412 5 q 406 0 412 0 l 66 0 q 61 5 61 0 l 61 22 q 91 27 61 27 q 146 46 121 27 q 171 124 171 65 l 171 848 m 235 1112 q 198 1112 235 1112 q 107 1176 161 1112 q 54 1323 54 1240 l 75 1323 q 128 1230 75 1267 q 235 1192 182 1192 q 343 1237 289 1192 q 398 1323 398 1282 l 420 1323 q 365 1178 420 1245 q 235 1112 309 1112 z "},"":{"ha":394,"x_min":0,"x_max":367,"o":"m 325 26 q 357 9 357 22 q 350 0 357 1 l 47 0 q 41 9 41 1 q 73 26 41 22 q 146 103 146 37 l 146 462 q 115 501 146 490 q 85 509 101 506 q 61 515 70 512 q 49 520 52 517 q 47 530 47 522 q 57 543 47 538 l 230 625 q 240 629 238 629 q 252 612 252 629 l 252 103 q 325 26 252 37 m 182 743 q 145 743 182 743 q 54 807 108 743 q 0 955 0 871 l 21 955 q 75 861 21 899 q 182 824 128 824 q 290 869 235 824 q 345 955 345 914 l 367 955 q 311 810 367 877 q 182 743 256 743 z "},"":{"ha":474,"x_min":61,"x_max":413,"o":"m 171 848 q 77 929 171 929 q 62 935 62 929 l 62 951 q 68 956 62 956 l 408 956 q 413 951 413 956 l 413 935 q 383 929 413 929 q 328 910 353 929 q 303 832 303 891 l 303 109 q 397 27 303 27 q 412 22 412 27 l 412 5 q 406 0 412 0 l 66 0 q 61 5 61 0 l 61 22 q 91 27 61 27 q 146 46 121 27 q 171 124 171 65 l 171 848 m 364 -304 q 386 -321 386 -304 q 286 -361 386 -361 q 145 -296 185 -361 q 130 -235 130 -271 q 172 -105 130 -171 q 271 0 214 -40 l 326 0 q 296 -33 325 -1 q 221 -208 221 -117 q 250 -280 221 -253 q 323 -307 278 -307 l 364 -304 z "},"":{"ha":391,"x_min":41,"x_max":357,"o":"m 47 0 q 41 9 41 1 q 73 26 41 22 q 146 103 146 37 l 146 462 q 115 501 146 490 q 85 509 101 506 q 61 515 70 512 q 49 520 52 517 q 47 530 47 522 q 57 543 47 538 l 230 625 q 240 629 238 629 q 252 612 252 629 l 252 103 q 325 26 252 37 q 357 12 357 22 q 350 0 357 1 l 47 0 m 189 819 q 175 819 189 819 q 139 837 161 819 q 118 886 118 854 q 138 936 118 918 q 187 954 159 954 q 234 932 215 954 q 254 886 254 911 q 235 840 254 861 q 189 819 217 819 m 297 -304 q 319 -321 319 -304 q 218 -361 319 -361 q 78 -296 118 -361 q 62 -235 62 -271 q 105 -105 62 -171 q 203 0 147 -40 l 259 0 q 229 -33 258 -1 q 154 -208 154 -117 q 182 -280 154 -253 q 256 -307 211 -307 l 297 -304 z "},"":{"ha":474,"x_min":61,"x_max":413,"o":"m 171 848 q 77 929 171 929 q 62 935 62 929 l 62 951 q 68 956 62 956 l 408 956 q 413 951 413 956 l 413 935 q 383 929 413 929 q 328 910 353 929 q 303 832 303 891 l 303 109 q 397 27 303 27 q 412 22 412 27 l 412 5 q 406 0 412 0 l 66 0 q 61 5 61 0 l 61 22 q 91 27 61 27 q 146 46 121 27 q 171 124 171 65 l 171 848 m 317 1228 q 269 1147 317 1168 q 230 1141 254 1141 q 181 1164 205 1141 q 158 1220 158 1186 q 181 1277 158 1253 q 238 1300 205 1300 q 294 1277 271 1300 q 317 1228 317 1254 z "},"":{"ha":391,"x_min":41,"x_max":357,"o":"m 325 26 q 357 9 357 22 q 350 0 357 1 l 47 0 q 41 9 41 1 q 73 26 41 22 q 146 103 146 37 l 146 462 q 115 501 146 490 q 85 509 101 506 q 61 515 70 512 q 49 520 52 517 q 47 530 47 522 q 57 543 47 538 l 230 625 q 240 629 238 629 q 252 612 252 629 l 252 103 q 325 26 252 37 z "},"":{"ha":944,"x_min":61,"x_max":883,"o":"m 171 848 q 77 929 171 929 q 62 935 62 929 l 62 951 q 68 956 62 956 l 408 956 q 413 951 413 956 l 413 935 q 383 929 413 929 q 328 910 353 929 q 303 832 303 891 l 303 109 q 397 27 303 27 q 412 22 412 27 l 412 5 q 406 0 412 0 l 66 0 q 61 5 61 0 l 61 22 q 91 27 61 27 q 146 46 121 27 q 171 124 171 65 l 171 848 m 883 935 q 855 929 883 929 q 800 910 827 929 q 773 832 773 890 l 773 -7 q 687 -288 773 -158 q 539 -415 628 -378 q 445 -434 494 -434 q 351 -412 397 -434 q 304 -363 304 -391 q 326 -318 304 -336 q 371 -300 348 -300 q 409 -305 394 -300 q 435 -317 424 -310 q 455 -333 446 -324 q 478 -353 463 -341 q 520 -365 494 -365 q 600 -321 572 -365 q 634 -218 627 -277 q 641 -68 641 -159 l 641 848 q 564 926 641 916 q 509 929 540 929 q 504 935 504 929 l 504 951 q 509 956 504 956 l 878 956 q 883 951 883 956 l 883 935 z "},"":{"ha":749,"x_min":41,"x_max":604,"o":"m 47 0 q 41 9 41 1 q 73 26 41 22 q 146 103 146 37 l 146 462 q 115 501 146 490 q 85 509 101 506 q 61 515 70 512 q 49 520 52 517 q 47 530 47 522 q 57 543 47 538 l 230 625 q 240 629 238 629 q 252 612 252 629 l 252 103 q 325 26 252 37 q 357 12 357 22 q 350 0 357 1 l 47 0 m 189 819 q 175 819 189 819 q 139 837 161 819 q 118 886 118 854 q 138 936 118 918 q 187 954 159 954 q 234 932 215 954 q 254 886 254 911 q 235 840 254 861 q 189 819 217 819 m 427 -368 q 498 -215 498 -351 l 498 462 q 467 501 498 490 q 438 509 454 506 q 413 515 422 512 q 402 520 404 517 q 399 530 399 522 q 410 543 399 538 l 583 625 q 593 629 591 629 q 604 612 604 629 l 604 -86 q 559 -283 604 -195 q 522 -339 544 -314 q 365 -430 463 -419 q 296 -434 332 -434 q 224 -407 260 -434 q 185 -347 188 -379 q 221 -293 185 -311 q 241 -288 233 -288 q 335 -347 257 -288 q 427 -368 363 -368 m 533 819 q 519 819 533 819 q 483 837 505 819 q 461 886 461 854 q 481 936 461 918 q 530 954 502 954 q 578 932 559 954 q 597 886 597 911 q 579 840 597 861 q 533 819 561 819 z "},"":{"ha":470,"x_min":-170,"x_max":409,"o":"m 409 935 q 381 929 409 929 q 326 910 353 929 q 299 832 299 890 l 299 -7 q 213 -288 299 -158 q 65 -415 154 -378 q -29 -434 20 -434 q -123 -412 -77 -434 q -170 -363 -170 -391 q -148 -318 -170 -336 q -103 -300 -126 -300 q -65 -305 -80 -300 q -39 -317 -50 -310 q -19 -333 -28 -324 q 4 -353 -11 -341 q 46 -365 20 -365 q 126 -321 98 -365 q 160 -218 153 -277 q 167 -68 167 -159 l 167 848 q 90 926 167 916 q 35 929 66 929 q 30 935 30 929 l 30 951 q 35 956 30 956 l 404 956 q 409 951 409 956 l 409 935 m 231 1213 q 224 1221 229 1215 q 217 1227 218 1227 q 211 1221 216 1227 q 203 1213 205 1215 l 58 1061 q 52 1058 56 1058 q 41 1067 48 1058 q 35 1080 35 1076 q 39 1090 35 1083 l 201 1309 q 209 1318 205 1313 q 217 1322 214 1322 q 235 1308 223 1322 l 403 1090 q 408 1079 408 1082 q 401 1067 408 1076 q 391 1058 394 1058 q 385 1061 388 1058 l 231 1213 z "},"":{"ha":391,"x_min":-168,"x_max":383,"o":"m 207 876 q 199 884 205 878 q 193 890 194 890 q 186 884 191 890 q 179 876 181 878 l 34 724 q 27 721 31 721 q 17 730 24 721 q 10 743 10 739 q 15 753 10 746 l 176 972 q 185 981 180 976 q 193 985 189 985 q 210 970 199 985 l 378 753 q 383 742 383 745 q 376 730 383 739 q 367 721 370 721 q 361 724 363 721 l 207 876 m 74 -368 q 146 -215 146 -351 l 146 462 q 115 501 146 490 q 85 509 101 506 q 61 515 70 512 q 49 520 52 517 q 47 530 47 522 q 57 543 47 538 l 230 625 q 240 629 238 629 q 252 612 252 629 l 252 -86 q 207 -283 252 -195 q 170 -339 191 -314 q 12 -430 110 -419 q -57 -434 -20 -434 q -129 -407 -93 -434 q -168 -347 -165 -379 q -132 -293 -168 -311 q -111 -288 -120 -288 q -18 -347 -96 -288 q 74 -368 10 -368 z "},"":{"ha":1034,"x_min":27,"x_max":1030,"o":"m 436 5 q 431 0 436 0 l 32 0 q 27 5 27 0 l 27 18 q 56 24 27 24 q 126 46 85 25 q 168 109 168 66 l 168 848 q 33 932 168 924 q 27 938 27 932 l 27 951 q 32 956 27 956 l 431 956 q 436 951 436 956 l 436 938 q 408 934 436 934 q 346 918 380 934 q 300 846 300 896 l 300 547 q 312 488 300 488 q 386 525 341 488 q 465 601 431 562 q 535 694 500 640 q 583 768 570 748 q 634 876 634 840 q 603 924 634 912 q 545 932 583 932 l 538 932 q 532 938 532 932 l 532 951 q 538 956 532 956 l 930 956 q 935 951 935 956 l 935 938 q 927 930 935 930 q 800 907 840 927 q 736 863 760 887 q 684 791 712 840 q 511 556 597 644 q 473 510 474 519 q 528 456 476 503 q 802 132 659 336 q 942 36 855 54 q 1015 22 1000 22 q 1030 17 1030 22 l 1030 5 q 1025 0 1030 0 l 581 0 q 576 5 576 0 l 576 18 q 599 26 576 24 q 675 71 675 33 q 539 258 671 109 q 490 317 515 285 q 320 444 387 444 l 307 444 q 300 435 300 444 l 300 117 q 431 22 300 22 q 436 17 436 22 l 436 5 m 603 -204 q 484 -415 603 -330 q 444 -434 457 -434 q 433 -416 433 -434 q 448 -395 433 -405 q 469 -378 463 -385 q 538 -267 538 -317 q 530 -243 538 -248 q 496 -239 522 -239 q 443 -220 471 -239 q 414 -162 414 -200 q 433 -108 414 -124 q 492 -79 464 -79 q 574 -121 545 -79 q 603 -204 603 -163 z "},"":{"ha":743,"x_min":30,"x_max":736,"o":"m 249 325 q 241 292 241 325 l 241 103 q 314 26 241 37 q 346 11 346 22 q 339 0 346 0 l 37 0 q 30 9 30 1 q 62 26 30 22 q 135 103 135 37 l 135 949 q 104 988 135 977 q 75 996 90 993 q 50 1002 59 999 q 38 1007 41 1004 q 36 1017 36 1009 q 46 1030 36 1025 l 219 1112 q 229 1116 227 1116 q 241 1099 241 1116 l 241 422 q 255 399 246 403 q 274 396 264 396 q 339 427 294 396 q 420 496 384 458 q 457 549 457 534 q 444 567 457 564 q 415 573 431 571 q 387 578 399 574 q 374 596 374 582 q 401 610 374 610 l 660 610 q 684 595 684 610 q 668 582 684 587 q 608 567 652 577 q 536 536 563 557 l 342 385 q 355 363 342 376 l 633 69 q 689 33 661 41 q 727 22 718 24 q 736 12 736 19 q 726 0 736 0 l 428 0 q 421 8 421 0 q 438 24 421 20 q 489 58 489 33 q 479 78 489 66 q 460 102 469 90 l 250 323 q 250 325 250 324 l 249 325 m 488 -204 q 369 -415 488 -330 q 328 -434 342 -434 q 318 -416 318 -434 q 333 -395 318 -405 q 354 -378 347 -385 q 422 -267 422 -317 q 415 -243 422 -248 q 381 -239 407 -239 q 327 -220 355 -239 q 299 -162 299 -200 q 317 -108 299 -124 q 377 -79 349 -79 q 459 -121 430 -79 q 488 -204 488 -163 z "},"":{"ha":743,"x_min":30,"x_max":736,"o":"m 249 325 q 241 292 241 325 l 241 103 q 314 26 241 37 q 346 12 346 22 q 339 0 346 2 l 37 0 q 30 9 30 1 q 62 26 30 22 q 135 103 135 37 l 135 495 q 104 534 135 524 q 75 542 90 539 q 50 548 59 545 q 38 553 41 551 q 36 563 36 555 q 46 576 36 571 l 219 658 q 229 662 227 662 q 241 646 241 662 l 241 422 q 255 399 246 403 q 274 396 264 396 q 339 427 294 396 q 420 496 384 458 q 457 549 457 534 q 444 567 457 564 q 415 573 431 571 q 387 578 399 574 q 374 596 374 582 q 401 610 374 610 l 660 610 q 684 595 684 610 q 668 582 684 587 q 608 567 652 577 q 536 536 563 557 l 342 385 q 355 363 342 376 l 633 69 q 689 33 661 41 q 727 22 718 24 q 736 12 736 19 q 726 0 736 0 l 435 0 q 421 12 421 0 q 432 24 421 20 q 455 32 442 28 q 489 58 489 43 q 479 79 489 68 q 460 102 469 90 l 250 323 q 250 325 250 324 l 249 325 z "},"":{"ha":840,"x_min":27,"x_max":836,"o":"m 33 0 q 27 5 27 0 l 27 22 q 33 27 27 27 l 49 27 q 151 52 107 27 q 180 83 168 62 q 191 131 191 104 l 191 848 q 137 913 191 890 q 56 929 99 929 l 41 929 q 36 935 36 929 l 36 951 q 41 956 36 956 l 500 956 q 506 951 506 956 l 506 935 q 500 929 506 929 l 471 929 q 348 909 401 929 q 328 891 332 904 q 323 848 323 879 l 323 96 q 336 75 325 85 q 360 64 347 64 l 628 64 q 747 136 688 64 q 785 186 762 155 q 814 222 808 218 q 836 221 836 238 q 833 213 836 217 l 731 12 q 717 0 725 0 l 33 0 m 198 1081 q 195 1085 195 1084 q 198 1089 195 1086 l 342 1289 q 391 1322 367 1322 q 428 1307 414 1322 q 442 1266 442 1292 q 405 1208 442 1240 l 222 1061 q 217 1059 219 1059 q 213 1061 215 1059 l 198 1081 z "},"":{"ha":353,"x_min":14,"x_max":332,"o":"m 298 26 q 330 9 330 22 q 323 0 330 1 l 20 0 q 14 9 14 1 q 45 26 14 22 q 119 103 119 37 l 119 949 q 87 988 119 977 q 58 996 74 993 q 34 1002 43 999 q 22 1007 24 1004 q 20 1017 20 1009 q 30 1030 20 1025 l 203 1112 q 213 1116 211 1116 q 224 1099 224 1116 l 224 103 q 298 26 224 37 m 45 1191 q 47 1196 45 1194 l 239 1352 q 286 1373 264 1373 q 320 1357 307 1373 q 332 1326 332 1341 q 278 1258 332 1281 l 64 1163 q 60 1162 63 1162 q 55 1166 56 1162 l 45 1191 z "},"":{"ha":840,"x_min":27,"x_max":836,"o":"m 33 0 q 27 5 27 0 l 27 22 q 33 27 27 27 l 49 27 q 151 52 107 27 q 180 83 168 62 q 191 131 191 104 l 191 848 q 137 913 191 890 q 56 929 99 929 l 41 929 q 36 935 36 929 l 36 951 q 41 956 36 956 l 500 956 q 506 951 506 956 l 506 935 q 500 929 506 929 l 471 929 q 348 909 401 929 q 328 891 332 904 q 323 848 323 879 l 323 96 q 336 75 325 85 q 360 64 347 64 l 628 64 q 747 136 688 64 q 785 186 762 155 q 814 222 808 218 q 836 221 836 238 q 833 213 836 217 l 731 12 q 717 0 725 0 l 33 0 m 522 -204 q 403 -415 522 -330 q 362 -434 376 -434 q 352 -416 352 -434 q 367 -395 352 -405 q 388 -378 381 -385 q 456 -267 456 -317 q 449 -243 456 -248 q 415 -239 441 -239 q 361 -220 389 -239 q 333 -162 333 -200 q 351 -108 333 -124 q 411 -79 382 -79 q 493 -121 464 -79 q 522 -204 522 -163 z "},"":{"ha":353,"x_min":14,"x_max":330,"o":"m 298 26 q 330 9 330 22 q 323 0 330 1 l 20 0 q 14 9 14 1 q 45 26 14 22 q 119 103 119 37 l 119 949 q 87 988 119 977 q 58 996 74 993 q 34 1002 43 999 q 22 1007 24 1004 q 20 1017 20 1009 q 30 1030 20 1025 l 203 1112 q 213 1116 211 1116 q 224 1099 224 1116 l 224 103 q 298 26 224 37 m 271 -204 q 152 -415 271 -330 q 111 -434 125 -434 q 101 -416 101 -434 q 116 -395 101 -405 q 137 -378 130 -385 q 205 -267 205 -317 q 198 -243 205 -248 q 164 -239 190 -239 q 110 -220 138 -239 q 82 -162 82 -200 q 100 -108 82 -124 q 160 -79 132 -79 q 242 -121 213 -79 q 271 -204 271 -163 z "},"":{"ha":840,"x_min":27,"x_max":836,"o":"m 33 0 q 27 5 27 0 l 27 22 q 33 27 27 27 l 49 27 q 151 52 107 27 q 180 83 168 62 q 191 131 191 104 l 191 848 q 137 913 191 890 q 56 929 99 929 l 41 929 q 36 935 36 929 l 36 951 q 41 956 36 956 l 500 956 q 506 951 506 956 l 506 935 q 500 929 506 929 l 471 929 q 348 909 401 929 q 328 891 332 904 q 323 848 323 879 l 323 96 q 336 75 325 85 q 360 64 347 64 l 628 64 q 747 136 688 64 q 785 186 762 155 q 814 222 808 218 q 836 221 836 238 q 833 213 836 217 l 731 12 q 717 0 725 0 l 33 0 m 806 831 q 687 621 806 705 q 646 602 660 602 q 636 613 636 602 q 640 630 636 625 q 650 640 644 635 q 660 647 655 644 q 673 656 665 650 q 741 768 741 718 q 715 798 741 798 q 625 840 648 798 q 617 884 617 856 q 642 934 617 911 q 695 956 667 956 q 777 915 748 956 q 806 831 806 873 z "},"":{"ha":507,"x_min":14,"x_max":528,"o":"m 298 26 q 330 9 330 22 q 323 0 330 1 l 20 0 q 14 9 14 1 q 45 26 14 22 q 119 103 119 37 l 119 949 q 87 988 119 977 q 58 996 74 993 q 34 1002 43 999 q 22 1007 24 1004 q 20 1017 20 1009 q 30 1030 20 1025 l 203 1112 q 213 1116 211 1116 q 224 1099 224 1116 l 224 103 q 298 26 224 37 m 528 989 q 409 779 528 863 q 368 760 382 760 q 358 771 358 760 q 362 788 358 783 q 372 798 366 793 q 382 805 377 802 q 395 814 387 808 q 463 926 463 876 q 437 956 463 956 q 347 998 370 956 q 339 1042 339 1014 q 364 1092 339 1069 q 417 1114 389 1114 q 499 1073 470 1114 q 528 989 528 1031 z "},"":{"ha":840,"x_min":27,"x_max":836,"o":"m 33 0 q 27 5 27 0 l 27 22 q 33 27 27 27 l 49 27 q 151 52 107 27 q 180 83 168 62 q 191 131 191 104 l 191 848 q 137 913 191 890 q 56 929 99 929 l 41 929 q 36 935 36 929 l 36 951 q 41 956 36 956 l 500 956 q 506 951 506 956 l 506 935 q 500 929 506 929 l 471 929 q 348 909 401 929 q 328 891 332 904 q 323 848 323 879 l 323 96 q 336 75 325 85 q 360 64 347 64 l 628 64 q 747 136 688 64 q 785 186 762 155 q 814 222 808 218 q 836 221 836 238 q 833 213 836 217 l 731 12 q 717 0 725 0 l 33 0 m 690 455 q 642 374 690 395 q 603 368 627 368 q 554 391 578 368 q 531 447 531 413 q 554 504 531 480 q 611 527 578 527 q 667 504 644 527 q 690 455 690 481 z "},"":{"ha":531,"x_min":14,"x_max":527,"o":"m 298 26 q 330 9 330 22 q 323 0 330 1 l 20 0 q 14 9 14 1 q 45 26 14 22 q 119 103 119 37 l 119 949 q 87 988 119 977 q 58 996 74 993 q 34 1002 43 999 q 22 1007 24 1004 q 20 1017 20 1009 q 30 1030 20 1025 l 203 1112 q 213 1116 211 1116 q 224 1099 224 1116 l 224 103 q 298 26 224 37 m 527 469 q 479 388 527 408 q 440 382 465 382 q 392 404 415 382 q 368 460 368 427 q 392 517 368 494 q 448 541 415 541 q 504 517 481 541 q 527 469 527 494 z "},"":{"ha":840,"x_min":28,"x_max":836,"o":"m 28 22 q 33 27 28 27 l 50 27 q 152 52 108 27 q 180 83 169 62 q 192 131 192 104 l 192 404 l 81 326 q 71 323 78 323 q 58 330 63 323 l 43 350 q 40 362 40 355 q 48 374 40 369 l 192 475 l 192 848 q 138 913 192 890 q 57 929 100 929 l 42 929 q 37 935 37 929 l 37 951 q 42 956 37 956 l 501 956 q 507 951 507 956 l 507 935 q 501 929 507 929 l 472 929 q 349 909 402 929 q 329 891 333 904 q 324 848 324 879 l 324 568 l 536 715 q 547 719 539 719 q 559 711 554 719 l 574 692 q 577 687 575 689 q 578 679 578 685 q 569 667 578 673 l 324 496 l 324 96 q 336 75 326 85 q 361 64 347 64 l 629 64 q 747 136 689 64 q 786 186 763 155 q 817 224 809 218 q 831 230 825 230 q 836 223 836 230 q 834 213 836 217 l 732 12 q 718 0 726 0 l 33 0 q 28 5 28 0 l 28 22 z "},"":{"ha":386,"x_min":9,"x_max":419,"o":"m 50 376 q 38 373 45 372 q 26 380 31 374 l 12 400 q 9 413 9 407 q 16 424 9 419 l 151 518 l 151 949 q 120 988 151 977 q 91 996 106 993 q 66 1002 75 999 q 55 1007 57 1004 q 52 1017 52 1009 q 62 1030 52 1025 l 235 1112 q 245 1116 243 1116 q 257 1099 257 1116 l 257 593 l 378 677 q 401 673 392 686 l 415 654 q 419 642 419 648 q 412 630 419 635 l 257 521 l 257 103 q 330 26 257 37 q 362 12 362 22 q 355 0 362 1 l 53 0 q 46 9 46 1 q 78 26 46 22 q 151 103 151 37 l 151 447 l 50 376 z "},"":{"ha":1185,"x_min":41,"x_max":1161,"o":"m 46 0 q 41 5 41 0 l 41 22 q 47 27 41 27 l 63 27 q 114 34 100 27 q 164 168 164 58 l 164 873 q 76 927 164 918 q 48 929 56 929 q 41 935 41 929 l 41 951 q 46 956 41 956 l 294 956 l 938 245 q 943 240 941 241 q 947 238 944 238 q 950 244 950 238 l 950 711 q 928 888 950 846 q 838 929 905 929 l 803 929 q 798 935 798 929 l 798 951 q 803 956 798 956 l 1156 956 q 1161 951 1161 956 l 1161 935 q 1141 929 1161 929 q 1075 906 1121 929 q 1029 849 1029 883 l 1029 20 q 1025 -2 1029 5 q 1006 -8 1021 -8 q 983 -2 991 -8 q 966 16 976 4 l 267 791 q 254 798 260 798 q 251 791 251 798 l 251 114 q 349 33 251 52 q 390 27 376 27 q 404 22 404 27 l 404 5 q 399 0 404 0 l 46 0 m 530 1081 q 528 1085 528 1084 q 530 1089 528 1086 l 675 1289 q 723 1322 699 1322 q 761 1307 747 1322 q 774 1266 774 1292 q 737 1208 774 1240 l 555 1061 q 549 1059 551 1059 q 545 1061 547 1059 l 530 1081 z "},"":{"ha":792,"x_min":-56,"x_max":685,"o":"m 454 214 l 453 357 q 438 479 453 444 q 400 533 423 515 q 338 551 377 551 q 173 490 299 551 q 155 471 156 479 l 155 106 q 229 27 155 37 q 260 12 260 22 q 254 0 260 1 l -49 0 q -56 9 -56 1 q -24 27 -56 22 q 50 106 50 37 l 50 495 q 18 534 50 524 q -11 542 5 539 q -36 548 -26 545 q -47 553 -45 551 q -50 563 -50 555 q -39 576 -50 571 l 134 658 q 144 662 142 662 q 155 646 155 662 l 155 540 q 161 533 157 533 q 190 545 165 533 q 307 602 248 574 q 405 629 366 629 q 562 343 562 629 l 555 145 l 555 106 q 608 37 555 53 q 651 26 631 29 q 679 20 672 23 q 685 9 685 18 q 678 0 685 1 l 351 0 q 345 9 345 1 q 376 27 345 22 q 449 111 449 37 q 454 214 454 145 m 300 743 q 297 747 297 746 q 300 751 297 749 l 444 951 q 492 985 469 985 q 530 969 516 985 q 544 928 544 954 q 507 871 544 903 l 324 724 q 319 722 321 722 q 315 724 317 722 l 300 743 z "},"":{"ha":1185,"x_min":41,"x_max":1161,"o":"m 46 0 q 41 5 41 0 l 41 22 q 47 27 41 27 l 63 27 q 114 34 100 27 q 164 168 164 58 l 164 873 q 76 927 164 918 q 48 929 56 929 q 41 935 41 929 l 41 951 q 46 956 41 956 l 294 956 l 938 245 q 943 240 941 241 q 947 238 944 238 q 950 244 950 238 l 950 711 q 928 888 950 846 q 838 929 905 929 l 803 929 q 798 935 798 929 l 798 951 q 803 956 798 956 l 1156 956 q 1161 951 1161 956 l 1161 935 q 1141 929 1161 929 q 1075 906 1121 929 q 1029 849 1029 883 l 1029 20 q 1025 -2 1029 5 q 1006 -8 1021 -8 q 983 -2 991 -8 q 966 16 976 4 l 267 791 q 254 798 260 798 q 251 791 251 798 l 251 114 q 349 33 251 52 q 390 27 376 27 q 404 22 404 27 l 404 5 q 399 0 404 0 l 46 0 m 725 -204 q 606 -415 725 -330 q 566 -434 579 -434 q 555 -416 555 -434 q 570 -395 555 -405 q 591 -378 585 -385 q 660 -267 660 -317 q 652 -243 660 -248 q 618 -239 644 -239 q 565 -220 593 -239 q 536 -162 536 -200 q 555 -108 536 -124 q 614 -79 586 -79 q 696 -121 667 -79 q 725 -204 725 -163 z "},"":{"ha":789,"x_min":35,"x_max":776,"o":"m 545 214 l 544 357 q 529 479 544 444 q 491 533 514 515 q 429 551 468 551 q 264 490 390 551 q 246 471 247 479 l 246 106 q 319 27 246 37 q 351 12 351 22 q 345 0 351 1 l 42 0 q 35 9 35 1 q 67 27 35 22 q 140 106 140 37 l 140 495 q 109 534 140 524 q 80 542 96 539 q 55 548 64 545 q 44 553 46 551 q 41 563 41 555 q 52 576 41 571 l 224 658 q 235 662 233 662 q 246 646 246 662 l 246 540 q 252 533 248 533 q 281 545 256 533 q 398 602 339 574 q 496 629 457 629 q 652 343 652 629 l 646 145 l 646 106 q 699 37 646 53 q 742 26 722 29 q 769 20 763 23 q 776 9 776 18 q 769 0 776 1 l 442 0 q 435 9 435 1 q 467 27 435 22 q 540 111 540 37 q 545 214 545 145 m 505 -204 q 386 -415 505 -330 q 345 -434 359 -434 q 335 -416 335 -434 q 350 -395 335 -405 q 371 -378 364 -385 q 439 -267 439 -317 q 432 -243 439 -248 q 398 -239 424 -239 q 344 -220 372 -239 q 316 -162 316 -200 q 334 -108 316 -124 q 394 -79 366 -79 q 476 -121 447 -79 q 505 -204 505 -163 z "},"":{"ha":1185,"x_min":41,"x_max":1161,"o":"m 46 0 q 41 5 41 0 l 41 22 q 47 27 41 27 l 63 27 q 114 34 100 27 q 164 168 164 58 l 164 873 q 76 927 164 918 q 48 929 56 929 q 41 935 41 929 l 41 951 q 46 956 41 956 l 294 956 l 938 245 q 943 240 941 241 q 947 238 944 238 q 950 244 950 238 l 950 711 q 928 888 950 846 q 838 929 905 929 l 803 929 q 798 935 798 929 l 798 951 q 803 956 798 956 l 1156 956 q 1161 951 1161 956 l 1161 935 q 1141 929 1161 929 q 1075 906 1121 929 q 1029 849 1029 883 l 1029 20 q 1025 -2 1029 5 q 1006 -8 1021 -8 q 983 -2 991 -8 q 966 16 976 4 l 267 791 q 254 798 260 798 q 251 791 251 798 l 251 114 q 349 33 251 52 q 390 27 376 27 q 404 22 404 27 l 404 5 q 399 0 404 0 l 46 0 m 782 1320 q 788 1322 785 1322 q 798 1313 791 1322 q 804 1301 804 1304 q 800 1291 804 1297 l 631 1073 q 614 1058 620 1058 q 597 1073 608 1058 l 436 1291 q 431 1301 431 1297 q 438 1313 431 1304 q 449 1322 445 1322 q 455 1320 452 1322 l 600 1168 q 607 1160 602 1166 q 614 1154 612 1154 q 621 1160 615 1154 q 628 1168 626 1166 l 782 1320 z "},"":{"ha":789,"x_min":35,"x_max":776,"o":"m 545 214 l 544 357 q 529 479 544 444 q 491 533 514 515 q 429 551 468 551 q 264 490 390 551 q 246 471 247 479 l 246 106 q 319 27 246 37 q 351 12 351 22 q 345 0 351 1 l 42 0 q 35 9 35 1 q 67 27 35 22 q 140 106 140 37 l 140 495 q 109 534 140 524 q 80 542 96 539 q 55 548 64 545 q 44 553 46 551 q 41 563 41 555 q 52 576 41 571 l 224 658 q 235 662 233 662 q 246 646 246 662 l 246 540 q 252 533 248 533 q 281 545 256 533 q 398 602 339 574 q 496 629 457 629 q 652 343 652 629 l 646 145 l 646 106 q 699 37 646 53 q 742 26 722 29 q 769 20 763 23 q 776 9 776 18 q 769 0 776 1 l 442 0 q 435 9 435 1 q 467 27 435 22 q 540 111 540 37 q 545 214 545 145 m 562 983 q 567 985 564 985 q 577 976 570 985 q 584 964 584 967 q 579 954 584 960 l 411 736 q 393 721 399 721 q 376 736 387 721 l 216 954 q 211 964 211 960 q 218 976 211 967 q 228 985 224 985 q 235 983 232 985 l 380 831 q 387 823 382 829 q 393 817 392 817 q 400 823 395 817 q 408 831 406 829 l 562 983 z "},"":{"ha":789,"x_min":-50,"x_max":776,"o":"m 545 214 l 544 357 q 529 479 544 444 q 491 533 514 515 q 429 551 468 551 q 264 490 390 551 q 246 471 247 479 l 246 106 q 319 27 246 37 q 351 12 351 22 q 345 0 351 1 l 42 0 q 35 9 35 1 q 67 27 35 22 q 140 106 140 37 l 140 495 q 109 534 140 524 q 80 542 96 539 q 55 548 64 545 q 44 553 46 551 q 41 563 41 555 q 52 576 41 571 l 224 658 q 235 662 233 662 q 246 646 246 662 l 246 540 q 252 533 248 533 q 281 545 256 533 q 398 602 339 574 q 496 629 457 629 q 652 343 652 629 l 646 145 l 646 106 q 699 37 646 53 q 742 26 722 29 q 769 20 763 23 q 776 9 776 18 q 769 0 776 1 l 442 0 q 435 9 435 1 q 467 27 435 22 q 540 111 540 37 q 545 214 545 145 m 138 831 q 20 621 138 705 q -22 602 -7 602 q -31 613 -31 602 q -27 630 -31 625 q -18 640 -23 635 q -7 647 -12 644 q 5 656 -2 650 q 73 768 73 718 q 48 798 73 798 q -42 840 -20 798 q -50 884 -50 856 q -25 934 -50 911 q 28 956 -1 956 q 110 915 81 956 q 138 831 138 873 z "},"":{"ha":1185,"x_min":41,"x_max":1161,"o":"m 46 0 q 41 5 41 0 l 41 22 q 47 27 41 27 l 63 27 q 114 34 100 27 q 164 168 164 58 l 164 873 q 46 929 157 929 q 41 935 41 929 l 41 951 q 46 956 41 956 l 294 956 l 938 245 q 943 240 941 241 q 947 238 944 238 q 950 244 950 238 l 950 711 q 948 818 950 779 q 935 879 945 857 q 901 911 924 901 q 838 929 878 921 l 803 929 q 798 935 798 929 l 798 951 q 803 956 798 956 l 1156 956 q 1161 951 1161 956 l 1161 935 q 1141 929 1161 929 q 1075 906 1121 929 q 1029 849 1029 883 l 1029 -108 q 1005 -288 1029 -229 q 974 -339 994 -316 q 817 -430 914 -419 q 748 -434 784 -434 q 675 -407 711 -434 q 637 -347 640 -379 q 673 -293 637 -311 q 693 -288 684 -288 q 787 -347 709 -288 q 878 -368 814 -368 q 950 -215 950 -351 l 950 62 l 267 791 q 254 798 260 798 q 251 791 251 798 l 251 114 q 349 33 251 52 q 390 27 376 27 q 404 22 404 27 l 404 5 q 399 0 404 0 l 46 0 z "},"":{"ha":785,"x_min":35,"x_max":652,"o":"m 473 -368 q 545 -215 545 -351 l 545 238 l 544 357 q 531 479 544 444 q 506 530 519 514 q 434 564 477 564 q 264 503 390 564 q 246 484 247 493 l 246 106 q 319 27 246 37 q 351 12 351 22 q 345 0 351 1 l 42 0 q 35 9 35 1 q 67 27 35 22 q 140 106 140 37 l 140 495 q 109 534 140 524 q 80 542 96 539 q 55 548 64 545 q 44 553 46 551 q 41 563 41 555 q 52 576 41 571 l 224 658 q 235 662 233 662 q 246 646 246 662 l 246 540 q 252 533 248 533 q 257 534 255 533 q 262 536 258 534 l 411 610 q 490 629 446 629 q 600 576 563 629 q 652 343 652 503 l 651 145 l 651 -86 q 606 -283 651 -195 q 569 -339 591 -314 q 412 -430 509 -419 q 343 -434 379 -434 q 271 -407 307 -434 q 232 -347 235 -379 q 269 -293 232 -311 q 288 -288 279 -288 q 382 -347 304 -288 q 473 -368 410 -368 z "},"":{"ha":1200,"x_min":75,"x_max":1126,"o":"m 869 58 q 741 2 810 22 q 616 -18 671 -18 q 404 18 505 -18 q 182 166 266 68 q 75 484 75 292 q 146 738 75 623 q 343 918 217 852 q 613 985 469 985 q 873 920 758 985 q 1057 743 987 856 q 1126 499 1126 631 q 1057 250 1126 368 q 869 58 989 132 m 217 506 q 217 450 217 506 q 267 282 217 393 q 410 102 317 172 q 625 32 503 32 q 895 165 798 32 q 983 471 983 285 q 876 793 983 658 q 748 898 823 859 q 595 938 672 938 q 469 921 518 938 q 380 874 420 904 q 309 804 340 845 q 258 716 279 764 q 217 506 217 618 m 397 1264 l 836 1264 l 836 1177 l 397 1177 l 397 1264 z "},"":{"ha":751,"x_min":51,"x_max":700,"o":"m 51 305 q 51 371 51 305 q 145 534 51 438 q 372 630 240 630 q 602 537 505 630 q 700 307 700 444 q 607 76 700 170 q 375 -18 515 -18 q 143 77 235 -18 q 51 305 51 172 m 220 130 q 401 18 286 18 q 537 90 490 18 q 584 264 584 161 q 518 477 584 368 q 340 587 452 587 q 211 516 258 587 q 163 336 163 445 q 220 130 163 227 m 153 897 l 592 897 l 592 809 l 153 809 l 153 897 z "},"":{"ha":1200,"x_min":75,"x_max":1126,"o":"m 869 58 q 741 2 810 22 q 616 -18 671 -18 q 404 18 505 -18 q 182 166 266 68 q 75 484 75 292 q 146 738 75 623 q 343 918 217 852 q 613 985 469 985 q 873 920 758 985 q 1057 743 987 856 q 1126 499 1126 631 q 1057 250 1126 368 q 869 58 989 132 m 217 506 q 217 450 217 506 q 267 282 217 393 q 410 102 317 172 q 625 32 503 32 q 895 165 798 32 q 983 471 983 285 q 876 793 983 658 q 748 898 823 859 q 595 938 672 938 q 469 921 518 938 q 380 874 420 904 q 309 804 340 845 q 258 716 279 764 q 217 506 217 618 m 602 1111 q 565 1111 602 1111 q 474 1175 528 1111 q 420 1322 420 1239 l 441 1322 q 494 1229 441 1266 q 602 1192 548 1192 q 710 1237 655 1192 q 764 1322 764 1282 l 787 1322 q 731 1178 787 1244 q 602 1111 675 1111 z "},"":{"ha":747,"x_min":51,"x_max":700,"o":"m 51 305 q 51 371 51 305 q 145 534 51 438 q 372 630 240 630 q 602 537 505 630 q 700 307 700 444 q 607 76 700 170 q 375 -18 515 -18 q 143 77 235 -18 q 51 305 51 172 m 220 130 q 401 18 286 18 q 537 90 490 18 q 584 264 584 161 q 518 477 584 368 q 340 587 452 587 q 211 516 258 587 q 163 336 163 445 q 220 130 163 227 m 364 743 q 327 743 364 743 q 236 807 290 743 q 182 955 182 871 l 203 955 q 257 861 203 899 q 364 824 311 824 q 472 869 418 824 q 527 955 527 914 l 549 955 q 494 810 549 877 q 364 743 438 743 z "},"":{"ha":1200,"x_min":75,"x_max":1126,"o":"m 869 58 q 741 2 810 22 q 616 -18 671 -18 q 404 18 505 -18 q 182 166 266 68 q 75 484 75 292 q 146 738 75 623 q 343 918 217 852 q 613 985 469 985 q 873 920 758 985 q 1057 743 987 856 q 1126 499 1126 631 q 1057 250 1126 368 q 869 58 989 132 m 217 506 q 217 450 217 506 q 267 282 217 393 q 410 102 317 172 q 625 32 503 32 q 895 165 798 32 q 983 471 983 285 q 876 793 983 658 q 748 898 823 859 q 595 938 672 938 q 469 921 518 938 q 380 874 420 904 q 309 804 340 845 q 258 716 279 764 q 217 506 217 618 m 513 1081 q 511 1085 511 1084 q 513 1089 511 1086 l 658 1289 q 706 1322 682 1322 q 744 1307 730 1322 q 758 1266 758 1292 q 720 1208 758 1240 l 538 1061 q 532 1059 534 1059 q 528 1061 530 1059 l 513 1081 m 696 1081 q 694 1085 694 1084 q 696 1089 694 1086 l 841 1289 q 889 1322 865 1322 q 927 1307 913 1322 q 941 1266 941 1292 q 903 1208 941 1240 l 721 1061 q 715 1059 718 1059 q 711 1061 713 1059 l 696 1081 z "},"":{"ha":751,"x_min":51,"x_max":700,"o":"m 51 305 q 51 371 51 305 q 145 534 51 438 q 372 630 240 630 q 602 537 505 630 q 700 307 700 444 q 607 76 700 170 q 375 -18 515 -18 q 143 77 235 -18 q 51 305 51 172 m 220 130 q 401 18 286 18 q 537 90 490 18 q 584 264 584 161 q 518 477 584 368 q 340 587 452 587 q 211 516 258 587 q 163 336 163 445 q 220 130 163 227 m 262 743 q 260 747 260 746 q 262 751 260 749 l 407 951 q 455 985 431 985 q 493 969 479 985 q 507 928 507 954 q 469 871 507 903 l 287 724 q 281 722 283 722 q 277 724 279 722 l 262 743 m 446 743 q 443 747 443 746 q 446 751 443 749 l 590 951 q 638 985 614 985 q 676 969 662 985 q 690 928 690 954 q 652 871 690 903 l 470 724 q 465 722 467 722 q 460 724 463 722 l 446 743 z "},"":{"ha":1432,"x_min":75,"x_max":1372,"o":"m 625 971 l 821 956 l 1274 956 q 1291 951 1286 956 q 1298 932 1297 947 l 1310 736 q 1300 729 1310 729 q 1286 735 1290 729 q 1275 785 1281 742 q 1251 856 1268 827 q 1192 892 1234 884 l 909 892 q 900 883 900 892 l 900 532 q 907 525 900 525 l 1148 525 q 1232 631 1232 525 q 1238 636 1232 636 l 1254 636 q 1259 631 1259 636 l 1259 340 q 1254 335 1259 335 l 1238 335 q 1232 340 1232 335 q 1175 456 1232 441 q 1139 460 1158 460 l 907 460 q 900 454 900 460 l 900 124 q 947 66 900 73 q 975 64 960 64 l 1201 64 q 1310 126 1271 64 q 1343 227 1337 170 q 1364 246 1345 246 q 1372 237 1372 246 l 1350 9 q 1340 0 1345 0 l 758 0 q 677 -5 719 0 q 565 -11 636 -11 q 449 -1 493 -11 q 301 62 372 16 q 149 217 206 125 q 75 480 75 336 q 145 734 75 623 q 342 908 216 844 q 625 971 467 971 m 309 798 q 287 769 309 798 q 240 665 264 740 q 217 522 217 590 q 267 286 217 394 q 409 109 316 177 q 625 40 502 40 q 734 49 694 40 q 768 121 768 69 l 768 836 q 739 897 768 875 q 579 924 669 924 q 422 890 489 924 q 309 798 355 855 z "},"":{"ha":1119,"x_min":51,"x_max":1072,"o":"m 610 94 q 374 -18 518 -18 q 140 74 230 -18 q 51 296 51 166 q 143 518 51 426 q 354 611 236 611 q 611 494 514 611 q 846 629 694 629 q 963 601 918 629 q 1053 479 1006 578 q 1072 415 1072 439 q 1055 391 1072 391 l 662 391 q 651 363 651 391 l 651 333 q 807 71 651 125 q 875 58 843 58 q 981 93 935 58 q 1020 120 994 98 q 1049 142 1046 142 l 1053 142 q 1060 138 1057 142 q 1066 132 1063 134 q 1041 97 1066 117 q 980 47 1025 77 q 810 -18 892 -18 q 610 94 688 -18 m 160 350 q 160 309 160 350 q 185 192 160 269 q 263 67 210 116 q 397 18 315 18 q 523 86 478 18 q 568 256 568 155 q 504 463 568 357 q 332 569 440 569 q 206 500 252 569 q 160 350 160 431 m 669 436 q 682 423 669 423 l 930 423 q 948 444 948 423 q 908 538 948 494 q 815 582 867 582 q 722 542 763 582 q 669 444 681 501 l 669 436 z "},"":{"ha":962,"x_min":27,"x_max":954,"o":"m 35 0 q 30 14 30 0 l 30 22 q 35 27 30 27 q 48 28 39 27 q 66 31 57 30 q 84 34 76 33 q 96 37 92 36 q 165 115 165 52 l 165 831 q 118 914 165 890 q 58 929 90 929 l 33 929 q 27 935 27 929 l 27 951 q 35 956 27 956 l 408 966 l 476 966 q 677 879 596 958 q 758 685 758 800 q 662 505 758 569 q 597 469 632 485 l 803 134 q 947 9 857 45 q 954 0 954 7 q 932 -17 954 -17 q 689 99 779 -17 q 650 157 669 125 l 474 432 l 313 439 l 307 439 q 297 430 297 439 l 297 117 q 318 62 297 80 q 391 37 339 43 q 424 31 404 35 q 451 27 444 27 q 458 22 458 27 l 458 5 q 452 0 458 0 l 35 0 m 352 931 q 348 931 352 931 q 335 930 344 930 q 311 929 326 930 q 297 918 297 929 l 297 507 l 298 487 q 311 472 300 473 l 380 468 q 610 604 571 468 q 623 701 623 646 q 556 870 623 808 q 386 932 490 932 q 368 931 376 932 q 352 931 360 931 m 313 1081 q 311 1085 311 1084 q 313 1089 311 1086 l 458 1289 q 506 1322 482 1322 q 544 1307 530 1322 q 557 1266 557 1292 q 520 1208 557 1240 l 338 1061 q 332 1059 334 1059 q 328 1061 330 1059 l 313 1081 z "},"":{"ha":507,"x_min":35,"x_max":507,"o":"m 460 486 q 436 495 452 488 q 348 521 380 521 q 281 481 316 521 q 246 410 246 441 l 246 103 q 305 35 246 52 q 353 25 331 28 q 382 20 376 22 q 389 9 389 17 q 382 0 389 1 l 42 0 q 35 9 35 1 q 67 26 35 22 q 140 103 140 37 l 140 462 q 109 501 140 490 q 80 509 96 506 q 55 515 64 512 q 44 520 46 517 q 41 530 41 522 q 52 543 41 538 l 224 625 q 235 629 233 629 q 246 612 246 629 l 246 503 q 250 494 246 494 q 278 526 256 494 q 385 616 342 616 q 457 597 408 616 q 507 566 507 578 q 491 518 507 550 q 460 486 475 486 m 171 743 q 168 747 168 746 q 171 751 168 749 l 315 951 q 363 985 340 985 q 401 969 387 985 q 415 928 415 954 q 378 871 415 903 l 195 724 q 190 722 192 722 q 186 724 188 722 l 171 743 z "},"":{"ha":962,"x_min":27,"x_max":954,"o":"m 35 0 q 30 14 30 0 l 30 22 q 35 27 30 27 q 48 28 39 27 q 66 31 57 30 q 84 34 76 33 q 96 37 92 36 q 165 115 165 52 l 165 831 q 118 914 165 890 q 58 929 90 929 l 33 929 q 27 935 27 929 l 27 951 q 35 956 27 956 l 408 966 l 476 966 q 677 879 596 958 q 758 685 758 800 q 662 505 758 569 q 597 469 632 485 l 803 134 q 947 9 857 45 q 954 0 954 7 q 932 -17 954 -17 q 689 99 779 -17 q 650 157 669 125 l 474 432 l 313 439 l 307 439 q 297 430 297 439 l 297 117 q 318 62 297 80 q 391 37 339 43 q 424 31 404 35 q 451 27 444 27 q 458 22 458 27 l 458 5 q 452 0 458 0 l 35 0 m 352 931 q 348 931 352 931 q 335 930 344 930 q 311 929 326 930 q 297 918 297 929 l 297 507 l 298 487 q 311 472 300 473 l 380 468 q 610 604 571 468 q 623 701 623 646 q 556 870 623 808 q 386 932 490 932 q 368 931 376 932 q 352 931 360 931 m 603 -204 q 484 -415 603 -330 q 444 -434 457 -434 q 433 -416 433 -434 q 448 -395 433 -405 q 469 -378 463 -385 q 538 -267 538 -317 q 530 -243 538 -248 q 496 -239 522 -239 q 443 -220 471 -239 q 414 -162 414 -200 q 433 -108 414 -124 q 492 -79 464 -79 q 574 -121 545 -79 q 603 -204 603 -163 z "},"":{"ha":507,"x_min":35,"x_max":507,"o":"m 460 486 q 436 495 452 488 q 348 521 380 521 q 281 481 316 521 q 246 410 246 441 l 246 103 q 305 35 246 52 q 353 25 331 28 q 382 20 376 22 q 389 9 389 17 q 382 0 389 1 l 42 0 q 35 9 35 1 q 67 26 35 22 q 140 103 140 37 l 140 462 q 109 501 140 490 q 80 509 96 506 q 55 515 64 512 q 44 520 46 517 q 41 530 41 522 q 52 543 41 538 l 224 625 q 235 629 233 629 q 246 612 246 629 l 246 503 q 250 494 246 494 q 278 526 256 494 q 385 616 342 616 q 457 597 408 616 q 507 566 507 578 q 491 518 507 550 q 460 486 475 486 m 338 -204 q 220 -415 338 -330 q 179 -434 193 -434 q 169 -416 169 -434 q 183 -395 169 -405 q 205 -378 198 -385 q 273 -267 273 -317 q 266 -243 273 -248 q 232 -239 258 -239 q 178 -220 206 -239 q 150 -162 150 -200 q 168 -108 150 -124 q 228 -79 199 -79 q 310 -121 281 -79 q 338 -204 338 -163 z "},"":{"ha":962,"x_min":27,"x_max":954,"o":"m 35 0 q 30 14 30 0 l 30 22 q 35 27 30 27 q 48 28 39 27 q 66 31 57 30 q 84 34 76 33 q 96 37 92 36 q 165 115 165 52 l 165 831 q 118 914 165 890 q 58 929 90 929 l 33 929 q 27 935 27 929 l 27 951 q 35 956 27 956 l 408 966 l 476 966 q 677 879 596 958 q 758 685 758 800 q 662 505 758 569 q 597 469 632 485 l 803 134 q 947 9 857 45 q 954 0 954 7 q 932 -17 954 -17 q 689 99 779 -17 q 650 157 669 125 l 474 432 l 313 439 l 307 439 q 297 430 297 439 l 297 117 q 318 62 297 80 q 391 37 339 43 q 424 31 404 35 q 451 27 444 27 q 458 22 458 27 l 458 5 q 452 0 458 0 l 35 0 m 352 931 q 348 931 352 931 q 335 930 344 930 q 311 929 326 930 q 297 918 297 929 l 297 507 l 298 487 q 311 472 300 473 l 380 468 q 610 604 571 468 q 623 701 623 646 q 556 870 623 808 q 386 932 490 932 q 368 931 376 932 q 352 931 360 931 m 619 1320 q 625 1322 622 1322 q 635 1313 628 1322 q 642 1301 642 1304 q 637 1291 642 1297 l 469 1073 q 451 1058 457 1058 q 434 1073 445 1058 l 273 1291 q 269 1301 269 1297 q 275 1313 269 1304 q 286 1322 282 1322 q 292 1320 290 1322 l 437 1168 q 445 1160 439 1166 q 451 1154 450 1154 q 458 1160 452 1154 q 465 1168 463 1166 l 619 1320 z "},"":{"ha":507,"x_min":35,"x_max":507,"o":"m 460 486 q 436 495 452 488 q 348 521 380 521 q 281 481 316 521 q 246 410 246 441 l 246 103 q 305 35 246 52 q 353 25 331 28 q 382 20 376 22 q 389 9 389 17 q 382 0 389 1 l 42 0 q 35 9 35 1 q 67 26 35 22 q 140 103 140 37 l 140 462 q 109 501 140 490 q 80 509 96 506 q 55 515 64 512 q 44 520 46 517 q 41 530 41 522 q 52 543 41 538 l 224 625 q 235 629 233 629 q 246 612 246 629 l 246 503 q 250 494 246 494 q 278 526 256 494 q 385 616 342 616 q 457 597 408 616 q 507 566 507 578 q 491 518 507 550 q 460 486 475 486 m 416 983 q 421 985 418 985 q 431 976 425 985 q 438 964 438 967 q 433 954 438 960 l 265 736 q 248 721 254 721 q 231 736 241 721 l 70 954 q 65 964 65 960 q 72 976 65 967 q 82 985 79 985 q 89 983 86 985 l 234 831 q 241 823 236 829 q 248 817 246 817 q 254 823 249 817 q 262 831 260 829 l 416 983 z "},"":{"ha":696,"x_min":61,"x_max":635,"o":"m 572 948 q 579 933 579 948 l 597 789 q 600 771 600 775 q 589 768 600 768 q 576 770 578 768 q 570 780 573 773 q 564 794 568 786 q 556 810 560 802 q 511 872 542 842 q 343 944 437 944 q 237 907 287 944 q 186 821 186 871 q 205 734 186 771 q 254 667 224 698 q 324 607 285 635 q 404 549 363 578 q 557 420 512 474 q 635 235 629 338 q 546 51 635 119 q 340 -18 458 -18 q 221 -3 265 -18 q 159 19 176 12 q 135 26 142 26 q 125 25 127 26 l 92 18 q 81 33 83 18 q 61 211 61 201 q 63 225 61 222 q 72 229 64 229 q 106 175 91 229 q 343 22 178 22 q 473 68 419 22 q 527 189 527 115 q 386 408 527 307 q 271 488 346 437 q 151 589 195 538 q 81 765 81 668 q 158 923 81 861 q 334 985 235 985 q 448 967 386 985 q 534 943 510 949 l 572 948 m 245 1081 q 243 1085 243 1084 q 245 1089 243 1086 l 390 1289 q 438 1322 414 1322 q 476 1307 462 1322 q 490 1266 490 1292 q 452 1208 490 1240 l 270 1061 q 264 1059 267 1059 q 260 1061 262 1059 l 245 1081 z "}}}
